<svg xmlns="http://www.w3.org/2000/svg" viewBox="0 0 227 50.3" enable-background="new 0 0 227 50.3"><path fill="#CB3837" d="M168.3 7.7c-4.2-1.7-8.8-.1-11.2 3.5-2.4-3.6-7-5.2-11.2-3.5-4.7 1.9-7 7.3-5.1 12 1.8 4.5 16.3 15.9 16.3 15.9s14.5-11.3 16.3-15.9c2-4.7-.3-10.1-5.1-12z"/><path fill="#fff" d="M36 36V7H7v29h15V14h7v22zM58 36h15V7H44v36h14v-7zm0-22h7v15h-7V14z"/><path fill="#CB3837" d="M80-.4v43.7H65.5v7.3H36.4v-51H80zM43.7 6.8v36.4h14.6V36h14.6V6.8H43.7zm14.5 7.3h7.3v14.6h-7.3V14.1z"/><path fill="#fff" d="M124 36V7H80v29h15V14h7v22h7V14h7v22zM191 7v29h29V7h-8v22h-7V7z"/><path fill="#CB3837" d="M43.7-.4v43.7H0V-.4h43.7zM7.3 6.8V36h14.6V14.1h7.3V36h7.3V6.8H7.3zM72.8 43.2V-.4H131v43.7H72.8zM80 6.8V36h14.6V14.1h7.3V36h7.3V14.1h7.3V36h7.3V6.8H80zM226.9-.4v43.7h-43.7V-.4h43.7zm-36.3 7.2V36h29.1V6.8h-7.3v21.8h-7.3V6.8h-14.5z"/></svg>