<?xml version="1.0" encoding="utf-8"?>
<!-- Generator: Adobe Illustrator 19.1.0, SVG Export Plug-In . SVG Version: 6.00 Build 0)  -->
<svg version="1.1" id="wombat" xmlns="http://www.w3.org/2000/svg" xmlns:xlink="http://www.w3.org/1999/xlink" x="0px" y="0px"
	 viewBox="0 59.1 573.6 525" style="enable-background:new 0 59.1 573.6 525;" xml:space="preserve">
<g>
	<path d="M159,224.1c9,0,18.3,1.5,27.6,4.8c4.2,1.5,8.4,3.6,12.9,3.6c3.9,0,8.1-1.5,12.3-6.6c0.6-0.6,1.2-0.9,1.8-0.9
		c3,0,5.4,9.9,6,12.3c3.9,17.4,15.9,26.4,24.9,40.9c18.6,29.7,23.7,63.1,26.4,97.3c0.6,9-5.4,14.4-11.7,18
		c-33.9,19.8-65.8,29.4-97.9,29.4c-32.4,0-65.8-9.6-102.7-27.6c-15-7.2-13.8-17.4-11.1-34.5c6-37.5,14.4-73.3,40.6-103
		c5.7-6.3,6.9-16.2,10.5-24.6c1.2-3.3,3.3-8.1,5.7-8.1c1.2,0,2.7,1.5,4.2,5.1s3.9,4.8,6.3,4.8c3.3,0,6.9-1.8,10.2-3.3
		C136.5,226.8,147.6,224.1,159,224.1 M159,218.1L159,218.1c-12,0-24.3,2.7-36,7.8l-0.9,0.3c-2.4,1.2-5.4,2.4-6.9,2.4
		c-0.3,0-0.3,0-0.3,0s-0.3-0.3-0.6-1.2c-0.9-2.1-3.6-8.7-9.9-8.7c-6.3,0-9,6.9-10.8,11.1l-0.3,0.6c-1.2,3-2.1,6-3,9
		c-1.8,5.4-3.3,10.5-6.3,13.8c-28.2,31.8-36.6,71.5-42.1,106c-2.7,16.8-5.1,31.5,14.4,40.9c39.7,19.2,73,28.2,105.4,28.2
		c33.3,0,66.4-9.9,100.9-30.3c3.9-2.4,15.6-9.3,14.4-23.7c-2.7-33.3-7.8-68.5-27.3-100c-3-5.1-6.6-9.3-9.9-13.5
		c-6.3-8.1-12-15.3-14.4-25.5c-1.8-8.1-4.8-17.1-12-17.1l0,0c-1.8,0-4.2,0.6-6.3,3.3c-3.6,4.2-6,4.5-7.8,4.5c-2.4,0-5.4-1.2-8.1-2.1
		c-0.9-0.3-1.8-0.6-2.7-0.9C178.8,219.9,168.9,218.1,159,218.1L159,218.1L159,218.1z"/>
	<path d="M132,391.4c11.7-8.4,40.6-8.7,52.9-0.9c9.6,6.3,9.6,15-0.3,21c-7.8,4.8-16.8,5.4-25.8,5.4c-9.6,0-18.9-0.9-27-6.6
		C123.2,404,123.5,397.4,132,391.4z"/>
	<circle cx="197.7" cy="380" r="5.4"/>
	<circle cx="119.6" cy="380" r="5.4"/>
</g>
<g>
	<path d="M415.2,224.4c9,0,18.3,1.5,27.6,4.8c4.2,1.5,8.4,3.6,12.9,3.6c3.9,0,8.1-1.5,12.3-6.6c0.6-0.6,1.2-0.9,1.8-0.9
		c3,0,5.4,9.9,6,12.3c3.9,17.4,15.9,26.4,24.9,40.9c18.6,29.7,23.7,63.1,26.4,97.3c0.6,9-5.4,14.4-11.7,18
		c-33.9,19.8-65.8,29.4-97.9,29.4c-32.4,0-65.8-9.6-102.7-27.6c-15-7.2-13.8-17.4-11.1-34.5c6-37.5,14.4-73.3,40.6-103
		c5.7-6.3,6.9-16.2,10.5-24.6c1.2-3.3,3.3-8.1,5.7-8.1c1.2,0,2.7,1.5,4.2,5.1c1.5,3.6,3.9,4.8,6.3,4.8c3.3,0,6.9-1.8,10.2-3.3
		C392.7,227.1,403.8,224.4,415.2,224.4 M415.2,218.4L415.2,218.4c-12,0-24.3,2.7-36,7.8l-0.9,0.3c-2.4,1.2-5.4,2.4-6.9,2.4
		c-0.3,0-0.3,0-0.3,0s-0.3-0.3-0.6-1.2c-0.9-2.1-3.6-8.7-9.9-8.7s-9,6.9-10.8,11.1l-0.3,0.6c-1.2,3-2.1,6-3,9
		c-1.8,5.4-3.3,10.5-6.3,13.8c-28.2,31.8-36.6,71.5-42.1,106c-2.7,16.8-5.1,31.5,14.4,40.9c39.7,19.2,73,28.2,105.4,28.2
		c33.3,0,66.4-9.9,100.9-30.3c3.9-2.4,15.6-9.3,14.4-23.7c-2.7-33.3-7.8-68.5-27.3-100c-3-5.1-6.6-9.3-9.9-13.5
		c-6.3-8.1-12-15.3-14.4-25.5c-1.8-8.1-4.8-17.1-12-17.1l0,0c-1.8,0-4.2,0.6-6.3,3.3c-3.6,4.2-6,4.5-7.8,4.5c-2.4,0-5.4-1.2-8.1-2.1
		c-0.9-0.3-1.8-0.6-2.7-0.9C435.1,220.2,425.1,218.4,415.2,218.4L415.2,218.4L415.2,218.4z"/>
	<path d="M388.2,391.7c11.7-8.4,40.6-8.7,52.9-0.9c9.6,6.3,9.6,15-0.3,21c-7.8,4.8-16.8,5.4-25.8,5.4c-9.6,0-18.9-0.9-27-6.6
		C379.5,404.3,379.8,397.7,388.2,391.7z"/>
	<circle cx="454" cy="380.3" r="5.4"/>
	<circle cx="375.9" cy="380.3" r="5.4"/>
</g>
</svg>
