<?xml version="1.0" encoding="UTF-8" standalone="no"?>
<svg width="467px" height="389px" viewBox="0 0 467 389" version="1.1" xmlns="http://www.w3.org/2000/svg" xmlns:xlink="http://www.w3.org/1999/xlink" xmlns:sketch="http://www.bohemiancoding.com/sketch/ns">
    <!-- Generator: Sketch 3.3.3 (12072) - http://www.bohemiancoding.com/sketch -->
    <title>Wombat</title>
    <desc>Created with Sketch.</desc>
    <defs>
        <linearGradient x1="49.9997886%" y1="99.999917%" x2="49.9991544%" y2="-1.6594701e-05%" id="linearGradient-1">
            <stop stop-color="#FFFFFF" offset="0%"></stop>
            <stop stop-color="#000000" offset="32.68%"></stop>
        </linearGradient>
        <linearGradient x1="-9.3006628e-15%" y1="50.0021821%" x2="99.9999509%" y2="50.0021821%" id="linearGradient-2">
            <stop stop-color="#FFFFFF" offset="0%"></stop>
            <stop stop-color="#000000" offset="32.68%"></stop>
        </linearGradient>
        <linearGradient x1="0%" y1="49.9992726%" x2="100.000049%" y2="49.9992726%" id="linearGradient-3">
            <stop stop-color="#FFFFFF" offset="0%"></stop>
            <stop stop-color="#000000" offset="32.68%"></stop>
        </linearGradient>
        <linearGradient x1="100.000033%" y1="49.9992726%" x2="8.18092274e-05%" y2="49.9992726%" id="linearGradient-4">
            <stop stop-color="#FFFFFF" offset="0%"></stop>
            <stop stop-color="#000000" offset="32.68%"></stop>
        </linearGradient>
    </defs>
    <g id="UI-Design" stroke="none" stroke-width="1" fill="none" fill-rule="evenodd" sketch:type="MSPage">
        <g id="UI---Organization---Marketing" sketch:type="MSArtboardGroup" transform="translate(-285.000000, -941.000000)">
            <g id="Pitch" sketch:type="MSLayerGroup" transform="translate(248.000000, 634.000000)">
                <g id="Wombat" transform="translate(37.500000, 307.000000)" sketch:type="MSShapeGroup">
                    <g id="tiles" transform="translate(0.000000, 234.740854)">
                        <path d="M235.317378,0.29773628 L231.389427,0.29773628 L227.461808,0.29773628 L223.533856,150.097739 L231.389427,150.097739 L239.24533,150.097739 L235.317378,0.29773628 Z" id="Shape" fill="url(#linearGradient-1)"></path>
                        <rect id="Rectangle-path" fill="url(#linearGradient-2)" x="0.0837006415" y="60.3522713" width="202.999299" height="4.55821646"></rect>
                        <g id="Group" transform="translate(13.617962, 60.722561)">
                            <g transform="translate(0.000000, 1.941311)">
                                <rect id="Rectangle-path" fill="url(#linearGradient-3)" x="0.0209251604" y="0.154173018" width="202.999299" height="4.55821646"></rect>
                                <ellipse id="Oval" fill="#000000" cx="25.1669893" cy="11.2715396" rx="4.47067712" ry="2.06193979"></ellipse>
                                <ellipse id="Oval" fill="#000000" cx="71.6673457" cy="11.2715396" rx="4.47034498" ry="2.06193979"></ellipse>
                            </g>
                            <g transform="translate(249.109052, 0.000000)">
                                <rect id="Rectangle-path" fill="url(#linearGradient-4)" x="0.020593015" y="0.0954839939" width="202.999963" height="4.55821646"></rect>
                                <ellipse id="Oval" fill="#000000" cx="177.874492" cy="11.3195579" rx="4.47067712" ry="2.06193979"></ellipse>
                                <ellipse id="Oval" fill="#000000" cx="131.374135" cy="11.3195579" rx="4.47067712" ry="2.06193979"></ellipse>
                            </g>
                        </g>
                    </g>
                    <g id="front_bolts" transform="translate(248.444761, 339.180640)">
                        <g id="Group">
                            <g transform="translate(3.653599, 31.497713)">
                                <path d="M10.1022024,4.51842988 L0.166072701,4.00584604 C0.166072701,4.00584604 1.55211547,6.63308689 5.13397149,10.2089062 L5.13397149,16.4119665 C5.13397149,17.327721 7.35834925,18.0697409 10.1018703,18.0697409 C12.8460556,18.0697409 15.0704334,17.327721 15.0704334,16.4119665 L15.0704334,10.2089062 C18.6526215,6.63308689 20.0386643,4.00584604 20.0386643,4.00584604 L10.1022024,4.51842988 L10.1022024,4.51842988 Z" id="Shape" fill="#AAAAAA"></path>
                                <path d="M16.6175666,4.18223323 C16.250546,4.81749238 14.7967455,7.16655869 11.7489793,10.2089062 L11.7489793,14.2664748 L11.7489793,17.9745846 C13.6820656,17.7474695 15.0704334,17.1347561 15.0704334,16.4119665 L15.0704334,15.3662424 L15.0704334,10.2089062 C18.6526215,6.63308689 20.0386643,4.00584604 20.0386643,4.00584604 L16.6175666,4.18223323 L16.6175666,4.18223323 Z" id="Shape" fill="#999999"></path>
                                <ellipse id="Oval" fill="#C4C4C4" cx="10.1025346" cy="4.00584604" rx="9.93646187" ry="3.8400686"></ellipse>
                            </g>
                            <ellipse id="Oval" fill="#C4C4C4" cx="8.33120314" cy="3.0383689" rx="8.16513043" ry="2.8377782"></ellipse>
                        </g>
                    </g>
                    <ellipse id="shadow" opacity="0.1" fill="#000000" cx="231.189475" cy="324.20729" rx="94.1236964" ry="22.5636357"></ellipse>
                    <g id="npm-wombat_1_" transform="translate(84.032787, 0.000000)">
                        <g id="Group" transform="translate(33.214540, 140.910823)">
                            <g id="body__x2B__legs_1_">
                                <g id="body_3_" transform="translate(10.960798, 11.935976)">
                                    <g id="body_4_">
                                        <path d="M215.026948,67.243971 C196.955581,29.6386852 159.977833,0.0132621951 116.63618,0.0132621951 C73.2961867,0.0132621951 36.3181069,29.6386852 18.2454113,67.2429764 C0.174376336,104.850915 0.15677263,149.905907 0.15677263,149.905907 C39.5239743,176.479036 116.63618,178.592367 116.63618,178.592367 C116.63618,178.592367 193.762335,176.473399 233.115254,149.905907 C233.115254,149.907233 233.098315,104.84992 215.026948,67.243971 L215.026948,67.243971 Z" id="body_5_" fill="#986844"></path>
                                        <g id="body_shadow_1_" transform="translate(0.000000, 38.460366)" fill="#895D3D">
                                            <path d="M47.4280385,130.588525 C2.57711618,90.1212576 30.4610549,18.0790244 30.4610549,18.0790244 L43.4535866,0.0334870427 C43.4535866,0.0334870427 39.0762423,1.47077744 34.934057,2.67896341 C28.3422994,10.6747409 22.7154241,19.4848171 18.2467398,28.7839367 C1.41028938,63.82133 0.245123307,105.31907 0.16474412,110.824207 C0.16474412,110.834154 0.164411974,110.844764 0.164411974,110.855042 C0.163415538,110.923674 0.162751247,110.986338 0.162086957,111.041376 C0.162086957,111.053312 0.162086957,111.064916 0.161754811,111.075857 C0.16109052,111.125259 0.160758375,111.169687 0.159761939,111.209143 L0.159761939,111.264512 C0.159761939,111.290042 0.159097648,111.314245 0.159097648,111.335133 L0.159097648,111.384535 L0.159097648,111.444878 C13.1725545,120.232077 30.312918,126.342965 47.4280385,130.588525 L47.4280385,130.588525 L47.4280385,130.588525 Z" id="Shape"></path>
                                            <path d="M185.862257,130.588525 C230.713179,90.1212576 202.829572,18.0790244 202.829572,18.0790244 L189.837041,0.0321608232 C189.837041,0.0321608232 194.21671,1.46978277 198.35657,2.6776372 C204.948328,10.6737462 210.575203,19.4834909 215.04422,28.7816159 C231.880006,63.8203354 233.045504,105.317744 233.125551,110.822881 C233.125551,110.833159 233.125883,110.843437 233.126215,110.854047 C233.128208,110.922679 233.128872,110.985343 233.129537,111.040381 C233.129537,111.052649 233.130533,111.063921 233.130533,111.074863 C233.131197,111.123933 233.132194,111.168693 233.132526,111.207816 C233.132858,111.228373 233.13319,111.24495 233.13319,111.263186 C233.13319,111.289047 233.133522,111.312588 233.133855,111.333807 L233.133855,111.38354 C233.134187,111.418022 233.134187,111.443883 233.134187,111.443883 C220.118073,120.232077 202.977709,126.342965 185.862257,130.588525 L185.862257,130.588525 L185.862257,130.588525 Z" id="Shape"></path>
                                        </g>
                                    </g>
                                    <g id="belly_1_" transform="translate(0.000000, 89.519817)" fill="#B78563">
                                        <path d="M116.629537,0.142237043 C67.0435495,0.142237043 23.9682766,14.1749657 2.19913471,34.7857431 C0.16109052,49.8824314 0.156440485,60.3874162 0.156440485,60.3874162 C39.5236422,86.960545 116.635847,89.0738758 116.635847,89.0738758 C116.635847,89.0738758 193.762003,86.9549085 233.115254,60.3874162 C233.115254,60.3874162 233.109608,49.8900572 231.073889,34.8019893 C209.311058,14.1825915 166.226153,0.142237043 116.629537,0.142237043 L116.629537,0.142237043 Z" id="Shape"></path>
                                    </g>
                                </g>
                                <g id="Group" transform="translate(10.960798, 0.000000)">
                                    <g>
                                        <path d="M67.8596308,0.0119359756 L87.7903478,0.0119359756 L87.7903478,81.0114558 L67.8596308,81.0114558 L67.8596308,0.0119359756 L67.8596308,0.0119359756 Z M145.561062,0.0119359756 L165.491779,0.0119359756 L165.491779,81.0114558 L145.561062,81.0114558 L145.561062,0.0119359756 L145.561062,0.0119359756 Z" id="straps" fill="#2E5DA0"></path>
                                        <path d="M223.544153,101.228346 C171.135926,101.228346 165.411732,55.1475229 165.411732,55.1475229 L139.002851,55.1475229 L116.63618,55.1475229 L116.635515,55.1475229 L111.26871,55.1475229 L67.8596308,55.1475229 C67.8596308,55.1475229 62.1367655,101.228346 9.72754241,101.228346 C0.170722737,132.385884 0.157436921,161.840888 0.157436921,161.840888 C39.5103564,188.404402 116.580711,190.52569 116.63618,190.527348 L116.636844,190.527348 C116.692312,190.525358 193.762003,188.405065 233.114922,161.840888 C233.114258,161.841883 233.101304,132.385884 223.544153,101.228346 L223.544153,101.228346 Z" id="Shape" fill="#2E5DA0"></path>
                                        <g transform="translate(0.000000, 23.540396)" id="Shape" fill="#295490">
                                            <path d="M23.0020656,76.5924924 C18.9478988,77.2970465 14.5360114,77.6889444 9.72754241,77.6889444 C9.28678546,79.1262348 8.86628938,80.5595465 8.46538988,81.9872218 C8.45708624,82.0163986 8.44878261,82.0455755 8.44047897,82.0747523 C8.32090663,82.5011319 8.2036593,82.9268483 8.08740841,83.3525648 C8.06648325,83.4311433 8.04389736,83.5113796 8.0229722,83.5906212 C7.90937847,84.0057279 7.79844191,84.4201715 7.68883393,84.8342835 C7.66824091,84.9118674 7.64731575,84.9894512 7.62672274,85.0670351 C7.51478974,85.4920884 7.40385317,85.9164787 7.29490948,86.3398742 C7.28328439,86.3849657 7.27232359,86.4293941 7.26036636,86.474154 C6.53396436,89.3079535 5.88295937,92.1042873 5.29771917,94.841936 C5.29639059,94.8488986 5.29472986,94.8542035 5.29340128,94.8611662 C2.43927584,108.219181 1.17180898,120.163445 0.608158232,128.132035 C0.606829651,128.152591 0.605168924,128.173148 0.603840342,128.194367 C0.586568781,128.426787 0.570957947,128.656223 0.555679259,128.881681 C0.551693514,128.941692 0.548039914,129.000709 0.543722024,129.059726 C0.530104063,129.264958 0.516818247,129.467207 0.504196721,129.666139 C0.49921454,129.742729 0.495228795,129.818986 0.489914469,129.894581 C0.478621525,130.080915 0.467660727,130.264264 0.456035638,130.445625 C0.450389166,130.531166 0.446071276,130.614718 0.441089095,130.698933 C0.431124733,130.867694 0.42049608,131.035793 0.412192445,131.198918 C0.405881682,131.302363 0.400899501,131.401166 0.395253029,131.501959 C0.38794583,131.642538 0.379642195,131.784444 0.372667142,131.920713 C0.360045617,132.155454 0.348420527,132.384889 0.337459729,132.608026 C0.335134711,132.657428 0.332809694,132.703845 0.330484676,132.752584 C0.32151675,132.938918 0.312216679,133.122599 0.304577334,133.299981 C0.301920171,133.356014 0.299595153,133.409394 0.297602281,133.464432 C0.290627227,133.633194 0.282655738,133.799966 0.276344975,133.960438 C0.274352103,134.004535 0.272691376,134.046974 0.270366358,134.090408 C0.263391304,134.2721 0.256084105,134.449813 0.249441197,134.621227 C0.249109052,134.633163 0.248776907,134.645099 0.248112616,134.657035 C0.194637206,136.056528 0.173047755,137.083354 0.164411974,137.683136 C0.164411974,137.693083 0.164079829,137.703693 0.164079829,137.714303 C0.163083393,137.782934 0.162419102,137.845598 0.161754811,137.900636 C0.161754811,137.912572 0.161754811,137.924177 0.161422666,137.935118 C0.160758375,137.984188 0.160094084,138.028617 0.160094084,138.068072 C0.160094084,138.088628 0.159429793,138.104874 0.159429793,138.123441 L0.159429793,138.194062 C0.159429793,138.21495 0.159429793,138.228544 0.158433357,138.243464 L0.158433357,138.303807 C0.527114754,138.552805 0.899781896,138.798487 1.2751062,139.043175 C1.38305346,139.113464 1.491665,139.183091 1.60027655,139.253049 C1.87529294,139.431094 2.1529665,139.607481 2.43196864,139.783537 C2.5502124,139.859131 2.66978475,139.933399 2.7886928,140.008662 C3.12349537,140.216879 3.45995866,140.423769 3.79808268,140.628338 C3.84757234,140.658841 3.89672986,140.689345 3.94621953,140.71819 C4.32353671,140.9463 4.70450748,141.170431 5.08813542,141.39423 C5.22298646,141.47314 5.35949822,141.551719 5.49634212,141.630297 C5.75840485,141.781486 6.02146401,141.931681 6.2855196,142.08088 C6.43531718,142.165758 6.58478261,142.250305 6.73524448,142.334188 C7.02720029,142.497313 7.32114897,142.65878 7.61542979,142.820248 C7.72503778,142.879928 7.83331718,142.940271 7.94292516,142.999619 C8.32356379,143.205846 8.70752388,143.409752 9.09314469,143.612332 C9.25689237,143.6992 9.42163649,143.784409 9.58604847,143.868624 C9.83316465,143.997268 10.080613,144.124916 10.329722,144.251902 C10.5070877,144.341753 10.6847855,144.432599 10.8631475,144.521456 C11.124546,144.652752 11.387273,144.783384 11.6503321,144.914017 C11.8061083,144.989943 11.9612202,145.068521 12.1169964,145.144116 C12.5002922,145.331444 12.8869095,145.517447 13.2748553,145.702454 C13.4628496,145.791974 13.6525046,145.879836 13.8408311,145.969024 C14.0766543,146.079432 14.3128097,146.18984 14.5502937,146.299253 C14.7509095,146.392088 14.9518574,146.484592 15.1531376,146.576433 C15.3929465,146.685514 15.6330877,146.793601 15.8738931,146.901025 C16.0642124,146.987229 16.2545317,147.073102 16.4451832,147.156654 C16.833129,147.329062 17.2230677,147.498819 17.6146671,147.66758 C17.8229223,147.757431 18.0325061,147.84662 18.2420898,147.935808 C18.4689451,148.03229 18.6954683,148.128441 18.9226557,148.223929 C19.142536,148.316101 19.3624163,148.408937 19.5829608,148.499451 C19.809484,148.59295 20.0363393,148.685785 20.2635267,148.778952 C20.4780927,148.867146 20.6916622,148.954345 20.9072245,149.041212 C21.3004847,149.200027 21.6947413,149.356189 22.0903264,149.512351 C22.313196,149.600545 22.5377263,149.686086 22.7615923,149.772954 C22.9834654,149.859821 23.2056707,149.945694 23.4282081,150.03024 C23.6617063,150.120091 23.8955367,150.208617 24.1296992,150.297473 C24.3495795,150.380362 24.570124,150.463251 24.7906686,150.545476 C25.0205132,150.631349 25.25069,150.717553 25.4805346,150.801437 C25.8791091,150.947652 26.27868,151.093205 26.6792473,151.236437 C26.9117491,151.319989 27.1452473,151.402214 27.3780813,151.485103 C27.5992901,151.56335 27.8204989,151.642591 28.0423721,151.719512 C28.2845061,151.805053 28.5276365,151.8896 28.7707669,151.973483 C28.9876579,152.048746 29.2055453,152.122351 29.4224362,152.196951 C29.6635738,152.279177 29.9043792,152.361734 30.146181,152.442965 C30.4427869,152.542763 30.7390606,152.641235 31.0359986,152.739707 C31.3810976,152.854093 31.7261967,152.967485 32.0716279,153.078887 C32.2964904,153.151829 32.5206885,153.224108 32.7445545,153.296387 C32.9906743,153.374966 33.236794,153.454207 33.4842423,153.53146 C33.7067798,153.602744 33.9296493,153.672039 34.1521867,153.742329 C34.3943207,153.817923 34.6361226,153.893849 34.8785887,153.96878 C35.1549337,154.05399 35.431943,154.138205 35.7089522,154.22242 C36.0766372,154.334817 36.4446543,154.445556 36.8133357,154.555633 C37.0474982,154.625591 37.2816607,154.695549 37.5161554,154.764512 C37.7606144,154.836791 38.0067341,154.908407 38.2515253,154.978697 C38.4813699,155.045671 38.7112145,155.11165 38.9410592,155.178624 C39.180536,155.247588 39.4196807,155.316551 39.6598218,155.38452 C39.9364989,155.462104 40.2138403,155.540351 40.4908496,155.617271 C40.8522238,155.719059 41.2142623,155.818194 41.5759686,155.91766 C41.8283991,155.986623 42.0808297,156.055918 42.3322637,156.124219 C42.5720727,156.188872 42.8115495,156.254188 43.0516907,156.317515 C43.2888425,156.380842 43.5263264,156.444169 43.7641426,156.506502 C44.0016265,156.568834 44.2384462,156.631829 44.4759301,156.692835 C44.7469608,156.763788 45.01932,156.834078 45.2913471,156.904036 C45.6507284,156.996208 46.0097776,157.08838 46.3688268,157.178563 C46.634211,157.245206 46.8995952,157.312511 47.1646472,157.378822 C47.2516693,157.39971 47.3386914,157.421593 47.4260456,157.443144 C21.8398888,134.355983 19.9263991,100.992942 23.0020656,76.5924924 L23.0020656,76.5924924 Z"></path>
                                            <path d="M223.54382,77.6879497 C218.742659,77.6879497 214.33675,77.2977096 210.288562,76.5954764 C213.363896,100.992611 211.449742,134.350678 185.870228,157.436513 C202.977045,153.190953 220.105119,147.082386 233.113262,138.301155 C233.113594,138.301486 233.10064,108.845488 223.54382,77.6879497 L223.54382,77.6879497 Z"></path>
                                            <path d="M88.0012602,5.13147485 C51.3573186,16.0094588 24.1914783,42.1276944 13.7531447,72.2902363 C53.5760499,89.054314 109.37216,72.1612614 109.37216,72.1612614 C109.37216,72.1612614 163.462703,56.4253354 188.265329,21.9217454 C162.993713,1.56427591 125.288235,-5.93682165 88.0012602,5.13147485 L88.0012602,5.13147485 Z"></path>
                                        </g>
                                        <path d="M155.447702,96.3551524 L116.636844,96.3551524 L116.635515,96.3551524 L77.8253215,96.3551524 C77.8253215,96.3551524 57.6272274,113.225991 57.6272274,136.434832 C57.6272274,136.434832 67.8596308,155.757187 116.63618,155.757187 C165.412728,155.757187 175.645132,136.434832 175.645132,136.434832 C175.645132,113.225991 155.447702,96.3551524 155.447702,96.3551524 L155.447702,96.3551524 Z" id="Shape" fill="#346BAD"></path>
                                        <path d="M107.043488,96.3551524 L77.8253215,96.3551524 C77.8253215,96.3551524 75.160851,98.581875 71.7679857,102.527378 C88.2875695,101.063895 101.813859,97.7609451 107.043488,96.3551524 L107.043488,96.3551524 Z" id="Shape" fill="#2E5DA0"></path>
                                        <g id="stithes" transform="translate(63.439772, 62.663872)" fill="#3E82C6">
                                            <path d="M135.323012,43.2987462 C134.035284,42.8902706 132.756192,42.4403506 131.521276,41.9629116 L132.121463,40.4172027 C133.324825,40.8823742 134.571367,41.3206898 135.826545,41.7192187 L135.323012,43.2987462 L135.323012,43.2987462 Z M151.236098,44.8255564 C149.92047,44.6929345 148.604178,44.5294779 147.323758,44.3408232 L147.081292,45.9806936 C148.386623,46.1729954 149.72849,46.339436 151.069029,46.4747104 L151.236098,44.8255564 L151.236098,44.8255564 Z M143.443635,43.6694245 C142.148268,43.4118064 140.857219,43.1190434 139.606691,42.7997561 L139.194831,44.4058079 C140.474255,44.7323895 141.794533,45.0321151 143.119129,45.2957012 L143.443635,43.6694245 L143.443635,43.6694245 Z M159.113923,45.2867492 C157.787002,45.2622142 156.459749,45.2114863 155.1687,45.1368864 L155.07271,46.7920084 C156.385016,46.8679345 157.734523,46.9193255 159.082701,46.9445236 L159.113923,45.2867492 L159.113923,45.2867492 Z M128.508717,38.884093 C127.316979,38.3317226 126.139192,37.7365816 125.008901,37.1152477 L124.207766,38.5671265 C125.371604,39.207359 126.58327,39.8194093 127.809551,40.3876944 L128.508717,38.884093 L128.508717,38.884093 Z M100.172396,12.1478392 L101.694287,11.4840663 C101.169829,10.2868216 100.682239,9.05841082 100.244804,7.83331555 L98.6807313,8.39032774 C99.1307883,9.65089939 99.6329922,10.9154497 100.172396,12.1478392 L100.172396,12.1478392 Z M99.0567199,4.08972942 C98.5943735,2.42200838 98.3183607,1.09247332 98.1678988,0.270880335 L96.5344077,0.568616616 C96.6908482,1.42336509 96.9774897,2.80462271 97.4561112,4.53169207 L99.0567199,4.08972942 L99.0567199,4.08972942 Z M105.335264,18.4351143 C104.653038,17.3303735 103.999708,16.182862 103.39321,15.0244093 L101.921142,15.7922904 C102.545907,16.9852248 103.218502,18.1668864 103.920989,19.3047828 L105.335264,18.4351143 L105.335264,18.4351143 Z M121.642939,35.1076829 C120.545199,34.3978239 119.465062,33.6428735 118.432754,32.8627248 L117.430339,34.1843026 C118.494865,34.9889863 119.608549,35.7674771 120.7405,36.4992187 L121.642939,35.1076829 L121.642939,35.1076829 Z M109.92485,24.7870427 C109.0905,23.7950305 108.279401,22.7546113 107.51447,21.695625 L106.166957,22.6650915 C106.956134,23.7572332 107.792476,24.8298133 108.652401,25.8529916 L109.92485,24.7870427 L109.92485,24.7870427 Z M115.397942,30.3863415 C114.421766,29.5269512 113.466184,28.6198171 112.55677,27.6894741 L111.368354,28.8472637 C112.306,29.8067835 113.29214,30.7430945 114.299537,31.6296723 L115.397942,30.3863415 L115.397942,30.3863415 Z" id="Shape"></path>
                                            <path d="M53.2013899,87.2911052 L53.1964077,87.2911052 C51.8389294,87.2911052 50.4870976,87.2751905 49.1781126,87.2436928 L49.2176379,85.5865816 C50.5133371,85.6174162 51.8522153,85.6333308 53.1964077,85.6333308 L53.2013899,87.2911052 L53.2013899,87.2911052 Z M57.2193528,87.2440244 L57.1798275,85.5869131 C58.5180413,85.5550838 59.8552587,85.5066768 61.1542794,85.4420236 L61.2366515,87.0978087 C59.9233485,87.163125 58.5718489,87.2118636 57.2193528,87.2440244 L57.2193528,87.2440244 Z M45.1611461,87.0981402 C43.8133001,87.0314977 42.4627969,86.9459566 41.1475011,86.8438377 L41.2760413,85.1913681 C42.5763906,85.2921608 43.9109508,85.3767073 45.243186,85.4423552 L45.1611461,87.0981402 L45.1611461,87.0981402 Z M65.2499644,86.8438377 L65.1214241,85.1913681 C66.4519986,85.087923 67.7829052,84.9645846 69.0772758,84.8240053 L69.2569665,86.4721646 C67.9456565,86.6140701 66.5978104,86.7393979 65.2499644,86.8438377 L65.2499644,86.8438377 Z M37.1401668,86.4721646 C35.7899957,86.3256174 34.4458033,86.1568559 33.1451219,85.9705221 L33.380613,84.329657 C34.6630264,84.5130069 35.9882865,84.6794474 37.3198574,84.8240053 L37.1401668,86.4721646 L37.1401668,86.4721646 Z M73.2523435,85.9695274 L73.0168525,84.3286623 C74.3424448,84.1393445 75.6600656,83.9258232 76.9325146,83.6943979 L77.2301169,85.3256479 C75.9370748,85.5603887 74.598861,85.7772256 73.2523435,85.9695274 L73.2523435,85.9695274 Z M29.1673485,85.3266425 C27.8248168,85.0826181 26.4952388,84.8124009 25.2148182,84.5236166 L25.5811746,82.9066235 C26.8386771,83.1901029 28.1453371,83.4556784 29.4649508,83.6953925 L29.1673485,85.3266425 L29.1673485,85.3266425 Z M81.1826472,84.5222904 L80.816623,82.9052973 C82.1229508,82.610545 83.4146643,82.287279 84.6562238,81.9441197 L85.0993058,83.5415511 C83.8325032,83.891673 82.5148824,84.2219017 81.1826472,84.5222904 L81.1826472,84.5222904 Z M21.2984918,83.5428773 C19.9732316,83.1768407 18.6722181,82.7789748 17.431655,82.3618788 L17.9624234,80.7909718 C19.1740898,81.1987843 20.4455424,81.5873666 21.7415738,81.9454459 L21.2984918,83.5428773 L21.2984918,83.5428773 Z M88.9658104,82.3598895 L88.4350421,80.7889825 C89.7111447,80.3596189 90.9546971,79.8974314 92.1318204,79.4146875 L92.7622324,80.9481288 C91.5528909,81.4444665 90.2754597,81.9189215 88.9658104,82.3598895 L88.9658104,82.3598895 Z M13.6349009,80.9501181 C12.3428553,80.420625 11.0989708,79.8553239 9.93779045,79.2701296 L10.686114,77.7904002 C11.8090976,78.3563643 13.013789,78.9034299 14.2659772,79.4166768 L13.6349009,80.9501181 L13.6349009,80.9501181 Z M96.4590107,79.2674771 L95.7110192,77.7877477 C95.8465346,77.7191159 95.9803892,77.6511471 96.1112545,77.5835099 C97.165484,77.0384337 98.1788596,76.4605335 99.123149,75.8657241 L100.009313,77.2678697 C99.0251661,77.8878773 97.9702723,78.4896494 96.8745246,79.0559451 C96.7380128,79.1262348 96.5998403,79.1968559 96.4590107,79.2674771 L96.4590107,79.2674771 Z M6.38682395,77.2701905 C5.18146828,76.5109299 4.06047755,75.7105564 3.05407698,74.8906212 L4.1039886,73.6065091 C5.05824234,74.3836738 6.12442908,75.1449238 7.27298788,75.868045 L6.38682395,77.2701905 L6.38682395,77.2701905 Z M103.342724,74.8876372 L102.29248,73.6035252 C103.296888,72.7845846 104.16578,71.9606707 104.873914,71.1543293 L105.185135,71.4265358 L106.307454,71.348952 L106.34864,71.9905107 L106.122781,72.2474657 C105.353532,73.1227706 104.418543,74.0110061 103.342724,74.8876372 L103.342724,74.8876372 Z M1.7411062,71.4689748 L0.0843649323,71.3542569 C0.177365645,70.0157698 0.350081254,68.6534108 0.597861725,67.3046456 L2.23135282,67.603045 C1.99453314,68.8911357 1.82978902,70.1918255 1.7411062,71.4689748 L1.7411062,71.4689748 Z M104.153491,67.6003925 C103.920657,66.3467835 103.612758,65.0696341 103.238763,63.8047523 L104.8314,63.3352706 C105.221671,64.654859 105.543187,65.9883727 105.786318,67.2980145 L104.153491,67.6003925 L104.153491,67.6003925 Z M3.13711333,63.8044207 L1.54314754,63.3389177 C1.91681112,62.0630945 2.36421098,60.7690358 2.87272559,59.492218 L4.41587313,60.1049314 C3.92662295,61.3333422 3.49649465,62.5783308 3.13711333,63.8044207 L3.13711333,63.8044207 Z M101.951367,60.1072523 C101.476399,58.921612 100.934006,57.7180678 100.338137,56.5307698 L101.823159,55.78875 C102.439621,57.0171608 103.001611,58.2634756 103.493518,59.492218 L101.951367,60.1072523 L101.951367,60.1072523 Z M6.0221283,56.5257965 L4.53577762,55.785766 C5.12932145,54.598468 5.78630506,53.4018864 6.48879259,52.2288453 L7.91402851,53.0796151 C7.23346258,54.2161852 6.59673984,55.3759642 6.0221283,56.5257965 L6.0221283,56.5257965 Z M98.4415866,53.0859146 C97.7796208,51.9815053 97.0588653,50.8691387 96.3002452,49.7793178 L97.6637021,48.8330602 C98.4439116,49.9533841 99.184928,51.09758 99.8668225,52.2341502 L98.4415866,53.0859146 L98.4415866,53.0859146 Z M10.0547056,49.7736814 L8.6915809,48.8270922 C9.45285816,47.7346189 10.267943,46.6424771 11.1135852,45.58117 L12.4132701,46.6133003 C11.5895495,47.6467569 10.7960542,48.7100534 10.0547056,49.7736814 L10.0547056,49.7736814 Z M93.9436736,46.6162843 C93.129253,45.5917797 92.2713215,44.5782165 91.3937933,43.6031136 L92.6297063,42.4950572 C93.5291561,43.4953582 94.4090093,44.5347828 95.244355,45.5858117 L93.9436736,46.6162843 L93.9436736,46.6162843 Z M14.9674683,43.6047713 L13.7345445,42.4940625 C14.6147299,41.5202858 15.5095296,40.5902744 16.3943649,39.7288948 L16.6364989,39.4934909 L17.1898532,39.4934909 L17.1898532,40.542862 L17.5542167,40.9158613 C16.6946244,41.7527058 15.8244034,42.6571875 14.9674683,43.6047713 L14.9674683,43.6047713 Z M89.1770549,41.1512652 L85.1776921,41.1512652 L85.1776921,39.4934909 L89.1770549,39.4934909 L89.1770549,41.1512652 L89.1770549,41.1512652 Z M81.1783293,41.1512652 L77.1792986,41.1512652 L77.1792986,39.4934909 L81.1783293,39.4934909 L81.1783293,41.1512652 L81.1783293,41.1512652 Z M73.1799359,41.1512652 L69.1805731,41.1512652 L69.1805731,39.4934909 L73.1799359,39.4934909 L73.1799359,41.1512652 L73.1799359,41.1512652 Z M65.1812103,41.1512652 L61.1821796,41.1512652 L61.1821796,39.4934909 L65.1812103,39.4934909 L65.1812103,41.1512652 L65.1812103,41.1512652 Z M57.1828168,41.1512652 L53.183454,41.1512652 L53.183454,39.4934909 L57.1828168,39.4934909 L57.1828168,41.1512652 L57.1828168,41.1512652 Z M49.1840912,41.1512652 L45.1850606,41.1512652 L45.1850606,39.4934909 L49.1844234,39.4934909 L49.1844234,41.1512652 L49.1840912,41.1512652 Z M41.1856978,41.1512652 L37.186335,41.1512652 L37.186335,39.4934909 L41.1856978,39.4934909 L41.1856978,41.1512652 L41.1856978,41.1512652 Z M33.1869722,41.1512652 L29.1876094,41.1512652 L29.1876094,39.4934909 L33.1869722,39.4934909 L33.1869722,41.1512652 L33.1869722,41.1512652 Z M25.1882466,41.1512652 L21.1888838,41.1512652 L21.1888838,39.4934909 L25.1882466,39.4934909 L25.1882466,41.1512652 L25.1882466,41.1512652 Z" id="Shape"></path>
                                        </g>
                                    </g>
                                    <g id="buttons" transform="translate(68.754098, 54.043445)">
                                        <g id="Group">
                                            <path d="M9.52128011,19.1108232 C4.27437919,19.1108232 0.00664290805,14.8496799 0.00664290805,9.61310213 C0.00664290805,4.37552973 4.27537562,0.115049543 9.52128011,0.115049543 C14.7671846,0.115049543 19.0359173,4.37652439 19.0359173,9.61310213 C19.0359173,14.8496799 14.7675167,19.1108232 9.52128011,19.1108232 L9.52128011,19.1108232 Z" id="Shape" fill="#B7AEA1"></path>
                                            <ellipse id="Oval" fill="#C9BFAF" cx="9.52094797" cy="9.61243902" rx="6.92024947" ry="6.90794588"></ellipse>
                                        </g>
                                        <g id="Group" transform="translate(76.725588, 0.000000)">
                                            <path d="M9.59667712,19.1108232 C4.34977619,19.1108232 0.0820399145,14.8496799 0.0820399145,9.61310213 C0.0820399145,4.37552973 4.35044048,0.115049543 9.59667712,0.115049543 C14.843578,0.115049543 19.1113143,4.37652439 19.1113143,9.61310213 C19.1113143,14.8496799 14.8429138,19.1108232 9.59667712,19.1108232 L9.59667712,19.1108232 Z" id="Shape" fill="#B7AEA1"></path>
                                            <ellipse id="Oval" fill="#C9BFAF" cx="9.59634498" cy="9.61243902" rx="6.91991732" ry="6.90761433"></ellipse>
                                        </g>
                                    </g>
                                </g>
                                <g id="legs_1_" transform="translate(0.000000, 112.065549)">
                                    <g id="leg_3_">
                                        <path d="M79.0320057,20.5192683 C79.0316736,20.5186052 79.0310093,20.5186052 79.0310093,20.5179421 C72.3479116,8.46459604 58.1290991,0.141242378 41.6693015,0.141242378 C18.7888011,0.141242378 0.240473272,16.2199962 0.240473272,36.053609 C0.240473272,53.4807965 14.4433428,69.2346265 32.9913386,72.08633 C51.5393343,74.937702 87.7219259,74.638971 87.7219259,74.638971 C96.608144,68.1511052 86.632489,33.9976372 79.0320057,20.5192683 L79.0320057,20.5192683 Z" id="Shape" fill="#2E5DA0"></path>
                                        <g id="shadow_8_" transform="translate(0.000000, 0.663110)" fill="#295490">
                                            <path d="M41.6689694,71.9205526 C-10.2609679,41.2570313 32.9119558,0.295746951 32.9265702,0.282153201 C14.2447199,3.76115854 0.240141126,18.1576029 0.240141126,35.3924886 C0.240141126,52.8196761 14.443675,68.5735061 32.9910064,71.4252096 C35.8707071,71.8678354 39.175886,72.2342035 42.7045987,72.5379078 C42.3654783,72.33367 42.0223721,72.1291006 41.6689694,71.9205526 L41.6689694,71.9205526 Z" id="Shape"></path>
                                            <path d="M21.0775835,63.086494 C25.4266325,69.4442438 34.4120514,71.9375452 41.1470784,68.6554385 C47.8821054,65.3733318 49.8163227,57.5586839 45.4672737,51.200934 C41.1182247,44.8431841 32.1328057,42.3498827 25.3977787,45.6319895 C18.6627518,48.9140962 16.7285345,56.7287441 21.0775835,63.086494 L21.0775835,63.086494 Z" id="Oval"></path>
                                        </g>
                                        <g id="Group" transform="translate(16.275125, 41.444360)">
                                            <path d="M6.44681946,25.2965579 C10.7847738,31.6495887 19.7671607,34.1313289 26.5095422,30.8396798 C33.2519237,27.5480307 35.201097,19.7294729 30.8631427,13.3764421 C26.5251884,7.02341128 17.5428014,4.54167106 10.8004199,7.83332015 C4.05803846,11.1249692 2.10886513,18.9435271 6.44681946,25.2965579 L6.44681946,25.2965579 Z" id="Oval" fill="#7A5336"></path>
                                            <path d="M12.973869,25.9029757 C15.6032183,29.7540225 21.0478575,31.2583048 25.1348111,29.2628842 C29.2217647,27.2674636 30.4033865,22.5279653 27.7740372,18.6769184 C25.1446879,14.8258716 19.7000487,13.3215893 15.6130951,15.3170099 C11.5261415,17.3124305 10.3445198,22.0519288 12.973869,25.9029757 L12.973869,25.9029757 Z" id="Oval" fill="#AF7146"></path>
                                        </g>
                                    </g>
                                    <g id="leg_1_" transform="translate(164.411974, 0.000000)">
                                        <path d="M12.488335,20.5192683 C12.4889993,20.5186052 12.4889993,20.5186052 12.4899957,20.5179421 C19.1727612,8.46459604 33.3915738,0.141242378 49.8497106,0.141242378 C72.7318717,0.141242378 91.2782067,16.2199962 91.2782067,36.053609 C91.2782067,53.4807965 77.07268,69.2346265 58.5273414,72.08633 C39.9810064,74.937702 3.79808268,74.638971 3.79808268,74.638971 C-5.08813542,68.1511052 4.8875196,33.9976372 12.488335,20.5192683 L12.488335,20.5192683 Z" id="Shape" fill="#2E5DA0"></path>
                                        <g id="shadow_7_" transform="translate(39.525303, 0.663110)" fill="#295490">
                                            <path d="M10.3257363,71.9205526 C62.2560057,41.2570313 19.0824177,0.295746951 19.0678033,0.282153201 C37.7496536,3.76115854 51.7542324,18.1576029 51.7542324,35.3924886 C51.7542324,52.8196761 37.5500342,68.5735061 19.0033671,71.4252096 C16.1236664,71.8678354 12.8184875,72.2342035 9.29010691,72.5379078 C9.62889522,72.33367 9.97200143,72.1291006 10.3257363,71.9205526 L10.3257363,71.9205526 Z" id="Shape"></path>
                                            <path d="M30.9335608,63.0855149 C35.2828708,56.7275754 33.3486475,48.9127482 26.6133523,45.6306097 C19.8780571,42.3484713 10.8922091,44.8419007 6.5428992,51.1998402 C2.19358926,57.5577797 4.1278125,65.3726069 10.8631077,68.6547454 C17.598403,71.9368838 26.5842509,69.4434544 30.9335608,63.0855149 L30.9335608,63.0855149 Z" id="Oval"></path>
                                        </g>
                                        <g id="Group" transform="translate(37.864576, 41.444360)">
                                            <path d="M30.9325298,25.2901812 C35.2818398,18.9322417 33.3476165,11.1174144 26.6123213,7.83527598 C19.8770261,4.55313755 10.8911782,7.04656697 6.54186822,13.4045065 C2.19255828,19.762446 4.12678152,27.5772732 10.8620767,30.8594116 C17.597372,34.1415501 26.5832199,31.6481207 30.9325298,25.2901812 L30.9325298,25.2901812 Z" id="Oval" fill="#7A5336"></path>
                                            <path d="M24.4181475,25.8846379 C27.0544468,22.0306032 25.8819062,17.2933754 21.7992048,15.3037435 C17.7165034,13.3141115 12.2696772,14.8255085 9.63337794,18.6795432 C6.99707867,22.5335779 8.16961925,27.2708057 12.2523206,29.2604376 C16.335022,31.2500696 21.7818482,29.7386726 24.4181475,25.8846379 L24.4181475,25.8846379 Z" id="Oval" fill="#AF7146"></path>
                                        </g>
                                    </g>
                                </g>
                            </g>
                            <g id="arms_1_" transform="translate(15.278689, 43.102134)">
                                <path d="M5.53487099,29.6536052 C-5.4405417,77.2569284 1.18642338,86.9111433 14.6349907,106.563396 C19.47601,113.636124 61.4857605,154.74495 107.407187,148.9938 C101.816848,104.51936 73.3290691,42.0995122 73.3290691,42.0995122 C73.3290691,42.0995122 22.420479,-43.5891883 5.53487099,29.6536052 L5.53487099,29.6536052 Z" id="arm_10_" fill="#986844"></path>
                                <path d="M20.0419857,56.3404573 C40.4991532,61.857862 63.2720385,60.4414596 80.0961996,57.9077172 C76.1061368,48.1842073 73.3290691,42.0991806 73.3290691,42.0991806 C73.3290691,42.0991806 59.6367071,19.0567797 44.0989451,7.08433308 L44.0999416,7.08300686 C44.066727,7.05747713 44.0335125,7.03294207 44.0006301,7.00741235 C43.9302153,6.9533689 43.8594683,6.90032012 43.7890535,6.84693979 C43.6209879,6.7189596 43.4525902,6.59197409 43.2838603,6.4669779 C43.2566244,6.44642149 43.2293885,6.42553354 43.2021525,6.40530869 C43.2018204,6.40564024 43.2014882,6.40564024 43.2011561,6.4059718 C29.0162224,-4.07978277 13.4950677,-4.87584604 5.53453885,29.6532736 C-5.44120599,77.2562652 1.18609123,86.9108117 14.6346586,106.562732 C19.4763421,113.635461 61.4857605,154.744619 107.406855,148.993136 C31.4511803,121.24995 17.4479301,84.0100381 20.0419857,56.3404573 L20.0419857,56.3404573 Z" id="Shape" fill="#895D3D"></path>
                            </g>
                        </g>
                        <g id="npm_-_wombat_-_face_2_">
                            <g id="ears_2_" transform="translate(25.243051, 0.000000)">
                                <g id="ear_6_" transform="translate(112.597292, 0.000000)">
                                    <path d="M13.5608325,0.0835518293 L0.324838204,15.4425 L14.0049109,31.2639672 L37.4397619,30.9377172 C37.4397619,30.9373857 28.5714797,12.267862 13.5608325,0.0835518293 L13.5608325,0.0835518293 Z" id="Shape" fill="#986844"></path>
                                    <path d="M3.43072986,19.034234 L0.325170349,15.4421684 L13.5608325,0.0835518293 L14.6240299,21.1691159 L3.43072986,19.034234 Z" id="Shape" fill="#895D3D"></path>
                                </g>
                                <g id="ear_5_" transform="translate(0.000000, 34.481707)">
                                    <path d="M4.68158945,0.220815549 L24.0463307,6.28893293 L20.7966201,26.9351867 L0.720755524,39.0087576 C0.719759088,39.0080945 -1.62286244,18.4792111 4.68158945,0.220815549 L4.68158945,0.220815549 Z" id="Shape" fill="#986844"></path>
                                    <path d="M23.3083036,10.9757927 L24.0459986,6.28860137 L4.68158945,0.220815549 L14.9315966,18.6880907 L23.3083036,10.9757927 Z" id="Shape" fill="#895D3D"></path>
                                </g>
                            </g>
                            <path d="M215.59857,64.0384985 C184.401481,26.631814 135.974017,3.96075457 90.5185902,16.9142721 C45.0631632,29.8684527 15.9250435,74.6439444 9.21238489,122.854676 C2.50205132,171.064413 17.1526529,222.359931 17.1526529,222.359931 C64.9912231,258.930103 152.456068,233.485918 152.456068,233.485918 C152.456068,233.485918 240.192941,209.000922 261.479475,152.731749 C261.482465,152.730423 246.795327,101.445183 215.59857,64.0384985 L215.59857,64.0384985 Z" id="head_3_" fill="#986844"></path>
                            <g id="nose_4_" transform="translate(104.957947, 182.686738)">
                                <path d="M36.7541416,15.5138589 C16.3117817,20.5822705 2.02577213,31.6458004 4.84544624,40.2249446 C7.66512034,48.8040888 26.5227249,51.6500999 46.9650848,46.5816884 C67.4074448,41.5132768 81.6934544,30.4497469 78.8737802,21.8706027 C76.0541061,13.2914585 57.1965016,10.4454474 36.7541416,15.5138589 L36.7541416,15.5138589 Z" id="nose_9_" fill="#895D3D"></path>
                                <path d="M35.7949315,12.15854 C15.35218,17.2269462 1.06573029,28.2899574 3.88525284,36.8684672 C6.7047754,45.4469769 25.5625744,48.2924781 46.0053259,43.2240719 C66.4480773,38.1556657 80.7345271,27.0926545 77.9150045,18.5141447 C75.0954819,9.93563493 56.2376829,7.09013377 35.7949315,12.15854 L35.7949315,12.15854 Z" id="nose_5_" fill="#000000"></path>
                            </g>
                            <g id="face_2_" transform="translate(87.022096, 167.103659)">
                                <g id="eyes_2_">
                                    <g id="eye_4_" transform="translate(0.000000, 25.198171)">
                                        <path d="M16.2229779,6.15498476 C17.4562338,10.4675191 14.9538503,14.9607508 10.6336351,16.1914825 C6.31508054,17.4222142 1.81118888,14.9259375 0.578265146,10.6137348 C-0.65532288,6.30020579 1.84772488,1.80697409 6.16794013,0.576573933 C10.4881554,-0.655483994 14.9890577,1.84178735 16.2229779,6.15498476 L16.2229779,6.15498476 Z" id="Shape" fill="#B78563"></path>
                                        <ellipse id="Oval" fill="#000000" cx="10.2951789" cy="9.38698171" rx="6.08922167" ry="6.07839558"></ellipse>
                                        <ellipse id="Oval" fill="#FFFFFF" cx="10.3881796" cy="7.78557165" rx="1.96829366" ry="1.96479421"></ellipse>
                                    </g>
                                    <g id="eye_3_" transform="translate(88.682823, 0.000000)">
                                        <path d="M0.40388881,10.5891997 C1.63714469,14.901734 6.14037206,17.3973476 10.4589266,16.1666159 C14.7781454,14.9358841 17.2818574,10.4426524 16.0486016,6.13011814 C14.8146814,1.81625762 10.3121183,-0.6796875 5.99323165,0.551044207 C1.67301639,1.78210747 -0.829699216,6.27500762 0.40388881,10.5891997 L0.40388881,10.5891997 Z" id="Shape" fill="#B78563"></path>
                                        <ellipse id="Oval" fill="#000000" cx="7.14710478" cy="10.2092378" rx="6.08922167" ry="6.07839558"></ellipse>
                                        <ellipse id="Oval" fill="#FFFFFF" cx="6.22108339" cy="8.89860137" rx="1.9686258" ry="1.96512576"></ellipse>
                                    </g>
                                </g>
                            </g>
                            <path d="M215.614181,64.0315358 C195.260975,39.6290968 167.575659,21.5010023 138.165845,15.4405107 C138.408311,15.5114634 140.853565,16.2428735 144.884814,18.1320732 C127.386398,17.05883 110.823967,18.9921265 100.33548,20.8150152 C100.351423,20.5683384 100.329169,20.3266349 100.262076,20.0925572 C99.5944633,17.7584108 94.9218418,17.043247 89.8254027,18.4957889 C84.7289636,19.9479992 81.138804,23.0175343 81.8064163,25.3520122 C81.853913,25.5181212 81.9239957,25.6756098 82.0110178,25.825141 C73.5715353,29.1135023 60.3524804,35.0496608 47.0726429,43.5835518 C48.352067,41.8253163 49.1734626,40.8979573 49.2883849,40.7696456 C47.938546,42.049779 46.6186001,43.3663834 45.3295438,44.7168064 C45.3282153,44.7174695 45.3272188,44.7181326 45.3258902,44.7191273 C44.7522751,45.3199047 44.1876279,45.9296341 43.6269665,46.5440053 C43.4313329,46.7581898 43.2370278,46.9733689 43.0427227,47.1892111 C42.7002808,47.5698361 42.3608282,47.9534451 42.0230364,48.3390434 C41.5254825,48.9060023 41.0339073,49.4795922 40.54665,50.0571608 C40.3805773,50.2541044 40.2125118,50.4487271 40.0477676,50.646997 L40.0477676,50.6479916 C23.565052,70.4312081 12.9357349,96.1107965 9.21304918,122.852687 C2.50271561,171.062092 17.1539815,222.357611 17.1539815,222.357611 C33.7662338,235.057489 55.1583906,240.277157 76.0061611,241.681955 C55.2424234,231.149451 38.3561511,214.835625 38.3561511,214.835625 C38.0230093,213.730553 37.6988354,212.633106 37.3796436,211.53997 C51.8874227,201.565473 78.3989366,168.89306 127.727179,154.835796 C181.776204,139.432752 224.386141,157.448449 238.883292,155.227031 C239.093207,155.985297 239.303123,156.744226 239.510382,157.51045 C239.510382,157.51045 238.968321,159.667877 237.867923,163.231429 C216.758422,162.675743 204.67464,177.468064 204.67464,177.468064 C204.67464,177.468064 191.562536,196.011265 179.830828,223.428533 C192.392567,217.998659 207.606488,210.295313 221.73861,200.143765 C221.736617,200.146749 221.734957,200.149402 221.733296,200.152054 C238.695962,187.971723 254.102858,172.265305 261.495418,152.723792 C261.496415,152.723792 246.809277,101.438883 215.614181,64.0315358 L215.614181,64.0315358 Z" id="Shape" fill="#895D3D"></path>
                            <g id="baseball_cap_6_" transform="translate(0.000000, 9.615091)">
                                <g id="nub_6_" transform="translate(79.382751, 0.000000)">
                                    <path d="M9.40835001,3.4039015 C4.1537468,4.68713304 0.45135743,7.39758326 1.13883189,9.45786151 C1.82630635,11.5181398 6.64331205,12.1480606 11.8979153,10.864829 C17.1525185,9.58159751 20.8549078,6.87114729 20.1674334,4.81086904 C19.4799589,2.75059078 14.6629532,2.12066996 9.40835001,3.4039015 L9.40835001,3.4039015 Z" id="Oval" fill="#DCDDAC"></path>
                                    <path d="M10.2324304,6.30095951 C4.97784066,7.58424507 1.27554485,10.2950614 1.96312127,12.3557372 C2.65069768,14.416413 7.46777511,15.0466123 12.7223648,13.7633268 C17.9769546,12.4800412 21.6792504,9.76922491 20.991674,7.70854909 C20.3040976,5.64787328 15.4870201,5.01767395 10.2324304,6.30095951 L10.2324304,6.30095951 Z" id="Oval" fill="#B7B69E"></path>
                                </g>
                                <g id="cap_6_" transform="translate(0.000000, 1.326220)">
                                    <path d="M184.404803,9.70792683 C148.697179,-7.12876143 97.9287541,3.18292683 90.0256864,5.43517912 C82.1239473,7.68709985 33.5526643,25.6848933 12.1322751,58.8022523 C-9.28678546,91.9196113 3.40017249,151.473167 10.2755823,160.319383 C10.2755823,160.319383 63.9795082,108.442649 115.302284,93.8167683 C166.626388,79.1902248 239.673465,94.9450495 239.673465,94.9450495 C240.832985,83.8091159 220.11143,26.5449466 184.404803,9.70792683 L184.404803,9.70792683 Z" id="Shape" fill="#DCDDAC"></path>
                                    <path d="M10.2759145,160.319383 C3.40116892,151.473167 -9.28645331,91.9196113 12.1326073,58.8022523 C22.1132445,43.3706936 37.990459,31.2225229 52.900134,22.4210671 C33.7243835,39.2481402 6.13837919,54.9555526 27.9556821,136.310499 C21.0108539,142.968784 14.7449309,150.215248 9.6162737,158.014082 L10.2759145,160.319383 L10.2759145,160.319383 Z M239.673798,94.9450495 C240.832985,83.8091159 220.111762,26.5449466 184.405467,9.70792683 C167.765979,1.8626753 147.859176,-0.0875304878 130.539122,0.294752287 C155.725043,4.47963796 187.46054,3.28206174 211.960582,83.8721113 C221.379561,85.8674085 230.533488,88.719112 239.013825,92.6394169 L239.673133,94.9443864 L239.673798,94.9450495 L239.673798,94.9450495 Z" id="shadow_13_" fill="#D1D1AA"></path>
                                    <path d="M94.7720442,4.30623476 C92.6180813,4.76013338 90.9952188,5.1589939 90.0256864,5.43517912 C89.0568182,5.71136433 87.4675025,6.22792683 85.3989009,6.9769093 L110.39716,94.383064 L119.769971,91.7117264 L94.7720442,4.30623476 L94.7720442,4.30623476 Z" id="Shape" fill="#C6C6A3"></path>
                                </g>
                                <g id="lip_6_" transform="translate(5.978617, 78.910061)">
                                    <path d="M241.243185,40.022984 L232.655897,9.99803735 C192.820703,-1.62428735 135.058957,7.48451982 108.949671,14.9246113 C82.8417135,22.3650343 28.967397,45.0712386 1.28440627,75.9350191 L9.87169351,105.959966 C9.87169351,105.959966 13.2197192,122.77245 26.2736978,119.052073 C39.3276764,115.331696 65.9335196,75.5852287 121.74989,59.6792149 C177.566593,43.7722066 221.184259,63.5063529 234.238238,59.7859756 C247.291552,56.0662614 241.243185,40.022984 241.243185,40.022984 L241.243185,40.022984 Z" id="Shape" fill="#66655D"></path>
                                    <path d="M36.2447028,112.654059 C32.2503222,115.972591 28.972047,118.283197 26.2733656,119.052073 C13.219387,122.77245 9.87169351,105.959634 9.87169351,105.959634 L1.28473842,75.9346875 C6.85016679,69.7299695 13.4754711,63.8564748 20.7188981,58.3689101 L36.2447028,112.654059 L36.2447028,112.654059 Z M222.386958,59.606936 C227.532222,60.3201105 231.541217,60.5541883 234.23857,59.7859756 C247.291885,56.0655983 241.243849,40.022984 241.243849,40.022984 L232.656562,9.99803735 C224.649532,7.66157012 215.915769,6.16459985 206.861818,5.32178735 L222.386958,59.606936 L222.386958,59.606936 Z" id="Shape" fill="#5C5B54"></path>
                                    <path d="M240.027865,35.7734451 L231.440577,5.74883003 C191.605383,-5.87316311 133.843636,3.23597561 107.734683,10.6763986 C81.6267256,18.1164901 27.752077,40.8220313 0.0687540984,71.6858117 L8.65604134,101.710095 C8.65604134,101.710095 12.004067,118.523243 25.0583778,114.803197 C38.1120242,111.08282 64.7178674,71.3363529 120.53457,55.4300076 C176.351273,39.5229992 219.968607,59.2571456 233.022918,55.5367683 C246.076565,51.8173857 240.027865,35.7734451 240.027865,35.7734451 L240.027865,35.7734451 Z" id="Shape" fill="#999782"></path>
                                    <path d="M35.0293828,108.405846 C31.0350021,111.72471 27.756727,114.035316 25.0583778,114.804524 C12.004067,118.524569 8.65637349,101.711753 8.65637349,101.711753 L0.0694183892,71.6864748 C5.6351789,65.48242 12.2601511,59.6075991 19.5039102,54.1213605 L35.0293828,108.405846 L35.0293828,108.405846 Z M221.17197,55.3583918 C226.317567,56.072561 230.32623,56.3066387 233.023914,55.5380945 C246.076897,51.8180488 240.028861,35.7747713 240.028861,35.7747713 L231.441574,5.74949314 C223.434545,3.41402058 214.700781,1.91605564 205.647162,1.0742378 L221.17197,55.3583918 L221.17197,55.3583918 Z" id="Shape" fill="#898875"></path>
                                    <path d="M226.786224,26.0691654 C226.85531,26.2999276 228.466215,31.8528087 224.604693,36.1925305 C223.033977,37.9580602 220.776717,39.2693598 217.896684,40.0902896 C213.30411,41.3989367 207.336453,40.8293255 199.077658,40.0395617 C182.302986,38.4364939 156.952985,36.0151486 118.145116,47.0751562 C79.3379116,58.1341692 59.0896636,73.5508079 45.690918,83.7520884 C39.093846,88.7751448 34.3272274,92.4046761 29.7356493,93.7129916 C26.8539558,94.5345846 24.2436251,94.6098476 21.9754041,93.9387805 C16.3986828,92.2879687 14.831953,86.7241463 14.768181,86.4874162 L8.19768068,63.5133155 C8.57898361,63.162862 8.97124733,62.8167187 9.35985745,62.4692492 L16.120345,86.1067912 C16.1356237,86.1644817 17.6605032,91.558548 22.7672388,93.0687805 C24.7239073,93.6473437 26.9874783,93.5780488 29.492851,92.8642111 C33.6984761,91.6656402 38.3431974,88.1296075 44.7718717,83.2348628 C58.2858717,72.9453887 78.7088282,57.3957965 117.902318,46.2267073 C157.093815,35.0576181 182.664693,37.4998514 199.582851,39.116513 C207.631398,39.8860518 213.445936,40.4407431 217.653554,39.2418407 C220.158262,38.5283346 222.116592,37.3944169 223.472077,35.8722485 C227.01009,31.8988948 225.453656,26.5127858 225.437049,26.4594055 L218.67623,2.81821646 C219.189726,2.90839939 219.706545,2.99592988 220.215723,3.0927439 L226.786224,26.0691654 L226.786224,26.0691654 Z M14.1470691,58.3553163 L19.7932088,78.0970884 C19.8337306,78.2472828 20.8195381,81.7776791 25.0407741,83.0316197 C27.3036807,83.704013 30.0548411,83.5906212 33.2135438,82.6904497 C37.480948,81.4739748 42.0579116,78.5340777 48.3962423,74.4645732 C61.288134,66.186311 80.768794,53.6774085 117.074279,43.3315701 C153.378104,32.9854002 176.539599,33.3418216 191.86811,33.5778887 C199.401832,33.6949276 204.846359,33.7781479 209.11177,32.5626677 C212.270805,31.6624962 214.667567,30.3100838 216.234297,28.5458803 C219.154851,25.2551982 218.126197,21.738064 218.082021,21.5951639 L212.434221,1.84775534 C211.930024,1.77978659 211.424167,1.71413872 210.917313,1.65081174 L216.733511,21.9847409 C216.742811,22.0165701 217.703376,25.293327 215.103009,28.2219512 C213.75151,29.7444512 211.653347,30.9188186 208.868308,31.7118979 C204.909799,32.8398476 199.592483,32.7572904 192.232805,32.6442302 C176.786383,32.4061738 153.444201,32.0474314 116.832145,42.4808003 C80.2207541,52.9145008 60.5863108,65.521875 47.5931148,73.8641273 C41.403253,77.8384756 36.9315795,80.7100724 32.9710777,81.8393483 C30.1893599,82.6327591 27.7892773,82.7405145 25.8375909,82.1632774 C22.087005,81.0515739 21.1556693,77.7549238 21.1457049,77.7177896 L15.3318318,57.389497 C14.9342537,57.7104421 14.539665,58.0313872 14.1470691,58.3553163 L14.1470691,58.3553163 Z M19.7101725,53.9781288 L24.3944191,70.355282 C24.4356051,70.5104497 25.463263,74.1761204 29.6649024,75.4237614 C31.7673828,76.0490739 34.2837163,75.952923 37.1414954,75.1386242 C41.1322224,74.0010595 45.4540984,71.3728239 51.4340442,67.7346723 C63.5995339,60.3340358 81.9854426,49.152016 115.9689,39.467298 C149.954017,29.7819169 171.480693,29.5899466 185.72807,29.4642873 C192.730359,29.4016235 197.788934,29.3568636 201.780657,28.2189672 C204.638768,27.4046684 206.825614,26.160343 208.280078,24.5217988 C211.189008,21.2480259 210.123485,17.5929649 210.076653,17.4427706 L205.392074,1.06163872 C204.89286,1.01488948 204.394974,0.96581936 203.891109,0.924043445 L208.727146,17.832016 C208.738771,17.8651715 209.731886,21.2961014 207.145802,24.2008537 C205.905903,25.5953735 204.017989,26.6606593 201.537195,27.3675343 C197.828791,28.4245313 192.887132,28.4682965 186.046597,28.5293026 C171.688616,28.6579459 149.990553,28.852237 115.72444,38.6171913 C81.4589922,48.3821456 62.9299287,59.6520274 50.6691133,67.1100229 C44.8266757,70.6632965 40.6057719,73.2308575 36.8967042,74.2871913 C34.4149138,74.9947294 32.2483293,75.0845808 30.4577334,74.554093 C26.7270763,73.4503468 25.755551,70.0117912 25.7449223,69.9736623 L20.9108781,53.0713262 C20.5076536,53.3710518 20.111072,53.6754192 19.7101725,53.9781288 L19.7101725,53.9781288 Z" id="Shape" fill="#D1D1AA"></path>
                                </g>
                                <g id="Group" transform="translate(47.828938, 12.267530)">
                                    <path d="M13.0911789,23.450545 C14.5120969,24.9266273 12.8889024,28.2209566 9.46514754,30.8070846 C6.04205702,33.3935442 2.11476978,34.2923895 0.693851746,32.8169703 C-0.725737705,31.340888 0.895796151,28.0468902 4.31921882,25.4604306 C7.74197719,22.873971 11.6699287,21.9744627 13.0911789,23.450545 L13.0911789,23.450545 Z M84.2264277,3.17795351 C83.8002851,5.18054497 86.9211233,7.12246189 91.1958346,7.51502287 C95.4715424,7.90758384 99.2829109,6.60092607 99.7097177,4.59899771 C100.135196,2.59640625 97.01469,0.654489329 92.7393143,0.261928354 C88.4642708,-0.130632622 84.6532345,1.17536204 84.2264277,3.17795351 L84.2264277,3.17795351 Z" id="Shape" fill="#B7B69E"></path>
                                    <path d="M92.224489,2.67929497 C94.2721654,2.86662348 95.815645,3.56089939 95.6731547,4.22831936 C95.5319929,4.89540777 93.7576721,5.28432165 91.71066,5.09666159 C89.6643122,4.90933308 88.1195039,4.21538872 88.2603336,3.54730564 C88.4038204,2.88054878 90.1788054,2.49163491 92.224489,2.67929497 L92.224489,2.67929497 Z M6.03574626,27.2415434 C4.3966087,28.4799009 3.45099073,29.8833727 3.92529437,30.3750686 C4.39860157,30.8667645 6.11081112,30.2623399 7.74994868,29.024314 C9.38975053,27.7866197 10.3333756,26.3834794 9.86040057,25.8904573 C9.38709337,25.3987614 7.67322309,26.0041806 6.03574626,27.2415434 L6.03574626,27.2415434 Z" id="Shape" fill="#231F20"></path>
                                </g>
                            </g>
                        </g>
                        <g id="arm_3_" transform="translate(163.415538, 162.793445)">
                            <g id="Group" transform="translate(0.000000, 61.337652)">
                                <g transform="translate(7.307199, 63.990091)" id="Shape">
                                    <path d="M15.9396579,69.6958194 L11.8848268,86.5785937 L8.11995866,86.5838986 L4.35442623,86.5892035 L0.252098361,69.7173704 L5.00078118,63.5623857 L4.91143407,0.143563262 L11.0846885,0.13461128 L11.1743678,63.5544284 L11.1740356,63.5537652 L15.9396579,69.6958194 Z" fill="#D1D3D4"></path>
                                    <path d="M11.8848268,86.5785938 L0.252098361,69.7173704 L5.00078118,63.5623857 L8.08774056,63.5580755 L8.0090221,7.98350991 L11.0959815,7.97853659 L11.1740356,63.5537652 L15.9396579,69.6958194 L11.8848268,86.5785938 Z" fill="#C4C4C4"></path>
                                </g>
                                <path d="M26.511846,76.2496646 C26.5081924,73.9612729 23.8692972,72.1095389 20.6169294,72.1128544 L9.42761511,72.1287691 C6.17524733,72.1330793 3.54100214,73.9927706 3.54399145,76.2818255 L3.55927014,87.0590168 C3.56292373,89.347077 6.20181896,91.1994741 9.45485103,91.1951639 L20.6441654,91.1799123 C23.8968653,91.1752706 26.530114,89.3162424 26.5271247,87.0265244 L26.511846,76.2496646 L26.511846,76.2496646 Z" id="Shape" fill="#DD811D"></path>
                                <g id="Shape">
                                    <path d="M30.0704519,94.0677553 C30.0734412,96.3571418 27.9500356,98.21617 25.3274155,98.2194855 L5.37975909,98.2473361 C2.75713899,98.2509832 0.62709052,96.3982546 0.624433357,94.1095313 L0.617458304,88.3063262 C0.613140413,86.0169398 2.7382067,84.1579116 5.36049465,84.1549276 L25.3081511,84.127077 C27.9307712,84.1224352 30.0604875,85.9748323 30.0631447,88.2645503 L30.0704519,94.0677553 L30.0704519,94.0677553 Z M29.6506201,4.34668445 C29.6466344,2.05762957 27.5182466,0.20456936 24.8959587,0.208216463 L4.94797006,0.236067073 C2.32534996,0.239382622 0.201280114,2.09841082 0.204933713,4.3874657 L0.305241625,75.8882698 C0.308563079,78.1773247 2.43761511,80.0300534 5.06056736,80.0264063 L25.0078917,79.9978925 C27.6315082,79.9935823 29.7545816,78.1355488 29.7522566,75.8464939 L29.6506201,4.34668445 L29.6506201,4.34668445 Z" fill="#F7941E"></path>
                                    <path d="M25.3274155,98.2194855 L21.095551,98.2257851 L20.9583749,0.213852896 L24.8956265,0.208216463 C27.5182466,0.20456936 29.6472986,2.05762957 29.6506201,4.34668445 L29.7519244,75.8464939 C29.7539173,77.6753506 28.3994284,79.2270274 26.5181568,79.780061 L26.5251319,84.2620198 C28.5595225,84.7278544 30.0611518,86.341532 30.0644733,88.2642188 L30.0714483,94.0667607 C30.0734412,96.3571418 27.9500356,98.21617 25.3274155,98.2194855 L25.3274155,98.2194855 Z" fill="#DD811D"></path>
                                    <path d="M8.99117605,76.0832241 C6.6322794,76.0875343 4.71978617,74.7444055 4.71746115,73.0843102 L4.62479259,7.18015244 C4.62246757,5.52005716 6.53230364,4.17261814 8.89020385,4.16963415 C11.2491005,4.16532393 13.1619259,5.5087843 13.164583,7.16821646 L13.2569195,73.0720427 C13.2589123,74.7311433 11.3494084,76.0799085 8.99117605,76.0832241 L8.99117605,76.0832241 Z M25.3300727,73.0554649 L25.2384006,7.15163872 C25.2350791,5.491875 23.3215895,4.14808308 20.9640214,4.15206174 C18.6054569,4.15537729 16.6956208,5.50314787 16.698278,7.16224848 L16.7909465,73.0677325 C16.7929394,74.7271646 18.7070934,76.070625 21.0646614,76.0663148 C23.4222295,76.0629992 25.3327299,74.7148971 25.3300727,73.0554649 L25.3300727,73.0554649 Z" fill="#DD811D"></path>
                                    <path d="M25.2374041,7.15064405 L25.3290763,73.0544703 C25.3314013,74.7139024 23.4212331,76.0620046 21.063665,76.0653201 L20.9620285,4.15139863 C23.3209252,4.14808308 25.2350791,5.49121189 25.2374041,7.15064405 L25.2374041,7.15064405 Z" fill="#C6721E"></path>
                                </g>
                            </g>
                            <g id="Group" transform="translate(5.314326, 0.000000)">
                                <path d="M44.5602951,13.0811662 C44.5602951,13.0811662 16.9673158,47.3536623 0.213901639,92.9182546 C47.2609694,110.153803 101.616897,76.9969893 108.451785,70.7126982 C127.436552,53.2493712 113.424001,17.9331402 105.745464,11.569939 C70.4829152,-15.1248704 44.5602951,13.0811662 44.5602951,13.0811662 L44.5602951,13.0811662 Z" id="arm_9_" fill="#986844"></path>
                                <path d="M108.452117,70.7126982 C120.558153,59.5774276 119.246178,41.1844207 114.715715,27.6669284 C99.0437662,45.237016 51.4944947,93.2617454 0.214233785,92.9182546 C47.2609694,110.153803 101.616897,76.9969893 108.452117,70.7126982 L108.452117,70.7126982 Z" id="Shape" fill="#895D3D"></path>
                            </g>
                        </g>
                    </g>
                </g>
            </g>
        </g>
    </g>
</svg>