<?xml version="1.0" encoding="UTF-8" standalone="no"?>
<svg width="352px" height="412px" viewBox="0 0 352 412" version="1.1" xmlns="http://www.w3.org/2000/svg" xmlns:xlink="http://www.w3.org/1999/xlink" xmlns:sketch="http://www.bohemiancoding.com/sketch/ns">
    <!-- Generator: Sketch 3.2.2 (9983) - http://www.bohemiancoding.com/sketch -->
    <title>npm-wombat-coding-stages</title>
    <desc>Created with Sketch.</desc>
    <defs>
        <radialGradient cx="49.9996712%" cy="49.999826%" fx="49.9996712%" fy="49.999826%" r="43.3311688%" id="radialGradient-1">
            <stop stop-color="#1B91CC" offset="0%"></stop>
            <stop stop-color="#FFFFFF" stop-opacity="0" offset="100%"></stop>
        </radialGradient>
    </defs>
    <g id="Page-1" stroke="none" stroke-width="1" fill="none" fill-rule="evenodd" sketch:type="MSPage">
        <g id="npm-wombat-coding-stages" sketch:type="MSLayerGroup">
            <g id="Layer_2" sketch:type="MSShapeGroup">
                <g id="wombat_1_">
                    <g id="body_5_" transform="translate(14.000000, 163.000000)">
                        <path d="M270.032,84.907 C247.328,37.576 200.871,0.291 146.418,0.29 C91.968,0.291 45.511,37.576 22.806,84.905 C0.102,132.237 0.08,188.944 0.08,188.944 C49.539,222.388 146.418,225.048 146.418,225.048 C146.418,225.048 243.316,222.382 292.758,188.944 C292.758,188.945 292.736,132.237 270.032,84.907 L270.032,84.907 Z" id="body_6_" fill="#986844"></path>
                        <g id="body_shadow_2_" transform="translate(0.000000, 48.000000)" fill="#895D3D">
                            <path d="M59.469,165.037 C3.12,114.105 38.153,23.433 38.153,23.433 L54.476,0.722 C54.476,0.722 48.977,2.531 43.772,4.05 C35.491,14.113 28.421,25.201 22.807,36.906 C1.654,81.003 0.19,133.231 0.089,140.162 L0.089,140.201 C0.088,140.287 0.087,140.365 0.086,140.435 L0.086,140.478 C0.086,140.54 0.085,140.596 0.085,140.646 L0.085,140.715 L0.085,140.805 L0.085,140.867 L0.085,140.942 C16.432,152.003 37.966,159.694 59.469,165.037 L59.469,165.037 L59.469,165.037 Z" id="Shape"></path>
                            <path d="M233.392,165.037 C289.74,114.105 254.709,23.433 254.709,23.433 L238.385,0.721 C238.385,0.721 243.885,2.531 249.088,4.049 C257.37,14.112 264.44,25.2 270.055,36.904 C291.207,81.003 292.671,133.231 292.772,140.161 L292.772,140.2 C292.774,140.286 292.775,140.364 292.776,140.434 C292.776,140.45 292.777,140.464 292.777,140.477 C292.778,140.539 292.778,140.595 292.778,140.645 C292.778,140.671 292.779,140.692 292.779,140.715 C292.779,140.747 292.779,140.777 292.78,140.804 L292.78,140.866 L292.78,140.941 C276.429,152.003 254.895,159.694 233.392,165.037 L233.392,165.037 L233.392,165.037 Z" id="Shape"></path>
                        </g>
                    </g>
                    <g id="npm_-_wombat_-_face_2_" transform="translate(12.000000, 0.000000)">
                        <g id="ears_2_" transform="translate(57.000000, 0.000000)">
                            <g id="ear_6_" transform="translate(145.000000, 0.000000)">
                                <path d="M20.131,0.949 L0.353,13.971 L10.624,36.136 L37.022,43.275 C37.021,43.276 33.062,19.452 20.131,0.949 L20.131,0.949 Z" id="Shape" fill="#986844"></path>
                                <path d="M2.684,19.005 L0.353,13.973 L20.131,0.949 L14.558,24.989 L2.684,19.005 Z" id="Shape" fill="#895D3D"></path>
                            </g>
                            <g id="ear_5_">
                                <path d="M17.729,0.949 L37.508,13.971 L27.237,36.136 L0.838,43.275 C0.839,43.276 4.797,19.452 17.729,0.949 L17.729,0.949 Z" id="Shape" fill="#986844"></path>
                                <path d="M35.178,19.005 L37.509,13.973 L17.729,0.949 L23.304,24.989 L35.178,19.005 Z" id="Shape" fill="#895D3D"></path>
                            </g>
                        </g>
                        <path d="M273.636,93.395 C250.637,41.359 203.578,0.366 148.422,0.366 C93.266,0.366 46.207,41.359 23.207,93.395 C0.209,145.431 0.187,207.778 0.187,207.778 C42.125,264.204 148.422,263.622 148.422,263.622 C148.422,263.622 254.716,264.204 296.654,207.778 C296.655,207.777 296.633,145.431 273.636,93.395 L273.636,93.395 Z" id="head_3_" fill="#986844"></path>
                        <g id="nose_4_" transform="translate(104.000000, 183.000000)">
                            <ellipse id="nose_9_" fill="#895D3D" cx="44.422" cy="25.611" rx="43.6" ry="21.092"></ellipse>
                            <ellipse id="nose_5_" fill="#000000" cx="44.422" cy="21.532" rx="43.6" ry="21.091"></ellipse>
                        </g>
                        <g id="face_2_" transform="translate(85.000000, 164.000000)">
                            <g id="eyes_2_">
                                <g id="eye_4_">
                                    <path d="M19.447,9.996 C19.447,15.238 15.197,19.486 9.955,19.486 C4.714,19.486 0.463,15.238 0.463,9.996 C0.463,4.754 4.713,0.505 9.955,0.505 C15.198,0.505 19.447,4.753 19.447,9.996 L19.447,9.996 Z" id="Shape" fill="#B78563"></path>
                                    <circle id="Oval" fill="#000000" cx="11.759" cy="11.73" r="7.105"></circle>
                                    <circle id="Oval" fill="#FFFFFF" cx="12.377" cy="13.836" r="2.297"></circle>
                                </g>
                                <g id="eye_3_" transform="translate(107.000000, 0.000000)">
                                    <path d="M0.859,9.996 C0.859,15.238 5.109,19.486 10.351,19.486 C15.592,19.486 19.843,15.238 19.843,9.996 C19.843,4.754 15.591,0.505 10.351,0.505 C5.109,0.505 0.859,4.753 0.859,9.996 L0.859,9.996 Z" id="Shape" fill="#B78563"></path>
                                    <circle id="Oval" fill="#000000" cx="8.547" cy="11.73" r="7.105"></circle>
                                    <circle id="Oval" fill="#FFFFFF" cx="7.93" cy="13.836" r="2.297"></circle>
                                </g>
                            </g>
                        </g>
                        <path d="M26.389,206.112 C26.389,206.112 40.101,229.857 60.017,248.346 C37.078,240.089 14.751,227.37 0.188,207.776 C0.188,207.776 0.21,145.428 23.208,93.392 C38.211,59.445 63.457,30.203 94.509,13.97 C93.144,14.831 24.294,58.907 26.389,206.112 L26.389,206.112 Z M270.472,206.112 C270.472,206.112 256.761,229.857 236.843,248.346 C259.783,240.09 282.109,227.37 296.673,207.776 C296.673,207.776 296.652,145.429 273.653,93.393 C258.648,59.445 233.404,30.203 202.352,13.971 C203.717,14.831 272.567,58.907 270.472,206.112 L270.472,206.112 Z" id="shadow_9_" fill="#895D3D"></path>
                    </g>
                    <g id="Group" transform="translate(13.000000, 216.000000)">
                        <g id="Shape">
                            <path d="M127.644,48.185 C127.644,48.185 49.229,-26.113 12.061,10.693 C-15.211,37.701 14.044,71.8 30.688,75.575 C70.84,84.684 110.687,64.979 127.644,48.185 L127.644,48.185 Z" fill="#986844"></path>
                            <path d="M127.644,48.185 C127.644,48.185 34.953,73.523 1.961,43.782 L1.961,43.782 C5.978,59.947 20.634,73.296 30.688,75.576 C70.84,84.684 110.687,64.979 127.644,48.185 L127.644,48.185 Z" opacity="0.1" fill="#000000"></path>
                        </g>
                        <g transform="translate(167.000000, 0.000000)" id="Shape">
                            <path d="M97.172,75.574 C113.817,71.8 143.07,37.7 115.799,10.692 C78.631,-26.114 0.217,48.184 0.217,48.184 C17.174,64.979 57.021,84.684 97.172,75.574 L97.172,75.574 Z" fill="#986844"></path>
                            <path d="M97.172,75.575 C107.227,73.294 121.883,59.946 125.9,43.781 L125.9,43.781 C92.908,73.522 0.216,48.184 0.216,48.184 C17.174,64.979 57.021,84.684 97.172,75.575 L97.172,75.575 Z" opacity="0.1" fill="#000000"></path>
                        </g>
                    </g>
                    <ellipse id="Oval" opacity="0.7" fill="url(#radialGradient-1)" cx="161.535" cy="208.611" rx="121.66" ry="86.204"></ellipse>
                    <g id="Laptop_3_" transform="translate(38.000000, 188.000000)">
                        <g id="Base_3_" transform="translate(11.000000, 93.000000)">
                            <path d="M111.532,2.859 L0.438,2.859 L0.438,6.075 C0.438,6.075 0.825,9.536 4.465,9.536 L111.532,9.536 L218.596,9.536 C222.237,9.536 222.854,6.075 222.854,6.075 L222.854,2.859 L111.532,2.859 L111.532,2.859 Z" id="Shape" fill="#AFAFAF"></path>
                            <rect id="Rectangle-path" fill="#333333" x="11.705" y="0.773" width="199.048" height="8.763"></rect>
                            <path d="M210.753,0.773 L11.705,0.773 L11.705,2.859 L0.438,2.859 L0.438,6.075 C0.438,6.075 0.526,7.214 1.393,8.158 C1.562,8.218 1.622,8.284 1.812,8.284 L221.049,8.284 C221.314,8.284 221.656,8.187 221.877,8.075 C222.626,7.15 222.855,6.075 222.855,6.075 L222.855,2.859 L210.753,2.859 L210.753,0.773 L210.753,0.773 Z" id="Shape" opacity="0.1" fill="#000000"></path>
                        </g>
                        <g id="Lid_3_">
                            <path d="M244.669,1.263 C244.735,0.663 243.993,0.3 243.01,0.3 L1.85,0.3 C0.868,0.3 0.125,0.663 0.191,1.263 L0.195,1.239 C0.188,1.294 0.185,1.318 0.191,1.373 L11.073,99.262 C11.14,99.861 11.918,100.451 12.812,100.451 L232.049,100.451 C232.942,100.451 233.72,99.846 233.787,99.246 L244.669,1.401 C244.676,1.345 244.672,1.323 244.664,1.269 L244.669,1.263 L244.669,1.263 Z" id="Shape" fill="#CCCCCC"></path>
                            <g id="Logo_7_" transform="translate(94.000000, 44.000000)">
                                <path d="M0.043,0.921 L59.025,0.921 L58.659,13.515 L29.521,13.515 L29.519,15.539 L16.607,15.539 L16.584,13.515 L0.383,13.515 L0.043,0.921 L0.043,0.921 Z M3.631,11.377 L10.081,11.377 L9.971,5.086 L13.234,5.086 L13.325,11.377 L16.538,11.377 L16.444,3.057 L3.432,3.057 L3.631,11.377 L3.631,11.377 Z M19.682,3.02 L19.809,13.514 L26.219,13.514 L26.215,11.42 L32.718,11.42 L32.752,3.019 L19.682,3.02 L19.682,3.02 Z M26.123,5.043 L29.529,5.043 L29.525,9.316 L26.131,9.316 L26.123,5.043 L26.123,5.043 Z M36.047,3.02 L35.986,11.34 L42.449,11.34 L42.532,5.093 L45.783,5.093 L45.679,11.34 L48.908,11.34 L49.029,5.119 L52.284,5.119 L52.142,11.34 L55.374,11.34 L55.588,3.02 L36.047,3.02 L36.047,3.02 Z" id="Logo_9_" opacity="0.1" fill="#000000"></path>
                                <path d="M0.055,1.328 L59.014,1.328 L58.649,13.92 L29.522,13.92 L29.52,15.944 L16.612,15.944 L16.589,13.92 L0.394,13.92 L0.055,1.328 L0.055,1.328 Z M3.641,11.784 L10.089,11.784 L9.979,5.492 L13.24,5.492 L13.331,11.784 L16.544,11.784 L16.449,3.464 L3.443,3.464 L3.641,11.784 L3.641,11.784 Z M19.686,3.427 L19.812,13.92 L26.221,13.92 L26.215,11.826 L32.715,11.826 L32.75,3.426 L19.686,3.427 L19.686,3.427 Z M26.123,5.45 L29.529,5.45 L29.525,9.722 L26.132,9.722 L26.123,5.45 L26.123,5.45 Z M36.044,3.427 L35.984,11.747 L42.443,11.747 L42.526,5.5 L45.775,5.5 L45.673,11.747 L48.9,11.747 L49.021,5.525 L52.275,5.525 L52.132,11.747 L55.363,11.747 L55.578,3.427 L36.044,3.427 L36.044,3.427 Z" id="Logo_8_" fill="#FFFFFF"></path>
                            </g>
                            <path d="M12.812,100.45 L232.049,100.45 C232.942,100.45 233.72,99.845 233.787,99.245 L244.617,2.113 C244.431,1.68 243.799,1.551 243.01,1.551 L1.85,1.551 C1.062,1.551 0.43,1.621 0.244,2.054 L11.074,99.366 C11.14,99.966 11.918,100.45 12.812,100.45 L12.812,100.45 Z" id="Shape" opacity="0.1" fill="#000000"></path>
                        </g>
                        <path d="M122.532,102.536 L221.753,102.536 L225.535,102.536 C197.464,90.921 161.557,83.948 122.421,83.948 C83.283,83.948 47.376,90.921 19.304,102.536 L22.704,102.536 L122.532,102.536 L122.532,102.536 Z" id="Shape" opacity="0.1" fill="#000000"></path>
                    </g>
                    <path d="M160.421,276.121 C98.125,276.121 44.007,293.783 16.657,319.724 C14.096,338.725 14.091,351.946 14.091,351.946 C63.55,385.391 160.43,388.05 160.43,388.05 C160.43,388.05 257.327,385.385 306.77,351.946 C306.77,351.946 306.762,338.734 304.205,319.745 C276.861,293.793 222.732,276.121 160.421,276.121 L160.421,276.121 Z" id="Belly_1_" fill="#B78563"></path>
                    <g id="legs_2_" transform="translate(0.000000, 289.000000)">
                        <g id="leg_5_">
                            <path d="M99.638,26.121 C99.638,26.12 99.638,26.12 99.637,26.119 C91.241,10.948 73.377,0.473 52.698,0.473 C23.952,0.473 0.649,20.71 0.649,45.672 C0.649,67.606 18.493,87.433 41.795,91.023 C65.098,94.611 110.556,94.236 110.556,94.236 C121.72,86.07 109.187,43.085 99.638,26.121 L99.638,26.121 Z" id="Shape" fill="#986844"></path>
                            <g id="shadow_8_" transform="translate(0.000000, 1.000000)" fill="#895D3D">
                                <path d="M52.696,90.649 C-12.546,52.055 41.694,0.503 41.713,0.485 C18.242,4.864 0.647,22.983 0.647,44.674 C0.647,66.608 18.491,86.435 41.793,90.024 C45.411,90.582 49.564,91.043 53.997,91.425 C53.572,91.169 53.14,90.911 52.696,90.649 L52.696,90.649 Z" id="Shape"></path>
                                <ellipse id="Oval" transform="translate(42.120704, 72.043600) rotate(-30.000728) translate(-42.120704, -72.043600) " cx="42.120704" cy="72.0436" rx="16.3096412" ry="18.2415987"></ellipse>
                            </g>
                            <g id="Group" transform="translate(20.000000, 52.000000)">
                                <ellipse id="Oval" fill="#7A5336" transform="translate(24.210744, 24.796498) rotate(-30.000728) translate(-24.210744, -24.796498) " cx="24.210744" cy="24.796498" rx="16.3096412" ry="18.2405987"></ellipse>
                                <ellipse id="Oval" fill="#AF7146" transform="translate(26.347220, 28.499360) rotate(-30.000728) translate(-26.347220, -28.499360) " cx="26.34722" cy="28.49936" rx="9.88678248" ry="11.0577567"></ellipse>
                            </g>
                        </g>
                        <g id="leg_4_" transform="translate(207.000000, 0.000000)">
                            <path d="M15.594,26.121 C15.595,26.12 15.595,26.12 15.596,26.119 C23.992,10.948 41.856,0.473 62.534,0.473 C91.281,0.473 114.584,20.71 114.584,45.672 C114.584,67.606 96.738,87.433 73.436,91.023 C50.135,94.611 4.676,94.236 4.676,94.236 C-6.488,86.07 6.045,43.085 15.594,26.121 L15.594,26.121 Z" id="Shape" fill="#986844"></path>
                            <g id="shadow_7_" transform="translate(49.000000, 1.000000)" fill="#895D3D">
                                <path d="M13.535,90.649 C78.777,52.055 24.537,0.503 24.517,0.485 C47.989,4.864 65.583,22.983 65.583,44.674 C65.583,66.608 47.738,86.435 24.437,90.024 C20.819,90.582 16.666,91.043 12.233,91.425 C12.66,91.169 13.091,90.911 13.535,90.649 L13.535,90.649 Z" id="Shape"></path>
                                <ellipse id="Oval" transform="translate(24.138304, 72.068836) rotate(210.000728) translate(-24.138304, -72.068836) " cx="24.138304" cy="72.068836" rx="16.3106412" ry="18.2415987"></ellipse>
                            </g>
                            <g id="Group" transform="translate(47.000000, 52.000000)">
                                <ellipse id="Oval" fill="#7A5336" transform="translate(24.023314, 24.841574) rotate(210.000728) translate(-24.023314, -24.841574) " cx="24.023314" cy="24.841574" rx="16.3106412" ry="18.2425986"></ellipse>
                                <ellipse id="Oval" fill="#AF7146" transform="translate(21.924690, 28.527744) rotate(210.000728) translate(-21.924690, -28.527744) " cx="21.92469" cy="28.527744" rx="9.88578251" ry="11.0567567"></ellipse>
                            </g>
                        </g>
                    </g>
                </g>
                <g id="Group" transform="translate(246.000000, 308.000000)">
                    <g transform="translate(3.000000, 70.000000)" id="Shape">
                        <path d="M72,10.767 C72,12.769 71.334,15 69.299,15 L4.164,15 C2.129,15 0,12.769 0,10.767 L0,3.516 C0,1.513 2.129,0 4.164,0 L69.299,0 C71.334,0 72,1.513 72,3.516 L72,10.767 L72,10.767 Z" fill="#CCCCCC"></path>
                        <path d="M69.299,0 L48,0 L48,15 L69.299,15 C71.334,15 72,12.769 72,10.767 L72,3.516 C72,1.513 71.334,0 69.299,0 L69.299,0 Z" opacity="0.1" fill="#000000"></path>
                    </g>
                    <g id="Handle_1_" transform="translate(68.000000, 7.000000)">
                        <path d="M9.398,60.705 C5.808,60.705 3.291,60.237 3.041,60.189 L4.873,50.697 C4.968,50.715 15.908,52.671 22.646,47.07 C26.416,43.936 28.328,38.758 28.328,31.676 C28.328,21.753 26.197,9.924 16.041,9.924 C10.185,9.924 7.863,12.57 7.844,12.596 L0.07,6.85 C0.569,6.175 5.255,0.256 16.042,0.256 C22.644,0.256 37.997,3.318 37.997,31.676 C37.997,41.802 34.892,49.499 28.767,54.554 C22.59,59.653 14.787,60.704 9.398,60.705 L9.398,60.705 Z" id="Shape" fill="#DDDDDD"></path>
                        <path d="M9.477,54.478 C13.87,54.478 20.101,53.647 24.838,49.71 C29.428,45.895 31.755,39.826 31.755,31.679 C31.755,25.134 30.876,19.768 29.142,15.729 C25.868,8.1 20.211,6.499 16.041,6.499 C13.068,6.499 10.432,7.069 8.208,8.193 C8.097,8.249 7.82,8.306 7.714,8.364 L7,7.96 L7,12.221 L7.676,12.597 C7.696,12.571 10.101,9.925 15.958,9.925 C26.113,9.925 28.286,21.754 28.286,31.677 C28.286,38.759 26.227,43.937 22.458,47.071 C17.678,51.044 11,51.214 7,50.971 L7,56.045 L7.477,54.438 C8.038,54.467 8.82,54.478 9.477,54.478 L9.477,54.478 Z" id="Shape" opacity="0.1" fill="#000000"></path>
                    </g>
                    <g>
                        <path d="M77,78.166 C77,80.27 75.977,82 74.011,82 L3.93,82 C1.964,82 0,80.27 0,78.166 L0,3.574 C0,1.471 1.964,0 3.93,0 L74.011,0 C75.977,0 77,1.472 77,3.574 L77,78.166 L77,78.166 Z" id="Shape" fill="#DDDDDD"></path>
                        <path d="M13.393,33.471 L64.798,33.471 L64.798,50.742 L39.096,50.742 L39.096,53.518 L27.684,53.518 L27.684,50.742 L13.393,50.742 L13.393,33.471 L13.393,33.471 Z M16.303,47.812 L21.983,47.812 L21.983,39.182 L24.837,39.182 L24.837,47.812 L27.666,47.812 L27.666,36.399 L16.303,36.399 L16.303,47.812 L16.303,47.812 Z M30.494,36.35 L30.528,50.743 L36.182,50.743 L36.182,47.872 L41.907,47.872 L41.907,36.35 L30.494,36.35 L30.494,36.35 Z M36.114,39.125 L39.095,39.125 L39.095,44.985 L36.114,44.985 L36.114,39.125 L36.114,39.125 Z M44.785,36.35 L44.785,47.761 L50.473,47.761 L50.473,39.194 L53.317,39.194 L53.317,47.761 L56.159,47.761 L56.159,39.228 L59.006,39.228 L59.006,47.761 L61.852,47.761 L61.852,36.35 L44.785,36.35 L44.785,36.35 Z" id="Rectangle_1_1_" fill="#CD3632"></path>
                        <path d="M74.173,0 L53,0 L53,82 L74.173,82 C76.174,82 77,80.351 77,78.35 L77,3.2 C77,1.197 76.174,0 74.173,0 L74.173,0 Z" id="Shape" opacity="0.1" fill="#000000"></path>
                    </g>
                </g>
                <g id="Group" transform="translate(156.000000, 327.000000)">
                    <g transform="translate(32.000000, 69.000000)" id="Shape">
                        <path d="M0,12.372 C0,14.376 0.688,16 2.725,16 L67.913,16 C69.95,16 73.001,14.376 73.001,12.372 L73.001,5.114 C73.001,3.11 69.95,1 67.913,1 L2.725,1 C0.688,1 0,3.11 0,5.114 L0,12.372 L0,12.372 Z" fill="#B52C2C"></path>
                        <path d="M2.725,1 L23,1 L23,16 L2.725,16 C0.688,16 0,14.376 0,12.372 L0,5.114 C0,3.11 0.688,1 2.725,1 L2.725,1 Z" opacity="0.1" fill="#000000"></path>
                    </g>
                    <g id="Handle_3_" transform="translate(0.000000, 7.000000)">
                        <path d="M29.62,61.299 C33.214,61.299 35.733,60.832 35.984,60.784 L34.149,51.283 C34.055,51.301 23.106,53.259 16.36,47.653 C12.588,44.517 10.675,39.335 10.675,32.247 C10.675,22.316 12.808,10.477 22.971,10.477 C28.833,10.477 31.157,13.124 31.176,13.151 L38.956,7.4 C38.457,6.725 33.768,0.801 22.971,0.801 C16.365,0.801 0.999,3.865 0.999,32.246 C0.999,42.382 4.107,50.084 10.237,55.143 C16.418,60.246 24.229,61.299 29.62,61.299 L29.62,61.299 Z" id="Shape" fill="#CD3632"></path>
                        <path d="M29.543,55.066 C25.147,55.066 18.91,54.235 14.168,50.295 C9.575,46.477 7.246,40.403 7.246,32.25 C7.246,25.699 8.125,20.328 9.861,16.287 C13.138,8.651 18.799,7.048 22.971,7.048 C25.948,7.048 28.585,7.619 30.812,8.744 C30.923,8.801 31.189,8.857 31.294,8.915 L31.999,8.511 L31.999,12.776 L31.333,13.152 C31.313,13.126 28.911,10.478 23.05,10.478 C12.887,10.478 10.714,22.317 10.714,32.248 C10.714,39.336 12.765,44.519 16.537,47.654 C21.323,51.63 28,51.8 32,51.558 L32,56.636 L31.535,55.028 C30.973,55.057 30.198,55.066 29.543,55.066 L29.543,55.066 Z" id="Shape" opacity="0.1" fill="#000000"></path>
                    </g>
                    <g transform="translate(30.000000, 0.000000)">
                        <path d="M72.881,0 L3.213,0 C1.214,0 0,1.809 0,3.786 L0,79.447 C0,81.425 1.214,83 3.213,83 L72.881,83 C74.88,83 76,81.425 76,79.447 L76,3.786 C76,1.808 74.88,0 72.881,0 Z" id="Shape" fill="#BE2B27"></path>
                        <path d="M12.231,34.037 L63.678,34.037 L63.678,51.322 L37.953,51.322 L37.953,54.101 L26.532,54.101 L26.532,51.322 L12.23,51.322 L12.23,34.037 L12.231,34.037 Z M15.144,48.39 L20.828,48.39 L20.828,39.754 L23.684,39.754 L23.684,48.39 L26.516,48.39 L26.516,36.968 L15.144,36.968 L15.144,48.39 L15.144,48.39 Z M29.347,36.918 L29.381,51.322 L35.04,51.322 L35.04,48.449 L40.769,48.449 L40.769,36.918 L29.347,36.918 L29.347,36.918 Z M34.972,39.696 L37.954,39.696 L37.954,45.56 L34.972,45.56 L34.972,39.696 L34.972,39.696 Z M43.647,36.918 L43.647,48.34 L49.341,48.34 L49.341,39.765 L52.188,39.765 L52.188,48.34 L55.032,48.34 L55.032,39.799 L57.882,39.799 L57.882,48.34 L60.73,48.34 L60.73,36.918 L43.647,36.918 L43.647,36.918 Z" id="Rectangle_1_3_" fill="#DDDDDD"></path>
                        <path d="M2.849,0 L24,0 L24,82 L2.849,82 C0.846,82 0,80.956 0,78.952 L0,3.741 C0,1.736 0.846,0 2.849,0 L2.849,0 Z" id="Shape" opacity="0.1" fill="#000000"></path>
                    </g>
                </g>
            </g>
        </g>
    </g>
</svg>