<?xml version="1.0" encoding="UTF-8" standalone="no"?>
<svg width="601px" height="372px" viewBox="0 0 601 372" version="1.1" xmlns="http://www.w3.org/2000/svg" xmlns:xlink="http://www.w3.org/1999/xlink" xmlns:sketch="http://www.bohemiancoding.com/sketch/ns">
    <!-- Generator: Sketch 3.3.3 (12072) - http://www.bohemiancoding.com/sketch -->
    <title>Wombat</title>
    <desc>Created with Sketch.</desc>
    <defs></defs>
    <g id="UI-Design" stroke="none" stroke-width="1" fill="none" fill-rule="evenodd" sketch:type="MSPage">
        <g id="UI---Organization---Marketing" sketch:type="MSArtboardGroup" transform="translate(-686.000000, -104.000000)">
            <g id="Hero" sketch:type="MSLayerGroup" transform="translate(0.000000, 55.000000)">
                <g id="Wombat" transform="translate(686.000000, 49.000000)" sketch:type="MSShapeGroup">
                    <g id="Layer_5" transform="translate(85.315457, 0.000000)">
                        <g id="Group" transform="translate(0.000000, 188.366412)">
                            <g>
                                <rect id="Rectangle-path" fill="#DA9A5B" x="1.45069474e-14" y="-1.47951365e-13" width="186.746057" height="139.145038"></rect>
                                <path d="M187.694006,70.0458015 L117.545741,140.091603 L187.694006,140.091603 L187.694006,70.0458015 Z" id="Shape" opacity="0.05" fill="#000000"></path>
                                <rect id="Rectangle-path" fill="#E5B486" x="72.044164" y="-8.00258926e-14" width="44.5536278" height="35.0229008"></rect>
                                <g id="Page_1_11_" transform="translate(53.085174, 63.419847)" fill="#191009">
                                    <path d="M4.17065261e-13,-3.85683851e-14 L80.5757098,-3.85683851e-14 L80.5757098,27.7279203 L40.2869553,27.7279203 L40.2869553,32.1832061 L22.3998998,32.1832061 L22.3998998,27.7279203 L4.17065261e-13,27.7279203 L4.17065261e-13,-3.85683851e-14 L4.17065261e-13,-3.85683851e-14 Z M4.73974763,22.7157483 L13.7401133,22.7157483 L13.7401133,9.11715328 L18.2654639,9.11715328 L18.2654639,22.7175573 L22.7507886,22.7175573 L22.7507886,4.73282443 L4.74035409,4.73282443 L4.73974763,22.7157483 L4.73974763,22.7157483 Z M26.5425868,4.73282443 L26.596926,27.4503817 L35.520032,27.4503817 L35.520032,22.9166526 L44.5536278,22.9166526 L44.5536278,4.73282443 L26.5425868,4.73282443 L26.5425868,4.73282443 Z M36.022082,9.46564885 L40.7618297,9.46564885 L40.7618297,18.9312977 L36.022082,18.9312977 L36.022082,9.46564885 L36.022082,9.46564885 Z M49.2933754,4.73282443 L49.2933754,22.7175573 L58.1397143,22.7175573 L58.1397143,9.21393393 L62.5646688,9.21393393 L62.5646688,22.7175573 L66.9836733,22.7175573 L66.9836733,9.26759631 L71.4104127,9.26759631 L71.4104127,22.7175573 L75.8359621,22.7175573 L75.8359621,4.73282443 L49.2933754,4.73282443 L49.2933754,4.73282443 Z" id="Rectangle_1_11_"></path>
                                </g>
                            </g>
                            <g transform="translate(139.348580, 0.000000)">
                                <rect id="Rectangle-path" fill="#BA7D4A" x="6.12675263e-13" y="-1.47951365e-13" width="187.694006" height="139.145038"></rect>
                                <rect id="Rectangle-path" fill="#DA9A5B" x="6.12675263e-13" y="-1.47951365e-13" width="140.29653" height="139.145038"></rect>
                                <path d="M187.694006,70.0458015 L117.545741,140.091603 L187.694006,140.091603 L187.694006,70.0458015 Z" id="Shape" opacity="0.05" fill="#000000"></path>
                                <g id="Page_1_10_" transform="translate(26.542587, 63.419847)" fill="#191009">
                                    <path d="M0.947949527,-3.85683851e-14 L78.6798107,-3.85683851e-14 L78.6798107,27.7279203 L39.8138801,27.7279203 L39.8138801,32.1832061 L22.5568559,32.1832061 L22.5568559,27.7279203 L0.947949527,27.7279203 L0.947949527,-3.85683851e-14 L0.947949527,-3.85683851e-14 Z M5.68829984,22.7157483 L14.2150241,22.7157483 L14.2150241,9.11715328 L18.5012881,9.11715328 L18.5012881,22.7175573 L22.7507886,22.7175573 L22.7507886,4.73282443 L5.68769716,4.73282443 L5.68769716,22.7157483 L5.68829984,22.7157483 L5.68829984,22.7157483 Z M26.5425868,4.73282443 L26.5929841,27.4503817 L35.046534,27.4503817 L35.046534,22.9166526 L43.6056782,22.9166526 L43.6056782,4.73282443 L26.5425868,4.73282443 L26.5425868,4.73282443 Z M35.0741325,9.46564885 L39.8138801,9.46564885 L39.8138801,18.9312977 L35.0741325,18.9312977 L35.0741325,9.46564885 L35.0741325,9.46564885 Z M48.3454259,4.73282443 L48.3454259,22.7175573 L56.8763698,22.7175573 L56.8763698,9.21393393 L61.1421426,9.21393393 L61.1421426,22.7175573 L65.4031009,22.7175573 L65.4031009,9.26759631 L69.6742902,9.26759631 L69.6742902,22.7175573 L73.9400631,22.7175573 L73.9400631,4.73282443 L48.3454259,4.73282443 L48.3454259,4.73282443 Z" id="Rectangle_1_10_"></path>
                                </g>
                                <rect id="Rectangle-path" fill="#E5B486" x="47.3974763" y="-8.00258926e-14" width="36.9700315" height="35.0229008"></rect>
                            </g>
                            <g transform="translate(321.354890, 3.786260)">
                                <rect id="Rectangle-path" fill="#DA9A5B" x="-7.01395566e-13" y="9.31554067e-15" width="187.694006" height="139.145038"></rect>
                                <rect id="Rectangle-path" fill="#BA7D4A" x="93.8470032" y="9.31554067e-15" width="93.8470032" height="139.145038"></rect>
                                <g id="Page_1_2_" transform="translate(121.337539, 63.419847)" fill="#191009">
                                    <path d="M8.22965009e-13,1.92314358e-14 L53.0851735,1.92314358e-14 L53.0851735,27.726777 L26.541371,27.726777 L26.541371,32.1832061 L14.7581062,32.1832061 L14.7581062,27.726777 L8.22965009e-13,27.726777 L8.22965009e-13,1.92314358e-14 L8.22965009e-13,1.92314358e-14 Z M2.84384858,22.7175573 L8.52918815,22.7175573 L8.52918815,9.1192711 L11.3860035,9.1192711 L11.3860035,22.7175573 L14.2192429,22.7175573 L14.2192429,4.73282443 L2.84384858,4.73282443 L2.84384858,22.7175573 L2.84384858,22.7175573 Z M18.011041,4.73282443 L18.0433108,27.4503817 L23.6805497,27.4503817 L23.6805497,22.9190681 L29.3864353,22.9190681 L29.3864353,4.73282443 L18.011041,4.73282443 L18.011041,4.73282443 Z M23.6987382,9.46564885 L26.5425868,9.46564885 L26.5425868,18.9312977 L23.6987382,18.9312977 L23.6987382,9.46564885 L23.6987382,9.46564885 Z M32.2302839,4.73282443 L32.2302839,22.7175573 L38.2339642,22.7175573 L38.2339642,9.21574278 L41.2348727,9.21574278 L41.2348727,22.7175573 L44.2332963,22.7175573 L44.2332963,9.2700081 L47.2397953,9.2700081 L47.2397953,22.7175573 L50.2413249,22.7175573 L50.2413249,4.73282443 L32.2302839,4.73282443 L32.2302839,4.73282443 Z" id="Rectangle_1_2_"></path>
                                </g>
                                <path d="M187.694006,70.0458015 L117.545741,140.091603 L187.694006,140.091603 L187.694006,70.0458015 Z" id="Shape" opacity="0.05" fill="#000000"></path>
                                <rect id="Rectangle-path" fill="#D6A67F" x="134.608833" y="7.72410126e-14" width="25.5946372" height="35.0229008"></rect>
                            </g>
                        </g>
                        <g id="Group" transform="translate(14.219243, 0.000000)">
                            <g transform="translate(0.000000, 61.526718)">
                                <rect id="Rectangle-path" fill="#BA7D4A" x="1.35493192e-13" y="1.01017583e-13" width="169.682965" height="126.839695"></rect>
                                <rect id="Rectangle-path" fill="#DA9A5B" x="1.35366187e-13" y="1.01017583e-13" width="127.025237" height="126.839695"></rect>
                                <path d="M169.682965,63.4198473 L106.170347,126.839695 L169.682965,126.839695 L169.682965,63.4198473 Z" id="Shape" opacity="0.05" fill="#000000"></path>
                                <g id="Page_1_4_" transform="translate(23.698738, 57.740458)" fill="#191009">
                                    <path d="M0.948553441,4.14842037e-14 L71.0962145,4.14842037e-14 L71.0962145,25.2807347 L36.0214781,25.2807347 L36.0214781,29.3435115 L20.4495489,29.3435115 L20.4495489,25.2807347 L0.947949527,25.2807347 L0.948553441,4.14842037e-14 L0.948553441,4.14842037e-14 Z M4.73974763,21.7709924 L12.3195041,21.7709924 L12.3195041,8.88764552 L16.1285812,8.88764552 L16.1285812,21.7709924 L19.9069401,21.7709924 L19.9069401,4.73282443 L4.73974763,4.73282443 L4.73974763,21.7709924 L4.73974763,21.7709924 Z M24.6466877,3.78748031 L24.6919734,24.610687 L32.2058767,24.610687 L32.2058767,20.4558118 L39.8138801,20.4558118 L39.8138801,3.78625954 L24.6466877,3.78748031 L24.6466877,3.78748031 Z M32.2302839,8.51908397 L36.022082,8.51908397 L36.022082,17.0381679 L32.2302839,17.0381679 L32.2302839,8.51908397 L32.2302839,8.51908397 Z M43.6056782,3.78625954 L43.6056782,20.8244275 L51.5046432,20.8244275 L51.5046432,8.03052645 L55.4538184,8.03052645 L55.4538184,20.8244275 L59.3986924,20.8244275 L59.3986924,8.08280816 L63.3540122,8.08280816 L63.3540122,20.8244275 L67.3044164,20.8244275 L67.3044164,3.78625954 L43.6056782,3.78625954 L43.6056782,3.78625954 Z" id="Rectangle_1_4_"></path>
                                </g>
                                <rect id="Rectangle-path" fill="#E5B486" x="42.6577287" y="1.01017583e-13" width="33.1782334" height="32.1832061"></rect>
                            </g>
                            <g transform="translate(163.047319, 0.000000)">
                                <rect id="Rectangle-path" fill="#DA9A5B" x="8.28496708e-13" y="-5.30703556e-15" width="96.6908517" height="72.8854962"></rect>
                                <rect id="Rectangle-path" fill="#BA7D4A" x="70.148265" y="-5.30703556e-15" width="27.4905363" height="72.8854962"></rect>
                                <g id="Page_1_7_" transform="translate(79.627760, 33.129771)" fill="#191009">
                                    <path d="M0.947949527,0 L14.2192429,0 L14.2192429,13.8634347 L7.58359621,13.8634347 L7.58359621,16.0916031 L4.63839623,16.0916031 L4.63839623,13.8634347 L0.948577367,13.8634347 L0.948577367,0 L0.947949527,0 L0.947949527,0 Z M1.89589905,11.3587786 L3.3172149,11.3587786 L3.3172149,4.20125748 L4.03274035,4.20125748 L4.03274035,11.3587786 L4.73974763,11.3587786 L4.73974763,1.89312977 L1.89589905,1.89312977 L1.89589905,11.3587786 L1.89589905,11.3587786 Z M5.68769716,1.89371191 L5.69557654,13.2519084 L7.1047726,13.2519084 L7.1047726,10.9856248 L8.53154574,10.9856248 L8.53154574,1.89312977 L5.68769716,1.89371191 L5.68769716,1.89371191 Z M6.63564669,4.73282443 L7.58359621,4.73282443 L7.58359621,9.46564885 L6.63564669,9.46564885 L6.63564669,4.73282443 L6.63564669,4.73282443 Z M9.47949527,1.89312977 L9.47949527,11.3587786 L11.0600863,11.3587786 L11.0600863,4.25250546 L11.8486939,4.25250546 L11.8486939,11.3587786 L12.639327,11.3587786 L12.639327,4.28126342 L13.4306353,4.28126342 L13.4306353,11.3587786 L14.2192429,11.3587786 L14.2192429,1.89312977 L9.47949527,1.89312977 L9.47949527,1.89312977 Z" id="Rectangle_1_7_"></path>
                                </g>
                                <path d="M96.6908517,36.9160305 L60.6687697,73.8320611 L96.6908517,73.8320611 L96.6908517,36.9160305 Z" id="Shape" opacity="0.05" fill="#000000"></path>
                                <rect id="Rectangle-path" fill="#D6A67F" x="83.4195584" y="-5.30703556e-15" width="6.63564669" height="17.9847328"></rect>
                            </g>
                            <g transform="translate(129.869085, 71.938931)">
                                <rect id="Rectangle-path" fill="#BA7D4A" x="4.3563948e-13" y="3.41171268e-14" width="158.307571" height="118.320611"></rect>
                                <rect id="Rectangle-path" fill="#DA9A5B" x="4.35229991e-13" y="3.41171268e-14" width="78.6798107" height="118.320611"></rect>
                                <g id="Page_1_5_" transform="translate(11.375394, 53.954198)" fill="#191009">
                                    <path d="M-4.80592977e-13,4.38949131e-14 L44.5536278,4.38949131e-14 L44.5536278,23.64816 L22.2762112,23.64816 L22.2762112,27.4503817 L12.3889315,27.4503817 L12.3889315,23.64816 L-4.80592977e-13,23.64816 L-4.80592977e-13,4.38949131e-14 L-4.80592977e-13,4.38949131e-14 Z M2.84384858,19.8778626 L7.5821456,19.8778626 L7.5821456,7.70957961 L9.96289905,7.70957961 L9.96289905,19.8778626 L12.3233438,19.8778626 L12.3233438,3.78625954 L2.84384858,3.78625954 L2.84384858,19.8778626 L2.84384858,19.8778626 Z M15.1671924,3.78625954 L15.1926097,23.6641221 L19.8919208,23.6641221 L19.8919208,19.6980373 L24.6466877,19.6980373 L24.6466877,3.78688373 L15.1671924,3.78688373 L15.1671924,3.78625954 Z M19.9069401,7.57251908 L22.7507886,7.57251908 L22.7507886,15.1450382 L19.9069401,15.1450382 L19.9069401,7.57251908 L19.9069401,7.57251908 Z M27.4905363,3.78625954 L27.4905363,19.8778626 L32.5460611,19.8778626 L32.5460611,7.79593494 L35.0732057,7.79593494 L35.0732057,19.8778626 L37.5984966,19.8778626 L37.5984966,7.8450122 L40.131202,7.8450122 L40.131202,19.8778626 L42.6577287,19.8778626 L42.6577287,3.78625954 L27.4905363,3.78625954 L27.4905363,3.78625954 Z" id="Rectangle_1_5_"></path>
                                </g>
                                <path d="M158.307571,59.6335878 L98.5867508,119.267176 L158.307571,119.267176 L158.307571,59.6335878 Z" id="Shape" opacity="0.05" fill="#000000"></path>
                                <rect id="Rectangle-path" fill="#E5B486" x="22.7507886" y="3.3845735e-14" width="21.8028391" height="29.3435115"></rect>
                            </g>
                            <g transform="translate(254.998423, 52.061069)">
                                <rect id="Rectangle-path" fill="#DA9A5B" x="6.61176314e-13" y="7.35628691e-15" width="186.746057" height="140.091603"></rect>
                                <rect id="Rectangle-path" fill="#BA7D4A" x="47.3974763" y="7.35628691e-15" width="140.29653" height="140.091603"></rect>
                                <path d="M187.694006,70.9923664 L117.545741,141.038168 L187.694006,141.038168 L187.694006,70.9923664 Z" id="Shape" opacity="0.05" fill="#000000"></path>
                                <g id="Page_1_6_" transform="translate(83.419558, 63.419847)" fill="#191009">
                                    <path d="M-5.19953735e-13,3.45220036e-14 L76.7839117,3.45220036e-14 L76.7839117,27.7273061 L38.3916561,27.7273061 L38.3916561,32.1832061 L21.3452165,32.1832061 L21.3452165,27.7273061 L-5.19953735e-13,27.7273061 L-5.19953735e-13,3.45220036e-14 L-5.19953735e-13,3.45220036e-14 Z M4.740953,22.7175573 L13.2670746,22.7175573 L13.2670746,9.11760926 L17.5533386,9.11760926 L17.5533386,22.7175573 L21.8028391,22.7175573 L21.8028391,4.73282443 L4.73974763,4.73282443 L4.740953,22.7175573 L4.740953,22.7175573 Z M25.5946372,4.73282443 L25.6456381,27.4503817 L34.0991825,27.4503817 L34.0991825,22.9183437 L42.6577287,22.9183437 L42.6577287,4.73282443 L25.5946372,4.73282443 L25.5946372,4.73282443 Z M34.126183,9.46564885 L38.8659306,9.46564885 L38.8659306,18.9312977 L34.126183,18.9312977 L34.126183,9.46564885 L34.126183,9.46564885 Z M46.4495268,4.73282443 L46.4495268,22.7175573 L54.9808719,22.7175573 L54.9808719,9.21468714 L59.2465445,9.21468714 L59.2465445,22.7175573 L63.5061989,22.7175573 L63.5061989,9.26955725 L67.7784915,9.26955725 L67.7784915,22.7175573 L72.044164,22.7175573 L72.044164,4.73282443 L46.4495268,4.73282443 L46.4495268,4.73282443 Z" id="Rectangle_1_6_"></path>
                                </g>
                                <rect id="Rectangle-path" fill="#D6A67F" x="103.326498" y="7.35628691e-15" width="36.9700315" height="35.0229008"></rect>
                            </g>
                        </g>
                        <path d="M481.235469,192.119753 L455.53824,192.119753 L414.654998,192.119753 L325.743005,192.119753 L325.743005,188.366412 L279.021536,188.366412 L222.661574,188.366412 L186.890693,188.366412 L185.866295,188.366412 L138.85171,188.366412 L115.637834,188.366412 L71.2516554,188.366412 L-3.12638804e-13,188.366412 L-3.12638804e-13,328.492137 L116.806683,328.492137 L138.85171,328.492137 L186.890693,328.492137 L255.658995,328.492137 L279.021536,328.492137 L321.20905,328.492137 L321.20905,332.244275 L414.654998,332.244275 L438.016936,332.244275 L508.100946,332.244275 L508.100946,262.181713 L508.100946,192.119753 L481.235469,192.119753 Z" id="Shape" opacity="0.1" fill="#000000"></path>
                        <path d="M482.052722,192.403031 L456.673561,192.403031 L456.673561,122.834713 L456.673561,53.1619648 L409.688672,53.1619648 L372.885668,53.1619648 L316.514156,53.1619648 L274.262914,53.1619648 L274.262914,37.0310073 L274.262914,0.946564885 L267.138062,0.946564885 L260.47315,0.946564885 L247.141521,0.946564885 L177.338444,0.946564885 L177.338444,61.564443 L142.246368,61.564443 L91.1250312,61.564443 L57.7505049,61.564443 L15.3963177,61.564443 L15.3963177,188.201792 L0.947949527,188.201792 L0.947949527,328.043036 L117.541464,328.043036 L139.59148,328.043036 L187.641334,328.043036 L256.425199,328.043036 L279.793026,328.043036 L321.822125,328.043036 L321.822125,332.244275 L415.457183,332.244275 L438.824409,332.244275 L509.048896,332.244275 L509.048896,262.071579 L509.048896,192.403031 L482.052722,192.403031 Z" id="Shape" opacity="0.1" fill="#000000"></path>
                    </g>
                    <g id="Layer_3" transform="translate(194.329653, 68.152672)">
                        <g id="npm-wombat_1_">
                            <g id="body__x2B__legs_1_" transform="translate(9.479495, 140.091603)">
                                <g id="body_3_" transform="translate(9.479495, 0.000000)">
                                    <g id="body_4_">
                                        <path d="M178.363755,55.9483735 C163.362634,24.6531768 132.667459,-4.26325641e-14 96.6890488,-4.26325641e-14 C60.7118401,-4.26325641e-14 30.0172665,24.6531768 15.0149436,55.9477721 C0.0138225945,87.2435703 -1.27897692e-13,124.738747 -1.27897692e-13,124.738747 C32.6790174,146.853354 96.6902508,148.610687 96.6902508,148.610687 C96.6902508,148.610687 160.712903,146.846739 193.381703,124.738747 C193.379901,124.739349 193.365477,87.2435703 178.363755,55.9483735 L178.363755,55.9483735 Z" id="body_5_" fill="#986844"></path>
                                        <g id="body_shadow_1_" transform="translate(0.000000, 32.183206)" fill="#895D3D">
                                            <path d="M38.8659306,108.854962 C1.99049946,75.1148165 24.914577,15.0467044 24.914577,15.0467044 L35.5968448,-3.55271368e-14 C35.5968448,-3.55271368e-14 31.9979932,1.19850607 28.592001,2.20479322 C23.1722947,8.87159624 18.5448597,16.2168899 14.8710072,23.970724 C1.02739296,53.1837823 0.0708341615,87.783791 0.00357147033,92.3747501 L0.00357147033,92.3994554 C0.00297622527,92.4579044 0.00238098022,92.5091226 0.00178573516,92.5567254 L0.00178573516,92.5856486 C0.00119049011,92.6254181 0.000595245055,92.6639824 0.000595245055,92.6971235 C0.000595245055,92.714598 -2.48689958e-14,92.728457 -2.48689958e-14,92.7429187 L-2.48689958e-14,92.8025728 L-2.48689958e-14,92.8435474 L-2.48689958e-14,92.8935604 C10.7013156,100.220174 24.7949328,105.315482 38.8659306,108.854962 L38.8659306,108.854962 L38.8659306,108.854962 Z" id="Shape"></path>
                                            <path d="M154.515773,108.854962 C191.388976,75.1150033 168.466058,15.0472237 168.466058,15.0472237 L157.785204,-3.55271368e-14 C157.785204,-3.55271368e-14 161.384375,1.19849944 164.789511,2.20417845 C170.208207,8.87094456 174.835288,16.2168001 178.509454,23.9705913 C192.350818,53.1834879 193.309089,87.783305 193.376347,92.3742388 C193.376347,92.3844824 193.376942,92.3911106 193.376942,92.400149 C193.378132,92.4585977 193.378132,92.5092131 193.379323,92.5562131 L193.379323,92.5857387 C193.380513,92.6261105 193.380513,92.664072 193.380513,92.697213 C193.380513,92.7140848 193.381108,92.7297514 193.381108,92.7436104 C193.381108,92.7647001 193.381703,92.7845847 193.381703,92.8038668 L193.381703,92.843636 L193.381703,92.8936488 C182.678826,100.220222 168.587479,105.315502 154.515773,108.854962 L154.515773,108.854962 L154.515773,108.854962 Z" id="Shape"></path>
                                        </g>
                                    </g>
                                    <g id="belly_1_" transform="translate(0.000000, 74.778626)">
                                        <path d="M96.6851424,7.10542736e-15 C55.5237319,7.10542736e-15 19.7663716,11.6505572 1.69537654,28.7622005 C0.00360590543,41.2959392 -6.11066753e-13,50.0167575 -6.11066753e-13,50.0167575 C32.679119,72.0788976 96.6905512,73.8320611 96.6905512,73.8320611 C96.6905512,73.8320611 160.713402,72.0728977 193.381703,50.0167575 C193.381703,50.0167575 193.376896,41.3031391 191.688731,28.7772002 C173.620741,11.657157 137.855568,7.10542736e-15 96.6851424,7.10542736e-15 L96.6851424,7.10542736e-15 Z" id="Shape" fill="#B78563"></path>
                                        <g id="belly_shadow_1_" transform="translate(0.000000, 17.038168)" fill="#A57859">
                                            <path d="M38.8659306,50.1679389 C38.8659306,50.1679389 19.4326674,34.894911 17.9737281,0.946564885 C17.9737281,0.946564885 6.13004745,7.53172088 1.67816751,12.6627358 C0.00297864308,25.3172186 -4.33431069e-13,34.1190458 -4.33431069e-13,34.1190458 C10.7004774,41.4837038 24.7918421,46.6068388 38.8659306,50.1679389 C38.8653349,50.1679389 38.8653349,50.1679389 38.8659306,50.1679389 L38.8659306,50.1679389 Z" id="Shape"></path>
                                            <path d="M154.515773,50.1679389 C154.515773,50.1679389 173.94844,34.894911 175.407424,0.946564885 C175.407424,0.946564885 187.251468,7.53172088 191.70408,12.6627358 C193.37932,25.3172186 193.381703,34.1190458 193.381703,34.1190458 C182.683281,41.48431 168.590889,46.6068388 154.515773,50.1679389 L154.515773,50.1679389 L154.515773,50.1679389 Z" id="Shape"></path>
                                        </g>
                                    </g>
                                </g>
                                <g id="legs_1_" transform="translate(0.000000, 83.297710)">
                                    <g id="leg_3_">
                                        <path d="M65.6791802,17.7746955 C65.6791802,17.7740987 65.6785767,17.7740987 65.6785767,17.7735019 C60.107696,7.81818585 48.2556188,0.946564885 34.5345114,0.946564885 C15.4615927,0.946564885 -1.77635684e-13,14.2248952 -1.77635684e-13,30.6018407 C-1.77635684e-13,44.9938105 11.8394038,58.0035782 27.300393,60.3579767 C42.7613822,62.7123752 72.9229545,62.4658945 72.9229545,62.4658945 C80.3308799,57.11016 72.0146915,28.9057189 65.6791802,17.7746955 L65.6791802,17.7746955 Z" id="Shape" fill="#986844"></path>
                                        <g id="shadow_6_" transform="translate(0.000000, 0.946565)" fill="#895D3D">
                                            <path d="M34.2184179,59.1259994 C-8.6743507,33.8169605 26.9846098,0.0125256838 26.9977654,3.55271368e-15 C11.5656016,2.87076744 3.90798505e-13,14.7522732 3.90798505e-13,28.9772748 C3.90798505e-13,43.3591457 11.7312431,56.361402 27.050986,58.7144412 C29.4297649,59.0800719 32.1595602,59.3830741 35.0741325,59.6335878 C34.7942761,59.4677716 34.5108319,59.2983766 34.2184179,59.1259994 L34.2184179,59.1259994 Z" id="Shape"></path>
                                            <path d="M33.8778255,57.3667063 C38.934932,54.3699588 40.3870457,47.2343467 37.1212124,41.4288705 C33.855379,35.6233944 27.1083031,33.3464699 22.0511966,36.3432174 C16.9940901,39.3399648 15.5419763,46.475577 18.8078097,52.2810531 C22.0736431,58.0865293 28.820719,60.3634538 33.8778255,57.3667063 L33.8778255,57.3667063 Z" id="Oval"></path>
                                        </g>
                                        <g id="Group" transform="translate(13.271293, 35.022901)">
                                            <path d="M21.5540405,26.1298318 C26.611304,23.1328343 28.0637425,15.9971239 24.7981527,10.1917765 C21.532563,4.38642921 14.7855573,2.10981187 9.72829383,5.1068094 C4.67103036,8.10380693 3.21859186,15.2395173 6.48418164,21.0448647 C9.74977142,26.850212 16.4967771,29.1268293 21.5540405,26.1298318 L21.5540405,26.1298318 Z" id="Oval" fill="#7A5336"></path>
                                            <path d="M20.662458,24.7650399 C23.7407118,22.9669679 24.6246382,18.6855913 22.636763,15.2023178 C20.6488877,11.7190442 16.5419787,10.3529185 13.4637249,12.1509906 C10.3854712,13.9490627 9.50154473,18.2304392 11.48942,21.7137128 C13.4772952,25.1969863 17.5842043,26.563112 20.662458,24.7650399 L20.662458,24.7650399 Z" id="Oval" fill="#AF7146"></path>
                                        </g>
                                    </g>
                                    <g id="leg_1_" transform="translate(136.504732, 0.000000)">
                                        <path d="M10.1571465,17.7746955 C10.1571465,17.7740987 10.1571465,17.7740987 10.1583535,17.7735019 C15.728651,7.81818585 27.5807713,0.946564885 41.3013251,0.946564885 C60.3743132,0.946564885 75.8359621,14.2248952 75.8359621,30.6018407 C75.8359621,44.9938105 63.9959118,58.0035782 48.5366768,60.3579767 C33.0762348,62.7123752 2.9127424,62.4658945 2.9127424,62.4658945 C-4.49460652,57.11016 3.82100866,28.9057189 10.1571465,17.7746955 L10.1571465,17.7746955 Z" id="Shape" fill="#986844"></path>
                                        <g id="shadow_5_" transform="translate(32.230284, 0.946565)" fill="#895D3D">
                                            <path d="M8.43935457,59.1259994 C51.3343171,33.8169605 15.6729347,0.0125256838 15.6597784,3.55271368e-15 C31.0915355,2.87076744 42.6577287,14.7522732 42.6577287,28.9772748 C42.6577287,43.3591457 30.9258856,56.361402 15.6071531,58.7144412 C13.2276545,59.0800719 10.4983176,59.3830741 7.58359621,59.6335878 C7.86346687,59.4677716 8.14752363,59.2983766 8.43935457,59.1259994 L8.43935457,59.1259994 Z" id="Shape"></path>
                                            <path d="M21.5540405,36.3434506 C16.4967771,33.3464531 9.74977142,35.6230704 6.48418164,41.4284178 C3.21859186,47.2337651 4.67103036,54.3694755 9.72829383,57.366473 C14.7855573,60.3634706 21.532563,58.0868532 24.7981527,52.2815059 C28.0637425,46.4761586 26.611304,39.3404482 21.5540405,36.3434506 L21.5540405,36.3434506 Z" id="Oval"></path>
                                        </g>
                                        <g id="Group" transform="translate(31.282334, 35.022901)">
                                            <path d="M21.5538323,5.10691953 C16.4964948,2.10980395 9.74952227,4.38627629 6.48404748,10.1915628 C3.21857268,15.9968493 4.67116447,23.1326061 9.72850204,26.1297217 C14.7858396,29.1268373 21.5328121,26.8503649 24.7982869,21.0450784 C28.0637617,15.2397919 26.6111699,8.1040351 21.5538323,5.10691953 L21.5538323,5.10691953 Z" id="Oval" fill="#7A5336"></path>
                                            <path d="M17.8184004,12.1510996 C14.7400722,10.3529107 10.6331965,11.7188929 8.64543668,15.2021062 C6.65767689,18.6853196 7.54175724,22.966742 10.6200854,24.764931 C13.6984136,26.5631199 17.8052893,25.1971377 19.7930491,21.7139243 C21.7808089,18.230711 20.8967286,13.9492885 17.8184004,12.1510996 L17.8184004,12.1510996 Z" id="Oval" fill="#AF7146"></path>
                                        </g>
                                    </g>
                                </g>
                            </g>
                            <g id="arms_1_" transform="translate(49.293375, 210.137405)">
                                <g id="Group">
                                    <rect id="Rectangle-path" fill="#DA9A5B" x="2.56184926e-13" y="-2.35401181e-14" width="120.38959" height="89.9236641"></rect>
                                    <path d="M121.337539,45.4351145 L75.8359621,90.870229 L121.337539,90.870229 L121.337539,45.4351145 Z" id="Shape" opacity="0.05" fill="#000000"></path>
                                    <path d="M73.7861322,7.10542736e-15 L97.6388013,7.10542736e-15 L94.0886931,39.7557252 L71.0962145,31.6341133 L73.7861322,7.10542736e-15 Z" id="Shape" fill="#E5B486"></path>
                                    <g id="Page_1_1_" transform="translate(35.074132, 40.702290)" fill="#191009">
                                        <path d="M4.20172659e-13,3.38389198e-14 L52.137224,3.38389198e-14 L52.137224,17.1250905 L26.067709,17.1250905 L26.067709,19.8778626 L14.4936318,19.8778626 L14.4936318,17.1250905 L0.000601970004,17.1250905 L4.20172659e-13,3.38389198e-14 L4.20172659e-13,3.38389198e-14 Z M2.84384858,14.1984733 L8.52768363,14.1984733 L8.52768363,5.60982588 L11.3862379,5.60982588 L11.3862379,14.1984733 L14.2192429,14.1984733 L14.2192429,2.83969466 L2.84384858,2.83969466 L2.84384858,14.1984733 L2.84384858,14.1984733 Z M17.0630915,2.84086552 L17.0973993,17.0381679 L22.7327475,17.0381679 L22.7327475,14.2058497 L28.4384858,14.2058497 L28.4384858,2.83969466 L17.0642745,2.83969466 L17.0630915,2.84086552 L17.0630915,2.84086552 Z M22.7507886,5.67938931 L25.5946372,5.67938931 L25.5946372,11.3587786 L22.7507886,11.3587786 L22.7507886,5.67938931 L22.7507886,5.67938931 Z M32.2302839,2.83969466 L32.2302839,14.1972919 L37.9177833,14.1972919 L37.9177833,5.67023377 L40.7618297,5.67023377 L40.7618297,14.1984733 L43.6029092,14.1984733 L43.6029092,5.70626526 L46.449329,5.70626526 L46.449329,14.1984733 L49.2933754,14.1984733 L49.2933754,2.84028534 L32.2302839,2.83969466 L32.2302839,2.83969466 Z" id="Rectangle_1_1_"></path>
                                    </g>
                                </g>
                            </g>
                            <g id="arm_7_" transform="translate(147.880126, 190.259542)">
                                <path d="M63.2099889,13.9624487 C75.5500842,37.8947772 71.6119105,43.3237556 63.6229401,54.3695851 C60.7480248,58.3451172 33.9395007,82.351145 1.41398004e-12,82.351145 C1.41398004e-12,58.9637078 15.019434,24.7998663 15.019434,24.7998663 C15.019434,24.7998663 44.2251337,-22.8618158 63.2099889,13.9624487 L63.2099889,13.9624487 Z" id="arm_8_" fill="#986844"></path>
                                <path d="M1.48503432e-12,83.2977099 C33.9395715,83.2977099 60.7481516,59.1860185 63.6236783,55.1929879 C71.6114544,44.0985397 75.5502418,38.6462722 63.2101208,14.6079976 C62.9697366,14.1395856 62.7257195,13.6936234 62.4823079,13.2519084 C62.519849,13.6171727 66.8491849,57.6570051 1.48503432e-12,83.2977099 L1.48503432e-12,83.2977099 Z" id="Shape" opacity="0.1" fill="#000000"></path>
                            </g>
                            <g id="npm_-_wombat_-_face_1_" transform="translate(39.813880, 0.000000)">
                                <path d="M44.5342052,53.8793173 C15.9374168,82.5417997 -7.10542736e-14,123.891348 -7.10542736e-14,123.891348 C4.68644834,140.595975 16.2956895,154.716856 29.4518259,166.033726 C29.4494174,166.029525 29.4470088,166.025323 29.4446003,166.021122 C54.1780645,187.302672 84.3934027,198.675958 84.3934027,198.675958 C84.3934027,198.675958 114.471453,210.369137 147.130272,211.050934 C147.129068,211.050934 147.128465,211.051534 147.127261,211.052135 C150.064496,211.114553 153.004138,211.086945 155.938362,210.953706 C170.328884,210.298317 185.015658,207.166612 197.305316,199.37396 C197.954422,197.67727 198.541507,195.956572 199.117754,194.234075 C202.682418,183.572594 205.508858,172.644636 207.62056,161.606847 C210.468678,146.723146 212.057121,131.44213 211.126214,116.287151 C210.237457,101.820571 206.985303,87.4632219 201.213198,74.1447733 C201.934561,69.7707094 203.734355,56.0681498 200.527362,43.2052329 L184.038386,46.808074 C176.427348,38.2045879 167.168256,31.0625241 156.722949,26.2083214 C142.877966,19.7738621 127.399981,17.6096367 112.264614,19.3585421 L112.270635,19.3531405 L112.270635,19.35134 L112.271237,19.35134 L112.270635,19.35134 L102.434693,5.67938931 C91.408925,13.1059353 83.5449888,24.5002278 81.1508839,28.224304 C67.7412469,34.3508743 55.2167544,43.1728235 44.5342052,53.8793173 C15.9374168,82.5417997 55.2167544,43.1734237 44.5342052,53.8793173 L44.5342052,53.8793173 Z" id="Shape" opacity="0.1" fill="#000000"></path>
                                <g id="ears_1_" transform="translate(80.575710, 0.000000)">
                                    <g id="ear_3_">
                                        <path d="M-6.03961325e-13,23.5881032 L19.0226979,25.5572519 L31.2823344,13.5661068 L21.6336449,-1.95399252e-14 C8.55469091,8.91029374 -6.03961325e-13,23.5881032 -6.03961325e-13,23.5881032 L-6.03961325e-13,23.5881032 Z" id="Shape" fill="#986844"></path>
                                        <path d="M19.9069401,17.0381679 L22.3495899,5.32907052e-14 L32.2302839,13.4160704 L29.3799209,16.1089418 L19.9069401,17.0381679 Z" id="Shape" fill="#895D3D"></path>
                                    </g>
                                    <g id="ear_2_" transform="translate(104.274448, 36.916031)">
                                        <path d="M16.6212581,32.1832061 L1.15355566,20.7946324 L5.32907052e-14,3.5814138 L16.200654,1.03028697e-13 C20.0115286,15.4729247 16.6224412,32.1838027 16.6212581,32.1832061 L16.6212581,32.1832061 Z" id="Shape" fill="#986844"></path>
                                        <path d="M6.4874863,14.1984733 L16.115142,1.32338585e-13 L-7.79820652e-13,3.52204733 L0.259522992,7.36380082 L6.4874863,14.1984733 Z" id="Shape" fill="#895D3D"></path>
                                    </g>
                                </g>
                                <path d="M0,118.29447 C13.498525,166.356972 84.3930312,193.006794 84.3930312,193.006794 C84.3930312,193.006794 154.99125,220.431334 197.318747,193.70356 C197.318747,193.70356 213.230325,152.382065 211.216536,112.045757 C209.200941,71.7106486 188.351848,32.5741942 151.642364,18.5453211 C114.933482,4.51644807 73.1401453,19.7127949 44.5406159,48.3479818 C15.9416888,76.9837683 -0.00120441892,118.29507 0,118.29447 L0,118.29447 Z" id="head_1_" fill="#986844"></path>
                                <g id="nose_1_" transform="translate(91.003155, 176.061069) rotate(-45.000000) translate(-91.003155, -176.061069) translate(56.876972, 142.931298)">
                                    <path d="M21.2196427,32.7856091 C25.9963378,50.0054473 35.4461825,64.8047093 42.3264615,65.840686 C49.2067406,66.8766626 50.9120323,53.7570506 46.1353372,36.5372124 C41.3586422,19.3173742 31.9087975,4.5181122 25.0285184,3.48213553 C18.1482393,2.44615887 16.4429476,15.5657708 21.2196427,32.7856091 L21.2196427,32.7856091 L21.2196427,32.7856091 Z" id="nose_3_" fill="#895D3D"></path>
                                    <path d="M22.168084,29.9435428 C26.9445507,47.1633356 36.3943385,61.9631631 43.2747758,62.9998827 C50.1552132,64.0366022 51.8608184,50.9176293 47.0843517,33.6978365 C42.307885,16.4780437 32.8580971,1.67821625 25.9776598,0.64149668 C19.0972225,-0.395222894 17.3916173,12.72375 22.168084,29.9435428 L22.168084,29.9435428 L22.168084,29.9435428 Z" id="nose_2_" fill="#000000"></path>
                                </g>
                                <g id="face_1_" transform="translate(55.929022, 135.358779)">
                                    <g id="eyes_1_">
                                        <g id="eye_2_" transform="translate(72.044164, 27.450382)">
                                            <path d="M9.01184811,0.473753808 C12.4330559,1.87796543 14.1410031,5.982584 12.8297861,9.64250398 C11.5156172,13.302424 7.67878735,15.1292256 4.25876034,13.7256456 C0.838733329,12.3201707 -0.870394618,8.21618377 0.442003111,4.55689546 C1.75499121,0.895712135 5.5918211,-0.931721158 9.01184811,0.473753808 L9.01184811,0.473753808 Z" id="Shape" fill="#B78563"></path>
                                            <ellipse id="Oval" fill="#000000" cx="5.2137224" cy="8.04580153" rx="5.2137224" ry="5.20610687"></ellipse>
                                            <ellipse id="Oval" fill="#FFFFFF" cx="5.2137224" cy="6.6259542" rx="1.42192429" ry="1.89312977"></ellipse>
                                        </g>
                                        <g id="eye_1_">
                                            <path d="M9.95998732,0.441574739 C6.54059719,-0.86908605 2.70381948,0.836600707 1.39025888,4.25210136 C0.0772886307,7.66760201 1.78639333,11.4981747 5.2069642,12.8100147 C8.62694469,14.1212651 12.4637224,12.4155783 13.7766926,9.00007767 C15.0902533,5.58457702 13.3805582,1.75341471 9.95998732,0.441574739 L9.95998732,0.441574739 Z" id="Shape" fill="#B78563"></path>
                                            <ellipse id="Oval" fill="#000000" cx="8.05757098" cy="8.99236641" rx="5.2137224" ry="5.20610687"></ellipse>
                                            <ellipse id="Oval" fill="#FFFFFF" cx="9.0055205" cy="7.09923664" rx="1.42192429" ry="1.41984733"></ellipse>
                                        </g>
                                    </g>
                                </g>
                                <path d="M183.963143,41.648855 C200.536735,60.3686622 209.897929,86.2610861 211.216084,112.666184 C213.235603,153.142126 197.273969,194.609718 197.273969,194.609718 C182.528396,203.92389 164.362991,206.684024 146.932177,206.319977 C164.967095,199.107045 180.206221,186.816116 180.206221,186.816116 C219.329199,89.4550667 184.654842,42.5688995 183.963143,41.648855 L183.963143,41.648855 Z M111.858044,14.1984733 C87.1388166,17.0607746 62.9589199,30.0323786 44.3709054,48.7345884 C15.8787621,77.4044265 0,118.76312 0,118.76312 C4.66980068,135.471684 16.2357163,149.596493 29.3434341,160.916031 C20.843125,143.576536 17.7949162,124.332241 17.7949162,124.332241 C53.8670867,26.1321328 110.733788,14.4223907 111.858044,14.1984733 L111.858044,14.1984733 Z" id="shadow_4_" fill="#895D3D"></path>
                            </g>
                            <g id="arm_3_" transform="translate(8.531546, 121.160305)">
                                <path d="M25.5380922,3.07952586 C5.56181954,13.0085651 2.20296137,34.2881952 6.24243499,45.682433 C7.69568941,49.7815943 30.9752476,63.5673126 63.8581165,80.4580153 C71.6956514,64.7536567 68.5955347,34.3391165 68.5955347,34.3391165 C68.5955347,34.3391165 56.2727499,-12.1986703 25.5380922,3.07952586 L25.5380922,3.07952586 Z" id="arm_4_" opacity="0.1" fill="#000000"></path>
                                <g id="Group" transform="translate(25.594637, 33.129771)">
                                    <g transform="translate(0.000000, 3.786260)">
                                        <path d="M50.4014649,50.939839 C48.4770478,50.3427625 43.3420902,40.8198171 43.3420902,40.8198171 L40.1118825,39.8176249 C39.6190076,38.5187112 36.1378926,28.4162504 36.4603174,27.3438139 C36.7827422,26.2707718 35.6283304,25.8184228 35.6283304,25.8184228 C35.6283304,25.8184228 34.9453381,25.6058733 33.7039132,25.2207408 C32.4612964,24.8362139 31.8379021,23.2841785 31.6877153,22.2020531 C31.5369326,21.1199278 27.6672391,19.5273202 25.8059958,19.8458417 C23.9453484,20.1649688 22.719419,21.5092991 21.4505791,20.0814023 C20.1829312,18.6529 16.0659063,17.168081 14.4513984,16.6666822 C12.8362946,16.1652833 7.95105237,14.9941415 5.42290824,15.7274676 C2.8923802,16.4607937 2.42394048,16.3148552 1.36667323,15.9872503 C-0.154265905,15.5149181 -0.330079794,15.7365509 0.466148531,13.0860402 C0.712883955,12.2655142 2.53419665,6.20815552 3.21659293,3.9367217 C3.89958519,1.66407677 5.18332457,0.353657476 8.38969312,1.21112223 C11.5942737,2.06677032 29.2650595,9.03972697 29.2650595,9.03972697 C30.315771,9.45755937 31.0273703,8.97493267 31.0273703,8.97493267 C31.0273703,8.97493267 33.509028,6.81855415 34.1294425,6.18332779 C34.7510488,5.54870699 35.553237,5.74006212 35.553237,5.74006212 L39.5278228,6.97357603 C39.5278228,6.97357603 64.3086415,12.4671638 66.1716727,13.045468 C68.034704,13.6231667 67.0382266,16.7756819 67.0382266,16.7756819 L57.1372227,49.7154084 C55.7825618,50.4675067 52.325882,51.5381265 50.4014649,50.939839 L50.4014649,50.939839 Z" id="Shape" fill="#D38A09"></path>
                                        <path d="M53.9510642,9.80951303 C52.6042415,10.8603764 51.5308759,12.2906345 50.9895425,14.0123643 C49.5528076,18.5795549 52.1553006,23.4147308 56.8580185,24.8094583 C60.4712486,25.880797 64.3120496,24.6215676 66.3564669,21.8507812 L65.5416764,24.4463233 C63.179776,26.3559438 59.7283878,27.0340367 56.4630249,26.0650745 C51.0478304,24.4583676 48.0980903,18.9047505 49.7524747,13.6462182 C50.2677646,12.0069918 51.1811485,10.5899823 52.357448,9.46564885 C52.8975413,9.58308058 53.411591,9.6920813 53.9510642,9.80951303 L53.9510642,9.80951303 Z M68.2018383,16.0916031 C68.3257248,15.1552961 68.28871,13.8516687 67.3044164,13.2519084 C67.7689909,14.145656 68.076441,15.1029153 68.2018383,16.0916031 L68.2018383,16.0916031 Z" id="Shape" opacity="0.1" fill="#000000"></path>
                                        <path d="M43.2146965,7.57251908 C42.573363,8.72437729 42.0143915,9.95021909 41.6122711,11.2590668 C38.5037112,21.3671489 44.179422,32.0478519 54.3571851,35.1341101 C56.9842906,35.9310878 59.7034478,36.1590534 62.1034523,35.8125937 L66.0840805,22.8672713 C64.4422909,24.4780683 62.2560643,25.436246 59.9293377,25.4506818 C60.88074,21.0952743 64.7790061,19.6577072 67.2522885,19.068846 L67.9735616,16.7218221 C67.9735616,16.7218221 69.0018754,13.5387236 67.1087606,12.9642982 C67.060918,12.9510654 67.1063382,12.9655012 67.0294267,12.9438474 C63.5684058,13.4707549 61.457274,12.6304698 60.1715789,11.3456818 C54.683605,10.1060057 47.3424862,8.48257729 43.2146965,7.57251908 L43.2146965,7.57251908 Z M52.390102,12.3053435 C56.183976,16.5510134 55.0675983,20.4172958 53.6983761,22.7175573 C51.5332067,20.5381732 50.605708,17.27927 51.5688101,14.1544091 C51.7721719,13.4931736 52.051568,12.8756217 52.390102,12.3053435 L52.390102,12.3053435 Z" id="Shape" opacity="0.1" fill="#000000"></path>
                                        <path d="M39.8138801,6.9535545 C39.6509432,6.91731228 39.585291,6.96201102 39.585291,6.96201102 L35.6049753,5.7315876 C35.6049753,5.7315876 34.793275,5.53769171 34.1719661,6.17193059 C33.5494636,6.80496139 31.0642283,8.92754749 31.0642283,8.92754749 C31.0642283,8.92754749 30.3307138,9.41742152 29.2784876,9.00003193 C29.2784876,9.00003193 11.612666,2.06327076 8.40346554,1.20916241 C5.19307145,0.355054054 3.90569089,1.66823054 3.22171401,3.93518149 C2.53773714,6.20092437 0.714395634,12.2437107 0.467304511,13.0615769 C-0.330071674,15.7054469 -0.155794844,15.4892017 1.36912743,15.9597465 C2.42553151,16.2871346 2.92926317,16.4478084 5.46105192,15.7157156 C7.99343752,14.9848308 12.8672204,16.1566626 14.4846526,16.6574093 C16.1020849,17.1569479 20.210124,18.6525436 21.4801962,20.0768629 C22.7502685,21.5011822 23.9630442,20.192838 25.8269708,19.8757185 C27.6908973,19.556787 31.5846714,21.0777522 31.7356715,22.1559583 C31.885478,23.2341644 32.5073837,24.7823113 33.7517919,25.1658748 C34.9956032,25.5500423 35.6789833,25.7620593 35.6789833,25.7620593 C35.6789833,25.7620593 36.6751067,25.9638077 36.5121698,26.5038168 C36.5133634,26.5001926 36.555739,26.3594519 36.555739,26.3594519 L39.8138801,6.9535545 L39.8138801,6.9535545 Z" id="Shape" fill="#EF9F00"></path>
                                        <path d="M3.30169039,3.98202765 C3.17963893,4.39135849 3.0218651,4.9240409 2.84384858,5.52668391 C13.7141682,8.77187356 29.9136712,15.1450382 29.9136712,15.1450382 L36.9700315,6.23856364 L35.6054367,5.80836736 C35.6054367,5.80836736 34.7963249,5.61137305 34.1759462,6.25574694 C33.5555676,6.89889345 31.0758392,9.05539807 31.0758392,9.05539807 C31.0758392,9.05539807 30.3441258,9.55310019 29.2944833,9.1290408 C29.2944833,9.1290408 11.6726343,2.08143152 8.47131384,1.21367468 C5.26820729,0.345304153 3.98339243,1.67946495 3.30169039,3.98202765 L3.30169039,3.98202765 Z" id="Shape" fill="#E29000"></path>
                                        <path d="M66.3564669,40.3922068 L66.3654603,35.0229008 L67.3044164,50.4780222 L67.295423,55.8473282 L66.3564669,40.3922068 L66.3564669,40.3922068 Z" id="glass" opacity="0.2" fill="#FFFFFF"></path>
                                        <path id="Rectangle-path" fill="#E5B486" d="M52.1375187,26.5038168 L52.137224,29.0673016 L52.2486393,47.3282443 L52.248934,44.7647595 L52.1375187,26.5038168 L52.1375187,26.5038168 Z"></path>
                                        <path d="M56.2390864,37.5336388 C56.2390864,37.5336388 55.8179366,36.928446 54.5941955,36.8972876 C53.3698527,36.8655299 43.0173879,35.9697248 43.0173879,35.9697248 C43.0173879,35.9697248 41.7256612,35.9175943 41.3039097,37.2921609 C41.1516941,37.7876999 40.9206633,38.5426929 40.7618297,39.0604024 L43.7826773,39.9789772 C43.7826773,39.9789772 49.0951818,49.4403575 51.0384875,50.0317687 C52.0384176,50.3355635 53.4426515,50.0731135 54.7355815,49.8082668 C55.140487,49.3786398 55.39799,48.895684 55.39799,48.895684 L56.5856326,45.024847 L56.6235361,44.899614 L57.7955359,41.0779114 C57.7955359,41.0779114 57.9730205,39.9028787 57.4556078,39.1311081 C56.9369919,38.3599367 56.2390864,37.5336388 56.2390864,37.5336388 L56.2390864,37.5336388 Z" id="Shape" opacity="0.1" fill="#000000"></path>
                                        <g transform="translate(37.917981, 36.916031)" id="Shape">
                                            <path d="M9.18633635,1.25737558 C5.43767377,0.112973536 1.4564189,2.22803605 0.310977443,5.97192593 C-0.834464017,9.71521255 1.28363607,13.6913612 5.03350692,14.8345567 C8.78277364,15.9783554 12.7634244,13.8626897 13.9082617,10.1187998 C15.0537032,6.3767197 12.9356031,2.39996783 9.18633635,1.25737558 L9.18633635,1.25737558 Z M8.57338906,1.23725985 C12.0763332,2.3053365 14.0501339,6.00843929 12.9805691,9.50710554 C11.9098106,13.0051758 8.20154816,14.9762301 4.69741031,13.9081535 C1.1938693,12.8394808 -0.778737685,9.13637804 0.290827132,5.63711577 C1.36098881,2.13844952 5.06865434,0.168587181 8.57338906,1.23725985 L8.57338906,1.23725985 Z" fill="#E5B486"></path>
                                            <path d="M8.57290306,1.2374092 C5.06991209,0.168201688 1.36100327,2.1391433 0.290827289,5.63760936 C-0.778751826,9.13667141 1.19388153,12.8395623 4.69806623,13.9081738 C8.20225093,14.9761894 11.9093692,13.0052478 12.9807389,9.5067817 C14.0497211,6.00831564 12.0770878,2.30542474 8.57290306,1.2374092 L8.57290306,1.2374092 Z M7.68502005,2.12058637 C10.4338747,2.9583946 11.9871439,5.87499264 11.1474916,8.61913502 C10.3084229,11.36386 7.38977053,12.9159609 4.64033236,12.0781527 C1.89031068,11.2403445 0.33645799,8.32432907 1.17552677,5.57902144 C2.01459555,2.83429644 4.93499837,1.28219552 7.68502005,2.12058637 L7.68502005,2.12058637 Z" fill="#9B9B9B"></path>
                                        </g>
                                        <g transform="translate(39.813880, 36.916031)">
                                            <path d="M14.9412302,0.904925224 C13.7057098,0.872865707 3.35807435,-4.17443857e-14 3.35807435,-4.17443857e-14 C3.35807435,-4.17443857e-14 2.26287115,0.0120979308 1.83766746,1.3985208 C1.4865707,2.54419485 1.11968067,3.73886551 1.00244593,4.12176502 C1.00244593,4.12176502 0.98908239,4.16652737 0.963570169,4.2481884 C0.845120571,4.63834667 0.466689291,5.8735454 0.114377665,7.02163904 C-0.311433455,8.40745701 0.588783492,9.02566127 0.588783492,9.02566127 C0.588783492,9.02566127 9.61950234,14.0469075 10.6636811,14.7086643 C11.7060376,15.371026 12.345058,15.0824903 12.345058,15.0824903 C12.345058,15.0824903 13.3357826,14.7643147 14.2062352,14.4080307 C15.0760805,14.0535613 15.5395525,12.9538594 15.5395525,12.9538594 L16.7392343,9.04622776 L16.7768952,8.91980438 L17.9601764,5.06177425 C17.9601764,5.06177425 18.1910012,3.89190434 17.6692156,3.11279759 C17.1480373,2.33369085 16.5102318,1.51889521 16.5102318,1.51889521 C16.5102318,1.51889521 16.1761432,0.936379844 14.9412302,0.904925224 L14.9412302,0.904925224 Z" id="Shape" fill="#EF9F00"></path>
                                            <g transform="translate(9.479495, 5.679389)">
                                                <ellipse id="shadow" opacity="0.1" fill="#000000" cx="1.89589905" cy="1.89312977" rx="1.89589905" ry="1.89312977"></ellipse>
                                                <g>
                                                    <ellipse id="Oval" fill="#ADADAD" cx="2.84384858" cy="1.89312977" rx="1.89589905" ry="1.89312977"></ellipse>
                                                    <path d="M2.78539418,1.00846056 C3.53560393,1.23726894 3.95823805,2.03297568 3.72982414,2.78155472 C3.50072636,3.53013376 2.70469705,3.952917 1.95517117,3.72410863 C1.20564529,3.49598326 0.780959552,2.69959351 1.01005733,1.95169748 C1.23915512,1.20243542 2.0358683,0.780335197 2.78539418,1.00846056 L2.78539418,1.00846056 Z" id="Shape" fill="#919191"></path>
                                                    <ellipse id="Oval" fill="#BABABA" cx="2.84384858" cy="1.89312977" rx="0.947949527" ry="0.946564885"></ellipse>
                                                </g>
                                            </g>
                                        </g>
                                    </g>
                                    <g transform="translate(40.761830, 0.000000)">
                                        <g transform="translate(11.375394, 8.519084)">
                                            <path d="M18.3681099,7.49973647 C6.2034662,11.3890795 6.96546381,0.946564885 6.96546381,0.946564885 C3.5762891,3.18715184 0.947949527,7.07472642 0.947949527,7.07472642 C7.85358917,14.0481923 1.17521197,20.172817 1.17521197,20.172817 C2.88810819,24.5985804 8.63244256,23.5575711 8.63244256,23.5575711 C8.05818349,13.3732457 18.8516965,14.0293291 18.8516965,14.0293291 C21.4811985,11.0165325 18.3681099,7.49973647 18.3681099,7.49973647 L18.3681099,7.49973647 Z" id="Shape" fill="#9B9B9B"></path>
                                            <g transform="translate(0.947950, 0.946565)" id="Shape" fill="#000000" opacity="0.1">
                                                <path d="M0.803592513,17.0381679 C0.519500375,17.4307108 0.239105748,17.7613916 -5.64881475e-13,18.0206499 C0.918831623,18.6499557 1.97323867,19.1493512 3.13610606,19.4732834 C4.52883541,19.8607648 5.94313358,19.9603065 7.30505034,19.8129623 C7.36729179,19.3585574 7.46281084,18.9356459 7.58359621,18.538604 C6.27036336,18.7410616 4.88749403,18.6786372 3.52865853,18.2990291 C2.51800537,18.0189627 1.60410377,17.5853659 0.803592513,17.0381679 L0.803592513,17.0381679 Z"></path>
                                                <path d="M3.71169858,0.256958902 C2.65085287,1.10492328 1.70921039,2.02399954 0.947949527,2.83969466 C2.33108546,1.92480145 3.97217972,1.37741923 5.68769716,1.29256303 C5.58173873,0.809121752 5.52560599,0.365718251 5.49911638,4.57411886e-14 C4.89237823,0.0370498882 4.29383924,0.123101241 3.71169858,0.256958902 L3.71169858,0.256958902 Z"></path>
                                                <path d="M15.8236378,13.008511 C16.3322133,10.8173185 16.1577021,8.59285142 15.4374972,6.6259542 C15.0131303,6.7294751 14.6059375,6.81142916 14.2192429,6.87058396 C14.969918,8.75121376 15.1422132,10.92885 14.5605092,13.0467152 C14.5416731,13.1163453 14.520067,13.184743 14.4995688,13.2519084 C14.97158,13.137296 15.4197691,13.0590391 15.8236378,13.008511 L15.8236378,13.008511 Z"></path>
                                            </g>
                                            <g transform="translate(4.739748, 8.519084)">
                                                <ellipse id="Oval" fill="#ADADAD" cx="3.31782334" cy="3.3129771" rx="3.31782334" ry="3.3129771"></ellipse>
                                                <path d="M3.39764299,1.97634167 C4.39730251,2.28153138 4.96263471,3.34100669 4.6565943,4.34074737 C4.35109748,5.33777283 3.28946885,5.90199367 2.28980932,5.59626091 C1.29069339,5.2910712 0.725361193,4.23159589 1.03085801,3.2329413 C1.33635483,2.23374367 2.39743988,1.67060891 3.39764299,1.97634167 L3.39764299,1.97634167 Z" id="Shape" fill="#919191"></path>
                                                <path d="M3.73281392,1.95507206 C4.48250668,2.18403521 4.9065297,2.97864258 4.67770781,3.72765772 C4.44838412,4.47617184 3.65202373,4.89902721 2.90283277,4.67106609 C2.15314001,4.44210293 1.72911699,3.64699455 1.95793888,2.89848042 C2.18726257,2.1499663 2.98362295,1.72660991 3.73281392,1.95507206 L3.73281392,1.95507206 Z" id="Shape" fill="#BABABA"></path>
                                            </g>
                                        </g>
                                        <g id="tape_1_" transform="translate(0.000000, 0.000000)">
                                            <path d="M24.4951662,1.776786 C14.4834714,-1.27602219 3.88975678,4.35311341 0.831918542,14.3496921 C-2.22651541,24.3462707 3.41139245,34.9252147 13.4224915,37.9786178 C23.4335906,41.0320208 34.0279009,35.4034801 37.0863349,25.4063066 C40.1441731,15.4097279 34.5062653,4.83078391 24.4951662,1.776786 L24.4951662,1.776786 Z M22.3399202,10.8464856 C27.5872676,12.4473545 30.554675,18.0131941 28.9513856,23.2544197 C27.3480962,28.4938452 21.7738412,31.4561727 16.5252919,29.8559038 C11.2773436,28.2544349 8.31173898,22.6891953 9.91442743,17.4479697 C11.5171159,12.2073441 17.0925727,9.24621668 22.3399202,10.8464856 L22.3399202,10.8464856 Z" id="Shape" fill="#E5B486"></path>
                                            <g id="Group" transform="translate(9.479495, 9.465649)">
                                                <path d="M12.8604249,1.38100376 C7.61187561,-0.219851393 2.03762062,2.74245067 0.434932165,7.98243121 C-1.16775629,13.2236118 1.79784833,18.7888035 7.04579667,20.3902587 C12.294346,21.9905138 17.8686009,19.0282118 19.4718903,13.7888313 C21.0751797,8.54765068 18.1077723,2.9812589 12.8604249,1.38100376 L12.8604249,1.38100376 Z M11.9709852,2.26562443 C16.4692767,3.63676044 19.0120213,8.40819528 17.6383342,12.9000724 C16.2646471,17.3919495 11.4858056,19.930476 6.98751408,18.55934 C2.48862947,17.1870194 -0.0529289436,12.4161769 1.32075817,7.92429976 C2.69563154,3.43183039 7.47269372,0.89330386 11.9709852,2.26562443 L11.9709852,2.26562443 Z" id="Shape" fill="#BABABA"></path>
                                                <path d="M19.4718417,12.8422343 C17.8685563,18.0822017 12.2949162,21.0438964 7.04577907,19.4436453 C1.79784384,17.8421941 -1.16775337,12.2770162 0.434931078,7.03584875 C2.03761552,1.7958813 7.61245752,-1.16641337 12.8603928,0.434437792 C18.108328,2.03528895 21.0751271,7.60166683 19.4718417,12.8422343 L19.4718417,12.8422343 Z M2.2687077,7.92429976 C0.895020583,12.4161769 3.43657899,17.1870194 7.9354636,18.55934 C12.4337551,19.930476 17.2125966,17.3919495 18.5862838,12.9000724 C19.9599709,8.40819528 17.4172262,3.63676044 12.9189347,2.26562443 C8.42064325,0.89330386 3.64298794,3.43183039 2.2687077,7.92429976 L2.2687077,7.92429976 Z M20.3995092,13.4527344 C22.0777342,7.96280783 18.9720187,2.13119715 13.4734246,0.455433057 C7.9748304,-1.22214529 2.13465598,1.88022563 0.455825383,7.37075693 C-1.22361086,12.861893 1.8833159,18.6935037 7.38191007,20.3698725 C12.8798986,22.0456366 18.7194674,18.9426609 20.3995092,13.4527344 L20.3995092,13.4527344 L20.3995092,13.4527344 Z M2.26897057,7.92305225 C3.64282369,3.43155345 8.41993034,0.893257885 12.9199052,2.265712 C17.4173945,3.63754566 19.960048,8.40763031 18.5861949,12.90037 C17.2123418,17.3931097 12.4339924,19.9307849 7.93588169,18.5589512 C3.43714961,17.1864971 0.89449607,12.4151715 2.26897057,7.92305225 L2.26897057,7.92305225 L2.26897057,7.92305225 Z" id="Shape" fill="#878787"></path>
                                            </g>
                                        </g>
                                    </g>
                                </g>
                                <path d="M20.7983446,3.07952586 C0.822071906,13.0085651 -2.53678626,34.2881952 1.50268736,45.682433 C2.95594177,49.7815943 26.2354999,63.5673126 59.1183689,80.4580153 C66.9559038,64.7536567 63.855787,34.3391165 63.855787,34.3391165 C63.855787,34.3391165 51.5330023,-12.1986703 20.7983446,3.07952586 L20.7983446,3.07952586 Z" id="arm_1_" fill="#986844"></path>
                                <path d="M1.51469764,45.8339964 C2.98284489,49.9153634 26.5009702,63.6412382 59.7208202,80.4580153 C43.8543258,57.7557888 2.48480974,23.7987191 2.3224201,23.6641221 C-0.695974745,31.7459771 -0.560750656,40.063226 1.51469764,45.8339964 L1.51469764,45.8339964 Z" id="Shape" fill="#895D3D"></path>
                            </g>
                            <path d="M-7.10542736e-14,137.698503 C2.46690603,147.499264 8.67934151,159.022901 8.67934151,159.022901 C30.6146893,149.013867 39.8740188,143.357677 64.4605678,145.420116 L51.7417881,124.518231 C24.4715151,120.867786 -7.10542736e-14,137.6991 -7.10542736e-14,137.698503 L-7.10542736e-14,137.698503 Z" id="Shape" fill="#D6A67F"></path>
                        </g>
                    </g>
                    <g id="Layer_4" transform="translate(437.004732, 188.366412)">
                        <g id="Group" transform="translate(0.000000, 59.633588)">
                            <rect id="Rectangle-path" fill="#BA7D4A" x="-2.7790872e-13" y="-6.97455545e-14" width="163.995268" height="123.053435"></rect>
                            <rect id="Rectangle-path" fill="#DA9A5B" x="-2.7790872e-13" y="-6.97455545e-14" width="81.5236593" height="123.053435"></rect>
                            <g id="Page_1_9_" transform="translate(11.375394, 55.847328)" fill="#191009">
                                <path d="M0.000593651117,-5.11260219e-14 L45.5015773,-5.11260219e-14 L45.5015773,23.6504136 L22.7504918,23.6504136 L22.7504918,27.4503817 L12.651299,27.4503817 L12.651299,23.6504136 L-1.21035332e-12,23.6504136 L0.000593651117,-5.11260219e-14 L0.000593651117,-5.11260219e-14 Z M2.84384858,19.8778626 L8.0557241,19.8778626 L8.0557241,7.71143055 L10.67459,7.71143055 L10.67459,19.8778626 L13.2712934,19.8778626 L13.2712934,3.78625954 L2.84384858,3.78625954 L2.84384858,19.8778626 L2.84384858,19.8778626 Z M15.1671924,3.78625954 L15.1959941,23.6641221 L20.364982,23.6641221 L20.364982,19.6979413 L25.5946372,19.6979413 L25.5946372,3.78625954 L15.1671924,3.78625954 L15.1671924,3.78625954 Z M19.9069401,7.57251908 L22.7507886,7.57251908 L22.7507886,15.1450382 L19.9069401,15.1450382 L19.9069401,7.57251908 L19.9069401,7.57251908 Z M27.4905363,3.78625954 L27.4905363,19.8778626 L32.5466645,19.8778626 L32.5466645,7.79655897 L35.0729403,7.79655897 L35.0729403,19.8778626 L37.59862,19.8778626 L37.59862,7.84573492 L40.1302607,7.84573492 L40.1302607,19.8778626 L42.6577287,19.8778626 L42.6577287,3.78625954 L27.4905363,3.78625954 L27.4905363,3.78625954 Z" id="Rectangle_1_9_"></path>
                            </g>
                            <path d="M163.995268,61.5267176 L102.378549,123.053435 L163.995268,123.053435 L163.995268,61.5267176 Z" id="Shape" opacity="0.05" fill="#000000"></path>
                            <rect id="Rectangle-path" fill="#E5B486" x="23.6987382" y="-6.86909049e-14" width="22.7507886" height="30.2900763"></rect>
                        </g>
                        <g id="Group" transform="translate(32.230284, 0.000000)">
                            <rect id="Rectangle-path" fill="#DA9A5B" x="-3.17141484e-13" y="-4.84464038e-14" width="78.6798107" height="58.6870229"></rect>
                            <rect id="Rectangle-path" fill="#BA7D4A" x="56.8769716" y="-4.84464038e-14" width="21.8028391" height="58.6870229"></rect>
                            <g id="Page_1_3_" transform="translate(64.460568, 26.503817)" fill="#191009">
                                <path d="M0.947949527,-1.40426263e-14 L11.3753943,-1.40426263e-14 L11.3753943,11.4171204 L6.16227425,11.4171204 L6.16227425,13.2519084 L3.84693819,13.2519084 L3.84693819,11.4171204 L0.948551851,11.4171204 L0.948551851,-1.40426263e-14 L0.947949527,-1.40426263e-14 Z M1.89589905,9.46564885 L2.84384858,9.46564885 L2.84384858,3.74039175 L3.32005323,3.74039175 L3.32005323,9.46564885 L3.79179811,9.46564885 L3.79179811,1.89312977 L1.89589905,1.89312977 L1.89589905,9.46564885 L1.89589905,9.46564885 Z M4.73974763,1.89312977 L4.74517294,11.3587786 L5.6847379,11.3587786 L5.6847379,9.47050577 L6.63564669,9.47050577 L6.63564669,1.89312977 L4.73974763,1.89312977 L4.73974763,1.89312977 Z M5.68769716,3.78625954 L6.63564669,3.78625954 L6.63564669,7.57251908 L5.68769716,7.57251908 L5.68769716,3.78625954 L5.68769716,3.78625954 Z M7.58359621,1.89312977 L7.58359621,9.46564885 L8.84752892,9.46564885 L8.84752892,3.78043269 L9.4788356,3.78043269 L9.4788356,9.46564885 L10.1101423,9.46564885 L10.1101423,3.80314248 L10.7440876,3.80314248 L10.7440876,9.46564885 L11.3753943,9.46564885 L11.3753943,1.89312977 L7.58359621,1.89312977 L7.58359621,1.89312977 Z" id="Rectangle_1_3_"></path>
                            </g>
                            <path d="M78.6798107,29.3435115 L49.2933754,58.6870229 L78.6798107,58.6870229 L78.6798107,29.3435115 Z" id="Shape" opacity="0.05" fill="#000000"></path>
                            <rect id="Rectangle-path" fill="#D6A67F" x="67.3044164" y="-4.84464038e-14" width="5.68769716" height="15.1450382"></rect>
                        </g>
                    </g>
                    <g id="Layer_6" transform="translate(0.000000, 255.572519)">
                        <g id="Group" transform="translate(0.000000, 21.770992)">
                            <rect id="Rectangle-path" fill="#BA7D4A" x="2.94122727e-13" y="-1.34514961e-14" width="114.701893" height="85.1908397"></rect>
                            <rect id="Rectangle-path" fill="#DA9A5B" x="2.94155004e-13" y="-1.34514961e-14" width="32.2302839" height="85.1908397"></rect>
                            <g id="Page_1_8_" transform="translate(4.739748, 38.809160)" fill="#191009">
                                <path d="M0.947949527,4.88667631e-15 L15.1671924,4.88667631e-15 L15.1671924,16.3104761 L8.05757098,16.3104761 L8.05757098,18.9312977 L4.90127908,18.9312977 L4.90127908,16.3104761 L0.947949527,16.3104761 L0.947949527,4.88667631e-15 L0.947949527,4.88667631e-15 L0.947949527,4.88667631e-15 Z M1.89589905,13.2519084 L3.31730853,13.2519084 L3.31730853,5.37942558 L4.03187439,5.37942558 L4.03187439,13.2519084 L4.73974763,13.2519084 L4.73974763,2.83969466 L1.89692869,2.83969466 L1.89589905,13.2519084 L1.89589905,13.2519084 Z M5.68769716,2.8408433 L5.69640805,16.0916031 L7.10552221,16.0916031 L7.10552221,13.4474241 L8.53154574,13.4474241 L8.53154574,2.83969466 L5.68769716,2.8408433 L5.68769716,2.8408433 Z M7.58359621,5.67938931 L8.53154574,5.67938931 L8.53154574,11.3587786 L7.58359621,11.3587786 L7.58359621,5.67938931 L7.58359621,5.67938931 Z M9.47949527,2.83969466 L9.47949527,13.2519084 L11.0605531,13.2519084 L11.0605531,5.43520631 L11.8502256,5.43520631 L11.8502256,13.2519084 L12.638756,13.2519084 L12.638756,5.46537344 L13.4301414,5.46537344 L13.4301414,13.2519084 L14.2192429,13.2519084 L14.2192429,2.83969466 L9.47949527,2.83969466 L9.47949527,2.83969466 Z" id="Rectangle_1_8_"></path>
                            </g>
                            <path d="M114.701893,42.5954198 L72.044164,85.1908397 L114.701893,85.1908397 L114.701893,42.5954198 Z" id="Shape" opacity="0.05" fill="#000000"></path>
                            <rect id="Rectangle-path" fill="#E5B486" x="8.53154574" y="-1.34514961e-14" width="7.58359621" height="21.7709924"></rect>
                        </g>
                        <g id="Group" transform="translate(57.824921, 0.000000)">
                            <rect id="Rectangle-path" fill="#DA9A5B" x="1.75484543e-13" y="2.05450584e-14" width="154.515773" height="115.480916"></rect>
                            <rect id="Rectangle-path" fill="#BA7D4A" x="76.7839117" y="2.05450584e-14" width="76.7839117" height="115.480916"></rect>
                            <g id="Page_1_12_" transform="translate(99.534700, 52.061069)" fill="#191009">
                                <path d="M1.29923149e-13,0.946564885 L43.6056782,0.946564885 L43.6056782,23.780961 L21.8025374,23.780961 L21.8025374,27.4503817 L12.123449,27.4503817 L12.123449,23.780961 L1.29923149e-13,23.780961 L1.29923149e-13,0.946564885 L1.29923149e-13,0.946564885 Z M2.84444209,19.8778626 L7.58122219,19.8778626 L7.58122219,8.4272001 L9.96177913,8.4272001 L9.96177913,19.8778626 L12.3233438,19.8778626 L12.3233438,4.73282443 L2.84384858,4.73282443 L2.84384858,19.8778626 L2.84444209,19.8778626 Z M14.2192429,4.73282443 L14.2452416,23.6641221 L18.9439231,23.6641221 L18.9439231,19.887106 L23.6987382,19.887106 L23.6987382,4.73282443 L14.2192429,4.73282443 L14.2192429,4.73282443 Z M18.9589905,8.51908397 L21.8028391,8.51908397 L21.8028391,16.0916031 L18.9589905,16.0916031 L18.9589905,8.51908397 L18.9589905,8.51908397 Z M26.5425868,4.73282443 L26.5425868,19.8778626 L31.2831246,19.8778626 L31.2831246,8.50834585 L33.6519119,8.50834585 L33.6519119,19.8778626 L36.0195139,19.8778626 L36.0195139,8.55375274 L38.3930423,8.55375274 L38.3930423,19.8778626 L40.7618297,19.8778626 L40.7618297,4.73282443 L26.5425868,4.73282443 L26.5425868,4.73282443 Z" id="Rectangle_1_12_"></path>
                            </g>
                            <path d="M154.515773,57.740458 L96.6908517,115.480916 L154.515773,115.480916 L154.515773,57.740458 Z" id="Shape" opacity="0.05" fill="#000000"></path>
                            <rect id="Rectangle-path" fill="#D6A67F" x="110.910095" y="2.05450584e-14" width="20.8548896" height="29.3435115"></rect>
                        </g>
                    </g>
                </g>
            </g>
        </g>
    </g>
</svg>