<?xml version="1.0" encoding="UTF-8" standalone="no"?>
<svg width="210px" height="210px" viewBox="0 0 210 210" version="1.1" xmlns="http://www.w3.org/2000/svg" xmlns:xlink="http://www.w3.org/1999/xlink" xmlns:sketch="http://www.bohemiancoding.com/sketch/ns">
    <!-- Generator: Sketch 3.3.3 (12072) - http://www.bohemiancoding.com/sketch -->
    <title>Untitled</title>
    <desc>Created with Sketch.</desc>
    <defs></defs>
    <g id="Page-1" stroke="none" stroke-width="1" fill="none" fill-rule="evenodd" sketch:type="MSPage">
        <g id="Wombat" sketch:type="MSLayerGroup" transform="translate(106.000000, 104.000000) rotate(-315.000000) translate(-106.000000, -104.000000) translate(40.000000, 23.000000)">
            <g id="Layer_1_1_" sketch:type="MSShapeGroup">
                <g id="npm-wombat" transform="translate(4.918269, 2.064706)">
                    <g id="Group" transform="translate(0.000000, 70.994118)">
                        <g id="body__x2B__legs">
                            <g id="body_2_" transform="translate(5.235577, 0.000000)">
                                <g id="body">
                                    <path d="M102.738043,32.2246588 C94.1058462,14.2105765 76.4429135,0.0192176471 55.7403317,0.0190588235 C35.0383846,0.0192176471 17.3752933,14.2104176 8.7429375,32.2238647 C0.110899038,50.2389 0.102649038,71.8215882 0.102649038,71.8215882 C18.9069375,84.5509765 55.7403317,85.5631588 55.7403317,85.5631588 C55.7403317,85.5631588 92.5807067,84.5484353 111.378173,71.8215882 C111.378173,71.8223824 111.370082,50.2387412 102.738043,32.2246588 L102.738043,32.2246588 Z" id="body_1_" fill="#986844"></path>
                                    <g id="body_shadow" transform="translate(0.000000, 18.423529)" fill="#895D3D">
                                        <path d="M22.6821058,62.5682118 C1.25844231,43.1834824 14.5775913,8.67319412 14.5775913,8.67319412 L20.7836538,0.0293823529 C20.7836538,0.0293823529 18.6927548,0.717882353 16.7141827,1.29647647 C13.5655385,5.12682353 10.8777837,9.34692353 8.74309615,13.8016059 C0.700774038,30.5854412 0.144216346,50.4639529 0.105822115,53.1012176 C0.105822115,53.1061412 0.105663462,53.1112235 0.105663462,53.1159882 C0.1051875,53.1488647 0.104870192,53.1787235 0.104552885,53.2052471 C0.104552885,53.2111235 0.104552885,53.2166824 0.104394231,53.2217647 C0.104076923,53.2454294 0.103918269,53.2667118 0.103759615,53.2856118 C0.103759615,53.2954588 0.103600962,53.3034 0.103600962,53.3121353 C0.103600962,53.3245235 0.103442308,53.3361176 0.103442308,53.3459647 C0.103442308,53.3559706 0.103442308,53.3626412 0.103283654,53.3697882 L0.103283654,53.3985353 C6.3195,57.6072 14.5068317,60.5346353 22.6821058,62.5682118 L22.6821058,62.5682118 L22.6821058,62.5682118 Z" id="Shape"></path>
                                        <path d="M88.807125,62.5682118 C110.230788,43.1834824 96.9117981,8.67319412 96.9117981,8.67319412 L90.7057356,0.0284294118 C90.7057356,0.0284294118 92.7974279,0.717088235 94.7752067,1.29552353 C97.923851,5.12587059 100.611606,9.34597059 102.746293,13.8001765 C110.788139,30.5844882 111.345173,50.463 111.383091,53.1002647 C111.383091,53.1051882 111.38325,53.1102706 111.383409,53.1150353 C111.384361,53.1479118 111.384678,53.1777706 111.384995,53.2042941 C111.384995,53.2101706 111.385471,53.2157294 111.385471,53.2208118 C111.385788,53.2444765 111.385947,53.2657588 111.386106,53.2846588 C111.386264,53.2945059 111.386423,53.3024471 111.386423,53.3111824 C111.386423,53.3235706 111.386582,53.3351647 111.38674,53.3450118 L111.38674,53.3688353 C111.386899,53.3853529 111.386899,53.3975824 111.386899,53.3975824 C105.169889,57.6072 96.9825577,60.5346353 88.807125,62.5682118 L88.807125,62.5682118 L88.807125,62.5682118 Z" id="Shape"></path>
                                    </g>
                                </g>
                                <g id="belly" transform="translate(0.000000, 42.882353)">
                                    <path d="M55.737,0.081 C32.0515673,0.081 11.4760673,6.80320588 1.07773558,16.6763118 C0.104235577,23.9080235 0.102014423,28.9400294 0.102014423,28.9400294 C18.9063029,41.6694176 55.7396971,42.6816 55.7396971,42.6816 C55.7396971,42.6816 92.5800721,41.6667176 111.377697,28.9400294 C111.377697,28.9400294 111.375,23.9115176 110.402611,16.6839353 C100.007769,6.8067 79.4276683,0.081 55.737,0.081 L55.737,0.081 Z" id="Shape" fill="#B78563"></path>
                                    <g id="belly_shadow" transform="translate(0.000000, 9.847059)" fill="#A57859">
                                        <path d="M22.6651298,28.2582 C22.6651298,28.2582 11.3843654,19.5352941 10.5371538,0.146276471 C10.5371538,0.146276471 3.66173077,3.90848824 1.07725962,6.83782941 C0.105028846,14.0649353 0.102649038,19.0929706 0.102649038,19.0929706 C6.31489904,23.2984588 14.4949327,26.2244647 22.6646538,28.2582 L22.6651298,28.2582 L22.6651298,28.2582 Z" id="Shape"></path>
                                        <path d="M88.815851,28.2582 C88.815851,28.2582 100.096774,19.5352941 100.943668,0.146276471 C100.943668,0.146276471 107.819091,3.90848824 110.403563,6.83782941 C111.375952,14.0649353 111.378173,19.0929706 111.378173,19.0929706 C105.166716,23.2984588 96.9858894,26.2244647 88.8161683,28.2582 L88.815851,28.2582 L88.815851,28.2582 Z" id="Shape"></path>
                                    </g>
                                </g>
                            </g>
                            <g id="legs" transform="translate(0.000000, 47.964706)">
                                <g id="leg">
                                    <path d="M37.7781779,9.84213529 C37.7780192,9.84181765 37.7778606,9.84181765 37.7777019,9.8415 C34.5854279,4.06762941 27.7939327,0.0805235294 19.9313654,0.0805235294 C9.00217788,0.0805235294 0.1423125,7.78282941 0.1423125,17.2836529 C0.1423125,25.6317353 6.92650962,33.1782353 15.7862163,34.5441176 C24.6459231,35.91 41.9290385,35.7670588 41.9290385,35.7670588 C46.1736635,32.6590412 41.4086538,16.2986294 37.7781779,9.84213529 L37.7781779,9.84213529 Z" id="Shape" fill="#986844"></path>
                                    <g id="shadow_3_" transform="translate(0.000000, 0.317647)" fill="#895D3D">
                                        <path d="M19.9312067,34.4647059 C-4.8736875,19.7760706 15.7482981,0.154535294 15.7552788,0.148023529 C6.83163462,1.81455882 0.142153846,8.71083529 0.142153846,16.9668 C0.142153846,25.3148824 6.92635096,32.8613824 15.7860577,34.2272647 C17.1615865,34.4392941 18.740351,34.6149529 20.4258894,34.7604353 C20.2639038,34.6626 20.1000144,34.5646059 19.9312067,34.4647059 L19.9312067,34.4647059 Z" id="Shape"></path>
                                        <path d="M21.739238,24.5390163 C19.6617674,21.493334 15.3695637,20.2989241 12.1523326,21.8712269 C8.93510146,23.4435298 8.01114294,27.1871464 10.0886135,30.2328286 C12.166084,33.2785108 16.4582877,34.4729208 19.6755188,32.9006179 C22.89275,31.3283151 23.8167085,27.5846985 21.739238,24.5390163 L21.739238,24.5390163 Z" id="Oval"></path>
                                    </g>
                                    <g id="Group" transform="translate(7.774038, 20.011765)">
                                        <path d="M14.7716642,6.2552735 C12.7048164,3.21427041 8.4156106,2.03098951 5.19145495,3.61234165 C1.9672993,5.19369378 1.02911591,8.94085307 3.09596372,11.9818562 C5.16281152,15.0228593 9.45201729,16.2061402 12.6761729,14.624788 C15.9003286,13.0434359 16.838512,9.2962766 14.7716642,6.2552735 L14.7716642,6.2552735 Z" id="Oval" fill="#7A5336"></path>
                                        <path d="M13.2866383,8.79408657 C12.0336999,6.95071811 9.43361492,6.23341632 7.47918593,7.19194817 C5.52475693,8.15048003 4.95608645,10.421869 6.20902486,12.2652375 C7.46196328,14.1086059 10.0620483,14.8259077 12.0164773,13.8673759 C13.9709063,12.908844 14.5395768,10.637455 13.2866383,8.79408657 L13.2866383,8.79408657 Z" id="Oval" fill="#AF7146"></path>
                                    </g>
                                </g>
                                <g id="leg_2_" transform="translate(78.692308, 0.000000)">
                                    <path d="M5.83386058,9.84213529 C5.83417788,9.84181765 5.83417788,9.84181765 5.83449519,9.8415 C9.02676923,4.06762941 15.8182644,0.0805235294 23.6800385,0.0805235294 C34.6100192,0.0805235294 43.4689327,7.78282941 43.4689327,17.2836529 C43.4689327,25.6317353 36.6837837,33.1782353 27.8250288,34.5441176 C18.966274,35.91 1.68284135,35.7670588 1.68284135,35.7670588 C-2.561625,32.6590412 2.20338462,16.2986294 5.83386058,9.84213529 L5.83386058,9.84213529 Z" id="Shape" fill="#986844"></path>
                                    <g id="shadow_2_" transform="translate(18.721154, 0.317647)" fill="#895D3D">
                                        <path d="M4.95967788,34.4647059 C29.7647308,19.7760706 9.14242788,0.154535294 9.13544712,0.148023529 C18.0590913,1.81455882 24.7485721,8.71083529 24.7485721,16.9668 C24.7485721,25.3148824 17.9640577,32.8613824 9.10466827,34.2272647 C7.72913942,34.4392941 6.150375,34.6149529 4.46499519,34.7604353 C4.62682212,34.6626 4.79071154,34.5646059 4.95967788,34.4647059 L4.95967788,34.4647059 Z" id="Shape"></path>
                                        <path d="M3.15947934,24.5436658 C1.08188418,27.5894389 2.00584554,31.3331414 5.22320479,32.9054594 C8.44056404,34.4777775 12.7329727,33.2833062 14.8105679,30.2375331 C16.888163,27.1917601 15.9642017,23.4480575 12.7468424,21.8757395 C9.52948315,20.3034215 5.2370745,21.4978928 3.15947934,24.5436658 L3.15947934,24.5436658 Z" id="Oval"></path>
                                    </g>
                                    <g id="Group" transform="translate(17.927885, 20.011765)">
                                        <path d="M3.09622912,6.19463862 C1.07304417,9.21601249 2.06901542,12.977619 5.32079316,14.5964218 C8.5725709,16.2152247 12.8487731,15.0782162 14.871958,12.0568423 C16.895143,9.03546847 15.8991717,5.273862 12.647394,3.65505914 C9.39561623,2.03625628 5.11941407,3.17326474 3.09622912,6.19463862 L3.09622912,6.19463862 Z" id="Oval" fill="#7A5336"></path>
                                        <path d="M4.59870422,8.75606841 C3.37229696,10.5875533 3.97603072,12.8677492 5.94718133,13.8490285 C7.91833193,14.8303079 10.5104647,14.1410801 11.736872,12.3095952 C12.9632793,10.4781104 12.3595455,8.19791445 10.3883949,7.21663511 C8.4172443,6.23535578 5.82511149,6.92458354 4.59870422,8.75606841 L4.59870422,8.75606841 Z" id="Oval" fill="#AF7146"></path>
                                    </g>
                                </g>
                            </g>
                        </g>
                        <g id="arms" transform="translate(10.471154, 13.182353)">
                            <g id="arm_2_">
                                <path d="M2.78754808,20.6030647 C2.63206731,20.9508882 2.47817308,21.3003 2.32840385,21.6492353 C2.31713942,21.6756 2.30635096,21.7021235 2.29524519,21.7284882 C-1.975875,36.4784294 0.538947115,41.3741647 4.95936058,49.9892294 C6.08310577,52.1790882 15.2022115,63.5646706 25.3530433,70.5205059 C28.9441731,70.5702176 31.4513798,70.5503647 31.4578846,70.5503647 C37.554,71.4602647 42.8652548,71.9275235 46.3204183,72.1611529 C45.3843606,50.9483647 36.6182596,22.8435882 36.6182596,22.8435882 C36.6182596,22.8435882 27.3635048,1.55837647 17.5680577,0.150882353 C17.2074375,0.476629412 16.8507837,0.807141176 16.4982548,1.14146471 C16.4865144,1.15226471 16.4749327,1.16433529 16.4631923,1.17545294 C15.7674952,1.83711176 15.0875048,2.51592353 14.4238558,3.21188824 C14.4021202,3.23507647 14.3805433,3.25747059 14.3588077,3.28113529 C13.7035673,3.97042941 13.064351,4.67576471 12.4417933,5.39555294 C12.4197404,5.42096471 12.3976875,5.44621765 12.3756346,5.47178824 C12.0665769,5.83072941 11.7613269,6.19316471 11.4605192,6.55957059 C11.4476683,6.57577059 11.4351346,6.5907 11.4222837,6.60642353 C11.1271875,6.96711176 10.8360577,7.33097647 10.5490529,7.69706471 C10.535726,7.71405882 10.5222404,7.73089412 10.5089135,7.74788824 C10.2238125,8.11318235 9.9433125,8.48212941 9.66630288,8.85393529 C9.631875,8.90015294 9.59776442,8.94652941 9.56365385,8.99290588 C9.01820192,9.72952941 8.48940865,10.4782235 7.97775,11.2381941 C7.93570673,11.3010882 7.89382212,11.3628706 7.85209615,11.4260824 C7.60158173,11.8001118 7.35455769,12.1771588 7.11245192,12.5577 C7.09642788,12.5821588 7.08087981,12.6075706 7.06485577,12.6336176 C6.83782212,12.9912882 6.61507212,13.3516588 6.39549519,13.7134588 C6.35487981,13.7801647 6.31410577,13.8468706 6.27380769,13.9140529 C6.04867788,14.2880824 5.82735577,14.6651294 5.61031731,15.0434471 C5.57176442,15.1109471 5.53384615,15.1790824 5.49545192,15.2461059 C5.29792788,15.5936118 5.10357692,15.9435 4.91303365,16.2948176 C4.88431731,16.3478647 4.85480769,16.4004353 4.82625,16.4534824 C4.62095192,16.8343412 4.42057212,17.2177412 4.22368269,17.6024118 C4.17973558,17.6884941 4.13610577,17.7745765 4.09247596,17.8608176 C3.894,18.2532706 3.6980625,18.6468353 3.50815385,19.0431 C3.30222115,19.4727176 3.10168269,19.9048765 2.90574519,20.3375118 C2.86512981,20.4256588 2.82705288,20.5146 2.78754808,20.6030647 L2.78754808,20.6030647 Z" id="shaodw" fill="#895D3D"></path>
                                <path d="M39.7908606,22.8426353 C39.7908606,22.8426353 49.5739327,54.2069471 49.5739327,75.6783 C27.4671058,75.6783 10.0058221,53.6382 8.13259615,49.9884353 C2.92922596,39.8475529 0.363634615,34.8641471 8.40135577,12.8917059 C20.7676298,-20.9151529 39.7908606,22.8426353 39.7908606,22.8426353 L39.7908606,22.8426353 Z" id="arm_1_" fill="#986844"></path>
                            </g>
                            <g id="arm_5_" transform="translate(51.403846, 0.000000)">
                                <path d="M46.7863846,20.6030647 C46.9417067,20.9508882 47.0949663,21.3003 47.2455288,21.6492353 C47.2567933,21.6756 47.2675817,21.7021235 47.2788462,21.7284882 C51.5498077,36.4784294 49.0349856,41.3741647 44.6145721,49.9892294 C43.4906683,52.1790882 34.3717212,63.5646706 24.2208894,70.5205059 C20.6297596,70.5702176 18.1225529,70.5503647 18.116524,70.5503647 C12.0196154,71.4602647 6.70851923,71.9275235 3.25319712,72.1611529 C4.18925481,50.9483647 12.9553558,22.8435882 12.9553558,22.8435882 C12.9553558,22.8435882 22.2099519,1.55837647 32.005399,0.150882353 C32.3657019,0.476629412 32.7226731,0.807141176 33.0744087,1.14146471 C33.086149,1.15226471 33.0977308,1.16433529 33.1102644,1.17545294 C33.8061202,1.83711176 34.4861106,2.51592353 35.149601,3.21188824 C35.1721298,3.23507647 35.1929135,3.25747059 35.214649,3.28113529 C35.8698894,3.97042941 36.5091058,4.67576471 37.1316635,5.39555294 C37.154351,5.42096471 37.1757692,5.44621765 37.1978221,5.47178824 C37.5068798,5.83072941 37.8121298,6.19316471 38.1134135,6.55957059 C38.1261058,6.57577059 38.1383221,6.5907 38.1510144,6.60642353 C38.4461106,6.96711176 38.7372404,7.33097647 39.0245625,7.69706471 C39.0378894,7.71405882 39.0516923,7.73089412 39.0650192,7.74788824 C39.3504375,8.11318235 39.6301442,8.48212941 39.9077885,8.85393529 C39.942375,8.90015294 39.9766442,8.94652941 40.0104375,8.99290588 C40.5558894,9.72952941 41.0846827,10.4782235 41.5961827,11.2381941 C41.6385433,11.3010882 41.6796346,11.3628706 41.7216779,11.4260824 C41.9720337,11.8001118 42.219851,12.1771588 42.4610048,12.5577 C42.4775048,12.5821588 42.4925769,12.6075706 42.5092356,12.6336176 C42.7365865,12.9912882 42.9588606,13.3516588 43.1789135,13.7134588 C43.2195288,13.7801647 43.2604615,13.8468706 43.3007596,13.9140529 C43.5258894,14.2880824 43.7470529,14.6651294 43.9648846,15.0434471 C44.0029615,15.1109471 44.0408798,15.1790824 44.0800673,15.2461059 C44.2774327,15.5936118 44.4717837,15.9435 44.6624856,16.2948176 C44.6918365,16.3478647 44.7205529,16.4004353 44.7494279,16.4534824 C44.9545673,16.8343412 45.1557404,17.2177412 45.3519952,17.6024118 C45.3957837,17.6884941 45.4403654,17.7745765 45.4832019,17.8608176 C45.6815192,18.2532706 45.8772981,18.6468353 46.0681587,19.0431 C46.2740913,19.4727176 46.4744712,19.9048765 46.6705673,20.3375118 C46.7088029,20.4256588 46.7467212,20.5146 46.7863846,20.6030647 L46.7863846,20.6030647 Z" id="shaodw_1_" fill="#895D3D"></path>
                                <path d="M9.78291346,22.8426353 C9.78291346,22.8426353 0,54.2069471 0,75.6783 C22.1069856,75.6783 39.5679519,53.6382 41.4413365,49.9884353 C46.6447067,39.8475529 49.2102981,34.8641471 41.1727356,12.8917059 C28.8063029,-20.9151529 9.78291346,22.8426353 9.78291346,22.8426353 L9.78291346,22.8426353 Z" id="arm_6_" fill="#986844"></path>
                            </g>
                        </g>
                        <path d="M59.9457692,5.94508235 C41.6847115,5.94508235 25.6844712,14.2351941 16.7916058,26.6617059 C32.7383798,39.7867235 60.5881587,39.6350471 60.5881587,39.6350471 C60.5881587,39.6350471 87.4996587,39.7819588 103.561774,27.3193941 C94.76775,14.5283824 78.527149,5.94508235 59.9457692,5.94508235 L59.9457692,5.94508235 Z" id="head_shadow" fill="#7A5336"></path>
                    </g>
                    <g id="npm_-_wombat_-_face" transform="translate(0.158654, 0.000000)">
                        <g id="ears_3_" transform="translate(23.639423, 0.158824)">
                            <g id="ear_4_" transform="translate(59.177885, 0.000000)">
                                <path d="M8.171625,0.121341176 L0.0747259615,5.45844706 L4.2796875,14.5418824 L15.0863942,17.4678882 C15.0863942,17.4678882 13.4657452,7.70421176 8.171625,0.121341176 L8.171625,0.121341176 Z" id="Shape" fill="#986844"></path>
                                <path d="M1.02934615,7.52092941 L0.0747259615,5.45844706 L8.171625,0.121341176 L5.89002404,9.97348235 L1.02934615,7.52092941 Z" id="Shape" fill="#895D3D"></path>
                            </g>
                            <g id="ear_1_">
                                <path d="M7.00615385,0.121341176 L15.1035288,5.45844706 L10.8985673,14.5418824 L0.0913846154,17.4678882 C0.0912259615,17.4678882 1.711875,7.70421176 7.00615385,0.121341176 L7.00615385,0.121341176 Z" id="Shape" fill="#986844"></path>
                                <path d="M14.1489087,7.52092941 L15.1033702,5.45844706 L7.00615385,0.121341176 L9.28807212,9.97348235 L14.1489087,7.52092941 Z" id="Shape" fill="#895D3D"></path>
                            </g>
                        </g>
                        <path d="M112.074346,38.1662471 C102.659192,16.8406941 83.3940144,0.0408176471 60.8139231,0.0406588235 C38.2338317,0.0408176471 18.9686538,16.8405353 9.55254808,38.1662471 C0.137394231,59.4919588 0.128509615,85.0430118 0.128509615,85.0430118 C17.2973942,108.167718 60.8136058,107.929006 60.8136058,107.929006 C60.8136058,107.929006 104.328548,108.167718 121.497591,85.0430118 C121.498543,85.0430118 121.4895,59.4919588 112.074346,38.1662471 L112.074346,38.1662471 Z" id="head_1_" fill="#986844"></path>
                        <g id="nose_6_" transform="translate(42.836538, 87.670588)">
                            <ellipse id="nose_8_" fill="#895D3D" cx="17.9773846" cy="10.4202529" rx="17.8495096" ry="8.64381176"></ellipse>
                            <ellipse id="nose_7_" fill="#000000" cx="17.9773846" cy="8.74831765" rx="17.8495096" ry="8.64349412"></ellipse>
                        </g>
                        <g id="face_4_" transform="translate(34.903846, 81.317647)">
                            <g id="eyes_6_">
                                <g id="eye_8_">
                                    <path d="M7.90746635,4.01632941 C7.90746635,6.16473529 6.16782692,7.90575882 4.021875,7.90575882 C1.87655769,7.90575882 0.135966346,6.16473529 0.135966346,4.01632941 C0.135966346,1.86760588 1.87576442,0.126582353 4.021875,0.126582353 C6.16798558,0.126582353 7.90746635,1.86760588 7.90746635,4.01632941 L7.90746635,4.01632941 Z" id="Shape" fill="#B78563"></path>
                                    <ellipse id="Oval" fill="#000000" cx="4.76025" cy="4.72690588" rx="2.90860096" ry="2.91171176"></ellipse>
                                    <ellipse id="Oval" fill="#FFFFFF" cx="5.01330288" cy="4.00171765" rx="0.940182692" ry="0.941188235"></ellipse>
                                </g>
                                <g id="eye_7_" transform="translate(43.947115, 0.000000)">
                                    <path d="M0.155322115,4.01632941 C0.155322115,6.16473529 1.89575481,7.90575882 4.04107212,7.90575882 C6.18654808,7.90575882 7.92682212,6.16473529 7.92682212,4.01632941 C7.92682212,1.86760588 6.18654808,0.126582353 4.04107212,0.126582353 C1.89480288,0.126582353 0.155322115,1.86760588 0.155322115,4.01632941 L0.155322115,4.01632941 Z" id="Shape" fill="#B78563"></path>
                                    <ellipse id="Oval" fill="#000000" cx="3.30222115" cy="4.72690588" rx="2.90860096" ry="2.91171176"></ellipse>
                                    <ellipse id="Oval" fill="#FFFFFF" cx="3.04948558" cy="4.00171765" rx="0.940341346" ry="0.941347059"></ellipse>
                                </g>
                            </g>
                        </g>
                        <path d="M10.8558894,84.3605471 C10.8558894,84.3605471 16.4690625,94.0918235 24.622601,101.668976 C15.2314038,98.2849235 6.09151442,93.0724941 0.129302885,85.0420588 C0.129302885,85.0420588 0.1381875,59.4910059 9.55334135,38.1652941 C15.695625,24.2534647 26.0308125,12.2691176 38.7429519,5.61695294 C38.1840144,5.96938235 9.99773077,24.0328588 10.8558894,84.3605471 L10.8558894,84.3605471 Z M110.779096,84.3605471 C110.779096,84.3605471 105.166082,94.0918235 97.012226,101.668976 C106.403423,98.2850824 115.543154,93.0726529 121.505683,85.0422176 C121.505683,85.0422176 121.496639,59.4911647 112.082279,38.1654529 C105.939202,24.2534647 95.6044904,12.2691176 82.892351,5.61695294 C83.4506538,5.96938235 111.637096,24.0328588 110.779096,84.3605471 L110.779096,84.3605471 Z" id="shadow_1_" fill="#895D3D"></path>
                    </g>
                </g>
                <g id="hat_3_">
                    <path d="M117.151269,40.2309529 C107.736115,18.9054 88.4709375,2.10552353 65.8908462,2.10536471 C43.3107548,2.10552353 24.0455769,18.9052412 14.6294712,40.2309529 C8.82480288,53.3788412 6.59555769,68.1324353 5.73930288,77.5144588 C10.5384231,80.4946235 16.3199279,81.6937412 20.5783558,82.1676706 C25.5115385,82.7165647 30.4409135,82.9722706 36.0912115,82.9722706 C40.6095144,82.9722706 45.0421442,82.8115412 49.7352837,82.6416 C54.846476,82.4564118 60.1312356,82.2648706 66,82.2648706 C71.8676538,82.2648706 77.1530481,82.4564118 82.2645577,82.6416 C86.9575385,82.8115412 91.3904856,82.9722706 95.9083125,82.9722706 C101.558452,82.9722706 106.488303,82.7165647 111.420851,82.1676706 C115.618356,81.7010471 121.295149,80.5279765 126.052861,77.6407235 C125.205173,68.2652118 122.982115,53.4380824 117.151269,40.2309529 L117.151269,40.2309529 Z" id="Shape" fill="#895D3D"></path>
                    <g id="construction_helmet_3_">
                        <g id="lid_3_" transform="translate(0.000000, 58.288235)">
                            <path d="M131.631288,6.89246471 C131.121534,4.37495294 129.975736,2.38251176 129.975736,2.38251176 L66,2.26720588 L2.02410577,2.38298824 C2.02410577,2.38298824 0.878307692,4.37558824 0.368394231,6.89294118 L0.128350962,6.89294118 L0.128350962,9.29181176 L0.131682692,9.29181176 C0.268600962,12.8284941 5.39597596,20.4450353 20.7701683,22.1555647 C36.3569567,23.8900765 48.7770144,22.2422824 65.9998413,22.2422824 C83.2226683,22.2422824 95.6425673,23.8900765 111.229356,22.1555647 C126.603548,20.4448765 131.73124,12.8280176 131.867841,9.29181176 L131.871173,9.29181176 L131.871173,6.89294118 L131.631288,6.89246471 L131.631288,6.89246471 Z" id="Shape" fill="#DBB309"></path>
                            <path d="M129.975736,0.128170588 L66,0.0125470588 L2.02410577,0.128329412 C2.02410577,0.128329412 0.128350962,3.42375882 0.128350962,6.8931 C0.128350962,10.3619647 5.18353846,18.1665529 20.7701683,19.9009059 C36.3569567,21.6354176 48.7770144,19.9876235 65.9998413,19.9876235 C83.2226683,19.9876235 95.6425673,21.6354176 111.229356,19.9009059 C126.816144,18.1665529 131.871014,10.3616471 131.871014,6.8931 C131.871173,3.42375882 129.975736,0.128170588 129.975736,0.128170588 L129.975736,0.128170588 Z" id="Shape" fill="#FFD217"></path>
                        </g>
                        <path d="M65.8746635,1.86712941 C31.9693846,1.86712941 4.48371635,23.4936529 4.48371635,50.1715588 L4.48371635,62.4924529 C4.48371635,66.0845647 31.9695433,68.9965941 65.8746635,68.9965941 C99.7797837,68.9965941 127.265452,66.0845647 127.265452,62.4924529 L127.265452,50.1715588 C127.265452,23.4938118 99.779625,1.86712941 65.8746635,1.86712941 L65.8746635,1.86712941 Z" id="helmet_1_" fill="#FFD217"></path>
                        <path d="M11.6451923,46.7026941 C11.6451923,30.4887176 21.7990385,16.1415529 37.3753558,7.38037059 C17.8225385,15.4592471 4.48371635,31.5885706 4.48371635,50.1715588 L4.48371635,62.4924529 C4.48371635,63.5948471 7.07627885,64.6332353 11.6451923,65.5429765 L11.6451923,46.7026941 L11.6451923,46.7026941 Z" id="shadow_9_" fill="#EDC211"></path>
                        <path d="M120.104135,46.7026941 C120.104135,30.4887176 109.950288,16.1415529 94.3739712,7.38037059 C113.926788,15.4592471 127.265452,31.5885706 127.265452,50.1715588 L127.265452,62.4924529 C127.265452,63.5948471 124.673048,64.6332353 120.103976,65.5429765 L120.103976,46.7026941 L120.104135,46.7026941 L120.104135,46.7026941 Z" id="shadow_4_" fill="#EDC211"></path>
                        <g id="top_3_" transform="translate(30.778846, 0.000000)">
                            <g id="Group" transform="translate(37.283654, 1.747059)">
                                <path d="M0.385528846,0.157870588 C10.1898606,0.444705882 19.4065385,2.538 27.5118462,6.03100588 C30.0201635,11.1956294 31.5913125,20.8049294 32.3000192,35.2797882 C32.9577981,48.7130824 32.8085048,59.4425647 32.563226,66.1260176 C23.265476,66.7968882 12.1390817,67.2031588 0.141360577,67.2458824 L0.385528846,0.157870588 L0.385528846,0.157870588 Z" id="Shape" fill="#DBB309"></path>
                                <path d="M2.06725962,1.08031765 C2.06725962,1.08031765 6.98790865,1.10191765 12.1211538,1.39383529 C16.5193558,1.64366471 21.0735144,2.09202353 22.8225144,2.89519412 C23.6251442,3.26366471 24.3898558,3.96757059 25.1064952,5.04995294 C27.7769567,9.08105294 29.7853558,18.3811235 30.6154327,35.3355353 C31.2951058,49.2075 31.098375,60.1915765 30.8726106,66.2432294 C22.3757452,66.8135647 12.4667019,67.1686941 1.82562981,67.2366706 L2.06725962,1.08031765 L2.06725962,1.08031765 Z" id="Shape" fill="#FFD217"></path>
                            </g>
                            <g id="Group" transform="translate(0.000000, 1.747059)">
                                <path d="M32.5222933,0.157870588 C22.7179615,0.444705882 13.501601,2.538 5.39613462,6.03100588 C2.88797596,11.1956294 1.31682692,20.8049294 0.607961538,35.2797882 C-0.0498173077,48.7130824 0.0996346154,59.4425647 0.344913462,66.1260176 C9.64282212,66.7968882 20.7687404,67.2031588 32.7669375,67.2458824 L32.5222933,0.157870588 L32.5222933,0.157870588 Z" id="Shape" fill="#DBB309"></path>
                                <path d="M30.8405625,1.08031765 C30.8405625,1.08031765 25.9200721,1.10191765 20.7868269,1.39383529 C16.3887837,1.64366471 11.8344663,2.09202353 10.085149,2.89519412 C9.28251923,3.26366471 8.51796635,3.96757059 7.80100962,5.04995294 C5.13054808,9.08105294 3.12199038,18.3811235 2.29175481,35.3355353 C1.61255769,49.2075 1.80944712,60.1915765 2.03505288,66.2432294 C10.5319183,66.8135647 20.4409615,67.1686941 31.081875,67.2366706 L30.8405625,1.08031765 L30.8405625,1.08031765 Z" id="Shape" fill="#FFD217"></path>
                            </g>
                            <g id="Group" transform="translate(4.125000, 0.000000)">
                                <path d="M35.2259135,2.82737647 C35.2259135,2.82737647 40.1465625,2.84897647 45.2798077,3.14089412 C49.6780096,3.39072353 54.2321683,3.83908235 55.9811683,4.64225294 C56.2269231,4.75485882 56.4682356,4.90335882 56.7065337,5.07997059 C56.7230337,5.11522941 56.7401683,5.14858235 56.7569856,5.184 C59.1824856,10.3309941 60.7634712,20.1107118 61.4558365,34.2517235 C62.2679856,50.8452882 61.8266106,63.3747176 61.5883125,68.1451412 C53.6564135,68.6244706 44.6221875,68.9222647 34.9839663,68.9834118 L35.2259135,2.82737647 L35.2259135,2.82737647 Z" id="Shape" fill="#DBB309"></path>
                                <path d="M26.7155625,2.82737647 C26.7155625,2.82737647 21.7950721,2.84897647 16.6618269,3.14089412 C12.2637837,3.39072353 7.70946635,3.83908235 5.96014904,4.64225294 C5.71455288,4.75485882 5.47292308,4.90335882 5.23478365,5.07997059 C5.218125,5.11522941 5.20083173,5.14858235 5.18401442,5.184 C2.75851442,10.3309941 1.17752885,20.1107118 0.485004808,34.2517235 C-0.327461538,50.8452882 0.114230769,63.3747176 0.352528846,68.1451412 C8.28442788,68.6244706 17.3184952,68.9222647 26.956875,68.9834118 L26.7155625,2.82737647 L26.7155625,2.82737647 Z" id="Shape" fill="#DBB309"></path>
                                <path d="M59.7728365,34.3076294 C59.0414423,19.3675765 57.3949327,10.3714941 55.1864712,5.68604118 C54.2161442,3.62657647 53.1369808,2.39871176 51.9792837,1.86728824 C48.1879327,0.126582353 31.2240288,0.0524117647 31.2240288,0.0524117647 L30.7180817,0.0524117647 C30.7180817,0.0524117647 13.7540192,0.126582353 9.96266827,1.86728824 C8.80512981,2.39887059 7.726125,3.62673529 6.75548077,5.68604118 C4.54749519,10.3713353 2.90098558,19.3675765 2.16943269,34.3076294 C1.35379327,50.9623412 1.80135577,63.4547647 2.04473077,68.2448824 C10.6037885,68.7246882 20.3603654,68.9965941 30.7182404,68.9965941 L30.7182404,69.0467824 L31.2241875,69.0467824 L31.2241875,68.9965941 C41.5820625,68.9965941 51.3386394,68.7243706 59.8975385,68.2448824 C60.1409135,63.4542882 60.588476,50.9623412 59.7728365,34.3076294 L59.7728365,34.3076294 Z" id="Shape" fill="#FFD217"></path>
                            </g>
                        </g>
                        <g id="edges_3_" transform="translate(1.903846, 47.805882)">
                            <g id="Group">
                                <path d="M3.20337981,15.0334412 L0.0439471154,15.0334412 L0.0439471154,2.54546471 C0.0439471154,0.897829412 3.20337981,0.117211765 3.20337981,0.117211765 L3.20337981,15.0334412 L3.20337981,15.0334412 Z" id="Shape" fill="#FFD217"></path>
                                <path d="M3.20337981,0.117211765 C3.20337981,0.117211765 2.71885096,0.237282353 2.12961058,0.481711765 C2.08899519,1.10747647 2.06265865,1.73562353 2.06265865,2.3652 L2.06265865,14.6860941 C2.06265865,14.7977471 2.079,14.9140059 2.11993269,15.0334412 L3.20337981,15.0334412 L3.20337981,0.117211765 L3.20337981,0.117211765 Z" id="Shape" fill="#DBB309"></path>
                            </g>
                            <g id="Group" transform="translate(124.701923, 0.000000)">
                                <path d="M0.0363317308,15.0334412 L3.19576442,15.0334412 L3.19576442,2.54546471 C3.19576442,0.897829412 0.0363317308,0.117211765 0.0363317308,0.117211765 L0.0363317308,15.0334412 L0.0363317308,15.0334412 Z" id="Shape" fill="#FFD217"></path>
                                <path d="M0.0363317308,0.117211765 C0.0363317308,0.117211765 0.521336538,0.237282353 1.11025962,0.481711765 C1.150875,1.10747647 1.17784615,1.73562353 1.17784615,2.3652 L1.17784615,14.6860941 C1.17784615,14.7977471 1.16134615,14.9140059 1.12073077,15.0334412 L0.0374423077,15.0334412 L0.0374423077,0.117211765 L0.0363317308,0.117211765 L0.0363317308,0.117211765 Z" id="Shape" fill="#DBB309"></path>
                            </g>
                        </g>
                        <path d="M65.8745048,69.9139588 C49.1795192,69.9139588 33.4773894,69.2245059 21.659899,67.9720235 C15.876649,67.3597588 11.3239183,66.6431471 8.12799519,65.8426765 C4.27635577,64.8778235 2.48245673,63.7973471 2.48245673,62.4421059 C2.48245673,61.9626176 2.95397596,61.5749294 3.53560096,61.5749294 C4.11722596,61.5749294 4.58874519,61.9627765 4.58874519,62.4421059 C4.58874519,62.4619588 5.33394231,64.4941059 21.9286587,66.2516471 C33.659524,67.4946 49.2666202,68.1794471 65.8743462,68.1794471 C82.4825481,68.1794471 98.0894856,67.4946 109.820192,66.2516471 C126.414909,64.4941059 127.160264,62.4618 127.160264,62.4421059 C127.160264,61.9626176 127.631625,61.5749294 128.213409,61.5749294 C128.795034,61.5749294 129.266712,61.9627765 129.266712,62.4421059 C129.266712,63.7968706 127.472654,64.8778235 123.621173,65.8426765 C120.425091,66.6431471 115.872361,67.3597588 110.089428,67.9720235 C98.2719375,69.2245059 82.5694904,69.9139588 65.8745048,69.9139588 L65.8745048,69.9139588 Z" id="rim_3_" fill="#DBB309"></path>
                    </g>
                    <path d="M88.1504567,62.8250294 L44.8373221,62.8250294 L44.8373221,48.2563059 L66.4938894,48.2563059 L66.4938894,45.9149294 L76.1089471,45.9149294 L76.1089471,48.2563059 L88.1501394,48.2563059 L88.1504567,62.8250294 L88.1504567,62.8250294 Z M85.6984615,50.7283941 L80.9140962,50.7283941 L80.9140962,58.0071176 L78.5085865,58.0071176 L78.5085865,50.7283941 L76.1252885,50.7283941 L76.1252885,60.3538941 L85.6989375,60.3538941 L85.6984615,50.7283941 L85.6984615,50.7283941 Z M73.7415144,60.3969353 L73.7126394,48.2563059 L68.9482644,48.2563059 L68.9482644,50.6785235 L64.1250288,50.6785235 L64.1250288,60.3967765 L73.7415144,60.3969353 L73.7415144,60.3969353 Z M69.0060144,58.0557176 L66.4937308,58.0557176 L66.4937308,53.1126529 L69.0060144,53.1126529 L69.0060144,58.0557176 L69.0060144,58.0557176 Z M61.7004808,60.3969353 L61.7004808,50.7711176 L56.9073894,50.7711176 L56.9073894,57.9979059 L54.5107644,57.9979059 L54.5107644,50.7711176 L52.1165192,50.7711176 L52.1165192,57.9688412 L49.7173558,57.9688412 L49.7173558,50.7711176 L47.3202548,50.7711176 L47.3202548,60.3969353 L61.7004808,60.3969353 L61.7004808,60.3969353 L61.7004808,60.3969353 Z" id="logo_3_" fill="#DBB309"></path>
                </g>
            </g>
        </g>
    </g>
</svg>